%TF.GenerationSoftware,KiCad,Pcbnew,9.0.0*%
%TF.CreationDate,2025-03-26T19:28:16+01:00*%
%TF.ProjectId,attiny_pwm,61747469-6e79-45f7-9077-6d2e6b696361,1*%
%TF.SameCoordinates,Original*%
%TF.FileFunction,Legend,Top*%
%TF.FilePolarity,Positive*%
%FSLAX46Y46*%
G04 Gerber Fmt 4.6, Leading zero omitted, Abs format (unit mm)*
G04 Created by KiCad (PCBNEW 9.0.0) date 2025-03-26 19:28:16*
%MOMM*%
%LPD*%
G01*
G04 APERTURE LIST*
%ADD10C,0.075000*%
%ADD11C,0.150000*%
%ADD12C,0.100000*%
%ADD13C,0.120000*%
G04 APERTURE END LIST*
D10*
X175416627Y-132957385D02*
X175416627Y-133028814D01*
X175345199Y-133000242D02*
X175416627Y-133028814D01*
X175416627Y-133028814D02*
X175488056Y-133000242D01*
X175373770Y-133085957D02*
X175416627Y-133028814D01*
X175416627Y-133028814D02*
X175459484Y-133085957D01*
X175602341Y-133257385D02*
X175602341Y-133057385D01*
X175602341Y-132957385D02*
X175588055Y-132971671D01*
X175588055Y-132971671D02*
X175602341Y-132985957D01*
X175602341Y-132985957D02*
X175616627Y-132971671D01*
X175616627Y-132971671D02*
X175602341Y-132957385D01*
X175602341Y-132957385D02*
X175602341Y-132985957D01*
X175702341Y-133057385D02*
X175816627Y-133057385D01*
X175745198Y-133257385D02*
X175745198Y-133000242D01*
X175745198Y-133000242D02*
X175759484Y-132971671D01*
X175759484Y-132971671D02*
X175788055Y-132957385D01*
X175788055Y-132957385D02*
X175816627Y-132957385D01*
X175959484Y-133257385D02*
X175930913Y-133243100D01*
X175930913Y-133243100D02*
X175916627Y-133228814D01*
X175916627Y-133228814D02*
X175902341Y-133200242D01*
X175902341Y-133200242D02*
X175902341Y-133114528D01*
X175902341Y-133114528D02*
X175916627Y-133085957D01*
X175916627Y-133085957D02*
X175930913Y-133071671D01*
X175930913Y-133071671D02*
X175959484Y-133057385D01*
X175959484Y-133057385D02*
X176002341Y-133057385D01*
X176002341Y-133057385D02*
X176030913Y-133071671D01*
X176030913Y-133071671D02*
X176045199Y-133085957D01*
X176045199Y-133085957D02*
X176059484Y-133114528D01*
X176059484Y-133114528D02*
X176059484Y-133200242D01*
X176059484Y-133200242D02*
X176045199Y-133228814D01*
X176045199Y-133228814D02*
X176030913Y-133243100D01*
X176030913Y-133243100D02*
X176002341Y-133257385D01*
X176002341Y-133257385D02*
X175959484Y-133257385D01*
X176173770Y-133243100D02*
X176202342Y-133257385D01*
X176202342Y-133257385D02*
X176259485Y-133257385D01*
X176259485Y-133257385D02*
X176288056Y-133243100D01*
X176288056Y-133243100D02*
X176302342Y-133214528D01*
X176302342Y-133214528D02*
X176302342Y-133200242D01*
X176302342Y-133200242D02*
X176288056Y-133171671D01*
X176288056Y-133171671D02*
X176259485Y-133157385D01*
X176259485Y-133157385D02*
X176216628Y-133157385D01*
X176216628Y-133157385D02*
X176188056Y-133143100D01*
X176188056Y-133143100D02*
X176173770Y-133114528D01*
X176173770Y-133114528D02*
X176173770Y-133100242D01*
X176173770Y-133100242D02*
X176188056Y-133071671D01*
X176188056Y-133071671D02*
X176216628Y-133057385D01*
X176216628Y-133057385D02*
X176259485Y-133057385D01*
X176259485Y-133057385D02*
X176288056Y-133071671D01*
X176473770Y-132957385D02*
X176473770Y-133028814D01*
X176402342Y-133000242D02*
X176473770Y-133028814D01*
X176473770Y-133028814D02*
X176545199Y-133000242D01*
X176430913Y-133085957D02*
X176473770Y-133028814D01*
X176473770Y-133028814D02*
X176516627Y-133085957D01*
D11*
X139228826Y-123229342D02*
X139171684Y-123200771D01*
X139171684Y-123200771D02*
X139085969Y-123200771D01*
X139085969Y-123200771D02*
X139000255Y-123229342D01*
X139000255Y-123229342D02*
X138943112Y-123286485D01*
X138943112Y-123286485D02*
X138914541Y-123343628D01*
X138914541Y-123343628D02*
X138885969Y-123457914D01*
X138885969Y-123457914D02*
X138885969Y-123543628D01*
X138885969Y-123543628D02*
X138914541Y-123657914D01*
X138914541Y-123657914D02*
X138943112Y-123715057D01*
X138943112Y-123715057D02*
X139000255Y-123772200D01*
X139000255Y-123772200D02*
X139085969Y-123800771D01*
X139085969Y-123800771D02*
X139143112Y-123800771D01*
X139143112Y-123800771D02*
X139228826Y-123772200D01*
X139228826Y-123772200D02*
X139257398Y-123743628D01*
X139257398Y-123743628D02*
X139257398Y-123543628D01*
X139257398Y-123543628D02*
X139143112Y-123543628D01*
X139514541Y-123800771D02*
X139514541Y-123200771D01*
X139514541Y-123200771D02*
X139857398Y-123800771D01*
X139857398Y-123800771D02*
X139857398Y-123200771D01*
X140143112Y-123800771D02*
X140143112Y-123200771D01*
X140143112Y-123200771D02*
X140285969Y-123200771D01*
X140285969Y-123200771D02*
X140371683Y-123229342D01*
X140371683Y-123229342D02*
X140428826Y-123286485D01*
X140428826Y-123286485D02*
X140457397Y-123343628D01*
X140457397Y-123343628D02*
X140485969Y-123457914D01*
X140485969Y-123457914D02*
X140485969Y-123543628D01*
X140485969Y-123543628D02*
X140457397Y-123657914D01*
X140457397Y-123657914D02*
X140428826Y-123715057D01*
X140428826Y-123715057D02*
X140371683Y-123772200D01*
X140371683Y-123772200D02*
X140285969Y-123800771D01*
X140285969Y-123800771D02*
X140143112Y-123800771D01*
D12*
X146414466Y-98828115D02*
X146414466Y-98066211D01*
X146795419Y-98447163D02*
X146033514Y-98447163D01*
D11*
X144700255Y-123200771D02*
X144414541Y-123200771D01*
X144414541Y-123200771D02*
X144385969Y-123486485D01*
X144385969Y-123486485D02*
X144414541Y-123457914D01*
X144414541Y-123457914D02*
X144471684Y-123429342D01*
X144471684Y-123429342D02*
X144614541Y-123429342D01*
X144614541Y-123429342D02*
X144671684Y-123457914D01*
X144671684Y-123457914D02*
X144700255Y-123486485D01*
X144700255Y-123486485D02*
X144728826Y-123543628D01*
X144728826Y-123543628D02*
X144728826Y-123686485D01*
X144728826Y-123686485D02*
X144700255Y-123743628D01*
X144700255Y-123743628D02*
X144671684Y-123772200D01*
X144671684Y-123772200D02*
X144614541Y-123800771D01*
X144614541Y-123800771D02*
X144471684Y-123800771D01*
X144471684Y-123800771D02*
X144414541Y-123772200D01*
X144414541Y-123772200D02*
X144385969Y-123743628D01*
X144900255Y-123200771D02*
X145100255Y-123800771D01*
X145100255Y-123800771D02*
X145300255Y-123200771D01*
D12*
X146414466Y-109078115D02*
X146414466Y-108316211D01*
X158179265Y-123968704D02*
X158655455Y-123968704D01*
X158084027Y-124254419D02*
X158417360Y-123254419D01*
X158417360Y-123254419D02*
X158750693Y-124254419D01*
X158845932Y-124349657D02*
X159607836Y-124349657D01*
X159845932Y-124254419D02*
X159845932Y-123254419D01*
X160322122Y-123587752D02*
X160322122Y-124254419D01*
X160322122Y-123682990D02*
X160369741Y-123635371D01*
X160369741Y-123635371D02*
X160464979Y-123587752D01*
X160464979Y-123587752D02*
X160607836Y-123587752D01*
X160607836Y-123587752D02*
X160703074Y-123635371D01*
X160703074Y-123635371D02*
X160750693Y-123730609D01*
X160750693Y-123730609D02*
X160750693Y-124254419D01*
X171914466Y-109328115D02*
X171914466Y-108566211D01*
X159785782Y-93010721D02*
X159452449Y-93010721D01*
X159452449Y-93534531D02*
X159452449Y-92534531D01*
X159452449Y-92534531D02*
X159928639Y-92534531D01*
X160738163Y-93534531D02*
X160738163Y-93010721D01*
X160738163Y-93010721D02*
X160690544Y-92915483D01*
X160690544Y-92915483D02*
X160595306Y-92867864D01*
X160595306Y-92867864D02*
X160404830Y-92867864D01*
X160404830Y-92867864D02*
X160309592Y-92915483D01*
X160738163Y-93486912D02*
X160642925Y-93534531D01*
X160642925Y-93534531D02*
X160404830Y-93534531D01*
X160404830Y-93534531D02*
X160309592Y-93486912D01*
X160309592Y-93486912D02*
X160261973Y-93391673D01*
X160261973Y-93391673D02*
X160261973Y-93296435D01*
X160261973Y-93296435D02*
X160309592Y-93201197D01*
X160309592Y-93201197D02*
X160404830Y-93153578D01*
X160404830Y-93153578D02*
X160642925Y-93153578D01*
X160642925Y-93153578D02*
X160738163Y-93105959D01*
X161214354Y-92867864D02*
X161214354Y-93534531D01*
X161214354Y-92963102D02*
X161261973Y-92915483D01*
X161261973Y-92915483D02*
X161357211Y-92867864D01*
X161357211Y-92867864D02*
X161500068Y-92867864D01*
X161500068Y-92867864D02*
X161595306Y-92915483D01*
X161595306Y-92915483D02*
X161642925Y-93010721D01*
X161642925Y-93010721D02*
X161642925Y-93534531D01*
X162547687Y-93486912D02*
X162452449Y-93534531D01*
X162452449Y-93534531D02*
X162261973Y-93534531D01*
X162261973Y-93534531D02*
X162166735Y-93486912D01*
X162166735Y-93486912D02*
X162119116Y-93439292D01*
X162119116Y-93439292D02*
X162071497Y-93344054D01*
X162071497Y-93344054D02*
X162071497Y-93058340D01*
X162071497Y-93058340D02*
X162119116Y-92963102D01*
X162119116Y-92963102D02*
X162166735Y-92915483D01*
X162166735Y-92915483D02*
X162261973Y-92867864D01*
X162261973Y-92867864D02*
X162452449Y-92867864D01*
X162452449Y-92867864D02*
X162547687Y-92915483D01*
X162881021Y-92867864D02*
X163119116Y-93534531D01*
X163357211Y-92867864D02*
X163119116Y-93534531D01*
X163119116Y-93534531D02*
X163023878Y-93772626D01*
X163023878Y-93772626D02*
X162976259Y-93820245D01*
X162976259Y-93820245D02*
X162881021Y-93867864D01*
X163738164Y-93153578D02*
X164500069Y-93153578D01*
X164976259Y-93534531D02*
X164976259Y-92534531D01*
X164976259Y-92534531D02*
X165214354Y-92534531D01*
X165214354Y-92534531D02*
X165357211Y-92582150D01*
X165357211Y-92582150D02*
X165452449Y-92677388D01*
X165452449Y-92677388D02*
X165500068Y-92772626D01*
X165500068Y-92772626D02*
X165547687Y-92963102D01*
X165547687Y-92963102D02*
X165547687Y-93105959D01*
X165547687Y-93105959D02*
X165500068Y-93296435D01*
X165500068Y-93296435D02*
X165452449Y-93391673D01*
X165452449Y-93391673D02*
X165357211Y-93486912D01*
X165357211Y-93486912D02*
X165214354Y-93534531D01*
X165214354Y-93534531D02*
X164976259Y-93534531D01*
X165976259Y-93534531D02*
X165976259Y-92867864D01*
X165976259Y-92534531D02*
X165928640Y-92582150D01*
X165928640Y-92582150D02*
X165976259Y-92629769D01*
X165976259Y-92629769D02*
X166023878Y-92582150D01*
X166023878Y-92582150D02*
X165976259Y-92534531D01*
X165976259Y-92534531D02*
X165976259Y-92629769D01*
X166452449Y-93534531D02*
X166452449Y-92867864D01*
X166452449Y-92963102D02*
X166500068Y-92915483D01*
X166500068Y-92915483D02*
X166595306Y-92867864D01*
X166595306Y-92867864D02*
X166738163Y-92867864D01*
X166738163Y-92867864D02*
X166833401Y-92915483D01*
X166833401Y-92915483D02*
X166881020Y-93010721D01*
X166881020Y-93010721D02*
X166881020Y-93534531D01*
X166881020Y-93010721D02*
X166928639Y-92915483D01*
X166928639Y-92915483D02*
X167023877Y-92867864D01*
X167023877Y-92867864D02*
X167166734Y-92867864D01*
X167166734Y-92867864D02*
X167261973Y-92915483D01*
X167261973Y-92915483D02*
X167309592Y-93010721D01*
X167309592Y-93010721D02*
X167309592Y-93534531D01*
X167785782Y-93534531D02*
X167785782Y-92867864D01*
X167785782Y-92963102D02*
X167833401Y-92915483D01*
X167833401Y-92915483D02*
X167928639Y-92867864D01*
X167928639Y-92867864D02*
X168071496Y-92867864D01*
X168071496Y-92867864D02*
X168166734Y-92915483D01*
X168166734Y-92915483D02*
X168214353Y-93010721D01*
X168214353Y-93010721D02*
X168214353Y-93534531D01*
X168214353Y-93010721D02*
X168261972Y-92915483D01*
X168261972Y-92915483D02*
X168357210Y-92867864D01*
X168357210Y-92867864D02*
X168500067Y-92867864D01*
X168500067Y-92867864D02*
X168595306Y-92915483D01*
X168595306Y-92915483D02*
X168642925Y-93010721D01*
X168642925Y-93010721D02*
X168642925Y-93534531D01*
X169500067Y-93486912D02*
X169404829Y-93534531D01*
X169404829Y-93534531D02*
X169214353Y-93534531D01*
X169214353Y-93534531D02*
X169119115Y-93486912D01*
X169119115Y-93486912D02*
X169071496Y-93391673D01*
X169071496Y-93391673D02*
X169071496Y-93010721D01*
X169071496Y-93010721D02*
X169119115Y-92915483D01*
X169119115Y-92915483D02*
X169214353Y-92867864D01*
X169214353Y-92867864D02*
X169404829Y-92867864D01*
X169404829Y-92867864D02*
X169500067Y-92915483D01*
X169500067Y-92915483D02*
X169547686Y-93010721D01*
X169547686Y-93010721D02*
X169547686Y-93105959D01*
X169547686Y-93105959D02*
X169071496Y-93201197D01*
X169976258Y-93534531D02*
X169976258Y-92867864D01*
X169976258Y-93058340D02*
X170023877Y-92963102D01*
X170023877Y-92963102D02*
X170071496Y-92915483D01*
X170071496Y-92915483D02*
X170166734Y-92867864D01*
X170166734Y-92867864D02*
X170261972Y-92867864D01*
X171214354Y-92534531D02*
X171547687Y-93534531D01*
X171547687Y-93534531D02*
X171881020Y-92534531D01*
X172738163Y-93534531D02*
X172166735Y-93534531D01*
X172452449Y-93534531D02*
X172452449Y-92534531D01*
X172452449Y-92534531D02*
X172357211Y-92677388D01*
X172357211Y-92677388D02*
X172261973Y-92772626D01*
X172261973Y-92772626D02*
X172166735Y-92820245D01*
X173166735Y-93439292D02*
X173214354Y-93486912D01*
X173214354Y-93486912D02*
X173166735Y-93534531D01*
X173166735Y-93534531D02*
X173119116Y-93486912D01*
X173119116Y-93486912D02*
X173166735Y-93439292D01*
X173166735Y-93439292D02*
X173166735Y-93534531D01*
X173833401Y-92534531D02*
X173928639Y-92534531D01*
X173928639Y-92534531D02*
X174023877Y-92582150D01*
X174023877Y-92582150D02*
X174071496Y-92629769D01*
X174071496Y-92629769D02*
X174119115Y-92725007D01*
X174119115Y-92725007D02*
X174166734Y-92915483D01*
X174166734Y-92915483D02*
X174166734Y-93153578D01*
X174166734Y-93153578D02*
X174119115Y-93344054D01*
X174119115Y-93344054D02*
X174071496Y-93439292D01*
X174071496Y-93439292D02*
X174023877Y-93486912D01*
X174023877Y-93486912D02*
X173928639Y-93534531D01*
X173928639Y-93534531D02*
X173833401Y-93534531D01*
X173833401Y-93534531D02*
X173738163Y-93486912D01*
X173738163Y-93486912D02*
X173690544Y-93439292D01*
X173690544Y-93439292D02*
X173642925Y-93344054D01*
X173642925Y-93344054D02*
X173595306Y-93153578D01*
X173595306Y-93153578D02*
X173595306Y-92915483D01*
X173595306Y-92915483D02*
X173642925Y-92725007D01*
X173642925Y-92725007D02*
X173690544Y-92629769D01*
X173690544Y-92629769D02*
X173738163Y-92582150D01*
X173738163Y-92582150D02*
X173833401Y-92534531D01*
X160309591Y-95144475D02*
X159738163Y-95144475D01*
X160023877Y-95144475D02*
X160023877Y-94144475D01*
X160023877Y-94144475D02*
X159928639Y-94287332D01*
X159928639Y-94287332D02*
X159833401Y-94382570D01*
X159833401Y-94382570D02*
X159738163Y-94430189D01*
X160690544Y-94239713D02*
X160738163Y-94192094D01*
X160738163Y-94192094D02*
X160833401Y-94144475D01*
X160833401Y-94144475D02*
X161071496Y-94144475D01*
X161071496Y-94144475D02*
X161166734Y-94192094D01*
X161166734Y-94192094D02*
X161214353Y-94239713D01*
X161214353Y-94239713D02*
X161261972Y-94334951D01*
X161261972Y-94334951D02*
X161261972Y-94430189D01*
X161261972Y-94430189D02*
X161214353Y-94573046D01*
X161214353Y-94573046D02*
X160642925Y-95144475D01*
X160642925Y-95144475D02*
X161261972Y-95144475D01*
X161547687Y-94144475D02*
X161881020Y-95144475D01*
X161881020Y-95144475D02*
X162214353Y-94144475D01*
X162547687Y-95144475D02*
X162547687Y-94144475D01*
X162547687Y-94144475D02*
X162785782Y-94144475D01*
X162785782Y-94144475D02*
X162928639Y-94192094D01*
X162928639Y-94192094D02*
X163023877Y-94287332D01*
X163023877Y-94287332D02*
X163071496Y-94382570D01*
X163071496Y-94382570D02*
X163119115Y-94573046D01*
X163119115Y-94573046D02*
X163119115Y-94715903D01*
X163119115Y-94715903D02*
X163071496Y-94906379D01*
X163071496Y-94906379D02*
X163023877Y-95001617D01*
X163023877Y-95001617D02*
X162928639Y-95096856D01*
X162928639Y-95096856D02*
X162785782Y-95144475D01*
X162785782Y-95144475D02*
X162547687Y-95144475D01*
X164119115Y-95049236D02*
X164071496Y-95096856D01*
X164071496Y-95096856D02*
X163928639Y-95144475D01*
X163928639Y-95144475D02*
X163833401Y-95144475D01*
X163833401Y-95144475D02*
X163690544Y-95096856D01*
X163690544Y-95096856D02*
X163595306Y-95001617D01*
X163595306Y-95001617D02*
X163547687Y-94906379D01*
X163547687Y-94906379D02*
X163500068Y-94715903D01*
X163500068Y-94715903D02*
X163500068Y-94573046D01*
X163500068Y-94573046D02*
X163547687Y-94382570D01*
X163547687Y-94382570D02*
X163595306Y-94287332D01*
X163595306Y-94287332D02*
X163690544Y-94192094D01*
X163690544Y-94192094D02*
X163833401Y-94144475D01*
X163833401Y-94144475D02*
X163928639Y-94144475D01*
X163928639Y-94144475D02*
X164071496Y-94192094D01*
X164071496Y-94192094D02*
X164119115Y-94239713D01*
X165309592Y-94763522D02*
X166071497Y-94763522D01*
X166547687Y-94477808D02*
X167309592Y-94763522D01*
X167309592Y-94763522D02*
X166547687Y-95049236D01*
X169071496Y-95144475D02*
X168500068Y-95144475D01*
X168785782Y-95144475D02*
X168785782Y-94144475D01*
X168785782Y-94144475D02*
X168690544Y-94287332D01*
X168690544Y-94287332D02*
X168595306Y-94382570D01*
X168595306Y-94382570D02*
X168500068Y-94430189D01*
X169452449Y-94239713D02*
X169500068Y-94192094D01*
X169500068Y-94192094D02*
X169595306Y-94144475D01*
X169595306Y-94144475D02*
X169833401Y-94144475D01*
X169833401Y-94144475D02*
X169928639Y-94192094D01*
X169928639Y-94192094D02*
X169976258Y-94239713D01*
X169976258Y-94239713D02*
X170023877Y-94334951D01*
X170023877Y-94334951D02*
X170023877Y-94430189D01*
X170023877Y-94430189D02*
X169976258Y-94573046D01*
X169976258Y-94573046D02*
X169404830Y-95144475D01*
X169404830Y-95144475D02*
X170023877Y-95144475D01*
X170309592Y-94144475D02*
X170642925Y-95144475D01*
X170642925Y-95144475D02*
X170976258Y-94144475D01*
X171309592Y-95144475D02*
X171309592Y-94144475D01*
X171309592Y-94144475D02*
X171690544Y-94144475D01*
X171690544Y-94144475D02*
X171785782Y-94192094D01*
X171785782Y-94192094D02*
X171833401Y-94239713D01*
X171833401Y-94239713D02*
X171881020Y-94334951D01*
X171881020Y-94334951D02*
X171881020Y-94477808D01*
X171881020Y-94477808D02*
X171833401Y-94573046D01*
X171833401Y-94573046D02*
X171785782Y-94620665D01*
X171785782Y-94620665D02*
X171690544Y-94668284D01*
X171690544Y-94668284D02*
X171309592Y-94668284D01*
X172214354Y-94144475D02*
X172452449Y-95144475D01*
X172452449Y-95144475D02*
X172642925Y-94430189D01*
X172642925Y-94430189D02*
X172833401Y-95144475D01*
X172833401Y-95144475D02*
X173071497Y-94144475D01*
X173452449Y-95144475D02*
X173452449Y-94144475D01*
X173452449Y-94144475D02*
X173785782Y-94858760D01*
X173785782Y-94858760D02*
X174119115Y-94144475D01*
X174119115Y-94144475D02*
X174119115Y-95144475D01*
X168023878Y-96754419D02*
X168023878Y-95754419D01*
X168500068Y-96754419D02*
X168500068Y-96087752D01*
X168500068Y-96182990D02*
X168547687Y-96135371D01*
X168547687Y-96135371D02*
X168642925Y-96087752D01*
X168642925Y-96087752D02*
X168785782Y-96087752D01*
X168785782Y-96087752D02*
X168881020Y-96135371D01*
X168881020Y-96135371D02*
X168928639Y-96230609D01*
X168928639Y-96230609D02*
X168928639Y-96754419D01*
X168928639Y-96230609D02*
X168976258Y-96135371D01*
X168976258Y-96135371D02*
X169071496Y-96087752D01*
X169071496Y-96087752D02*
X169214353Y-96087752D01*
X169214353Y-96087752D02*
X169309592Y-96135371D01*
X169309592Y-96135371D02*
X169357211Y-96230609D01*
X169357211Y-96230609D02*
X169357211Y-96754419D01*
X170261972Y-96754419D02*
X170261972Y-96230609D01*
X170261972Y-96230609D02*
X170214353Y-96135371D01*
X170214353Y-96135371D02*
X170119115Y-96087752D01*
X170119115Y-96087752D02*
X169928639Y-96087752D01*
X169928639Y-96087752D02*
X169833401Y-96135371D01*
X170261972Y-96706800D02*
X170166734Y-96754419D01*
X170166734Y-96754419D02*
X169928639Y-96754419D01*
X169928639Y-96754419D02*
X169833401Y-96706800D01*
X169833401Y-96706800D02*
X169785782Y-96611561D01*
X169785782Y-96611561D02*
X169785782Y-96516323D01*
X169785782Y-96516323D02*
X169833401Y-96421085D01*
X169833401Y-96421085D02*
X169928639Y-96373466D01*
X169928639Y-96373466D02*
X170166734Y-96373466D01*
X170166734Y-96373466D02*
X170261972Y-96325847D01*
X170642925Y-96754419D02*
X171166734Y-96087752D01*
X170642925Y-96087752D02*
X171166734Y-96754419D01*
X171547687Y-96659180D02*
X171595306Y-96706800D01*
X171595306Y-96706800D02*
X171547687Y-96754419D01*
X171547687Y-96754419D02*
X171500068Y-96706800D01*
X171500068Y-96706800D02*
X171547687Y-96659180D01*
X171547687Y-96659180D02*
X171547687Y-96754419D01*
X171547687Y-96135371D02*
X171595306Y-96182990D01*
X171595306Y-96182990D02*
X171547687Y-96230609D01*
X171547687Y-96230609D02*
X171500068Y-96182990D01*
X171500068Y-96182990D02*
X171547687Y-96135371D01*
X171547687Y-96135371D02*
X171547687Y-96230609D01*
X173261972Y-95754419D02*
X172785782Y-95754419D01*
X172785782Y-95754419D02*
X172738163Y-96230609D01*
X172738163Y-96230609D02*
X172785782Y-96182990D01*
X172785782Y-96182990D02*
X172881020Y-96135371D01*
X172881020Y-96135371D02*
X173119115Y-96135371D01*
X173119115Y-96135371D02*
X173214353Y-96182990D01*
X173214353Y-96182990D02*
X173261972Y-96230609D01*
X173261972Y-96230609D02*
X173309591Y-96325847D01*
X173309591Y-96325847D02*
X173309591Y-96563942D01*
X173309591Y-96563942D02*
X173261972Y-96659180D01*
X173261972Y-96659180D02*
X173214353Y-96706800D01*
X173214353Y-96706800D02*
X173119115Y-96754419D01*
X173119115Y-96754419D02*
X172881020Y-96754419D01*
X172881020Y-96754419D02*
X172785782Y-96706800D01*
X172785782Y-96706800D02*
X172738163Y-96659180D01*
X173690544Y-96468704D02*
X174166734Y-96468704D01*
X173595306Y-96754419D02*
X173928639Y-95754419D01*
X173928639Y-95754419D02*
X174261972Y-96754419D01*
X171914466Y-98578115D02*
X171914466Y-97816211D01*
X172295419Y-98197163D02*
X171533514Y-98197163D01*
X154203074Y-123254419D02*
X153726884Y-123254419D01*
X153726884Y-123254419D02*
X153679265Y-123730609D01*
X153679265Y-123730609D02*
X153726884Y-123682990D01*
X153726884Y-123682990D02*
X153822122Y-123635371D01*
X153822122Y-123635371D02*
X154060217Y-123635371D01*
X154060217Y-123635371D02*
X154155455Y-123682990D01*
X154155455Y-123682990D02*
X154203074Y-123730609D01*
X154203074Y-123730609D02*
X154250693Y-123825847D01*
X154250693Y-123825847D02*
X154250693Y-124063942D01*
X154250693Y-124063942D02*
X154203074Y-124159180D01*
X154203074Y-124159180D02*
X154155455Y-124206800D01*
X154155455Y-124206800D02*
X154060217Y-124254419D01*
X154060217Y-124254419D02*
X153822122Y-124254419D01*
X153822122Y-124254419D02*
X153726884Y-124206800D01*
X153726884Y-124206800D02*
X153679265Y-124159180D01*
X154536408Y-123254419D02*
X154869741Y-124254419D01*
X154869741Y-124254419D02*
X155203074Y-123254419D01*
D11*
X141414541Y-123200771D02*
X141414541Y-123686485D01*
X141414541Y-123686485D02*
X141443112Y-123743628D01*
X141443112Y-123743628D02*
X141471684Y-123772200D01*
X141471684Y-123772200D02*
X141528826Y-123800771D01*
X141528826Y-123800771D02*
X141643112Y-123800771D01*
X141643112Y-123800771D02*
X141700255Y-123772200D01*
X141700255Y-123772200D02*
X141728826Y-123743628D01*
X141728826Y-123743628D02*
X141757398Y-123686485D01*
X141757398Y-123686485D02*
X141757398Y-123200771D01*
X142043112Y-123800771D02*
X142043112Y-123200771D01*
X142043112Y-123200771D02*
X142271683Y-123200771D01*
X142271683Y-123200771D02*
X142328826Y-123229342D01*
X142328826Y-123229342D02*
X142357397Y-123257914D01*
X142357397Y-123257914D02*
X142385969Y-123315057D01*
X142385969Y-123315057D02*
X142385969Y-123400771D01*
X142385969Y-123400771D02*
X142357397Y-123457914D01*
X142357397Y-123457914D02*
X142328826Y-123486485D01*
X142328826Y-123486485D02*
X142271683Y-123515057D01*
X142271683Y-123515057D02*
X142043112Y-123515057D01*
X142643112Y-123800771D02*
X142643112Y-123200771D01*
X142643112Y-123200771D02*
X142785969Y-123200771D01*
X142785969Y-123200771D02*
X142871683Y-123229342D01*
X142871683Y-123229342D02*
X142928826Y-123286485D01*
X142928826Y-123286485D02*
X142957397Y-123343628D01*
X142957397Y-123343628D02*
X142985969Y-123457914D01*
X142985969Y-123457914D02*
X142985969Y-123543628D01*
X142985969Y-123543628D02*
X142957397Y-123657914D01*
X142957397Y-123657914D02*
X142928826Y-123715057D01*
X142928826Y-123715057D02*
X142871683Y-123772200D01*
X142871683Y-123772200D02*
X142785969Y-123800771D01*
X142785969Y-123800771D02*
X142643112Y-123800771D01*
X143243112Y-123800771D02*
X143243112Y-123200771D01*
D12*
X163750693Y-123302038D02*
X163655455Y-123254419D01*
X163655455Y-123254419D02*
X163512598Y-123254419D01*
X163512598Y-123254419D02*
X163369741Y-123302038D01*
X163369741Y-123302038D02*
X163274503Y-123397276D01*
X163274503Y-123397276D02*
X163226884Y-123492514D01*
X163226884Y-123492514D02*
X163179265Y-123682990D01*
X163179265Y-123682990D02*
X163179265Y-123825847D01*
X163179265Y-123825847D02*
X163226884Y-124016323D01*
X163226884Y-124016323D02*
X163274503Y-124111561D01*
X163274503Y-124111561D02*
X163369741Y-124206800D01*
X163369741Y-124206800D02*
X163512598Y-124254419D01*
X163512598Y-124254419D02*
X163607836Y-124254419D01*
X163607836Y-124254419D02*
X163750693Y-124206800D01*
X163750693Y-124206800D02*
X163798312Y-124159180D01*
X163798312Y-124159180D02*
X163798312Y-123825847D01*
X163798312Y-123825847D02*
X163607836Y-123825847D01*
X164226884Y-124254419D02*
X164226884Y-123254419D01*
X164226884Y-123254419D02*
X164798312Y-124254419D01*
X164798312Y-124254419D02*
X164798312Y-123254419D01*
X165274503Y-124254419D02*
X165274503Y-123254419D01*
X165274503Y-123254419D02*
X165512598Y-123254419D01*
X165512598Y-123254419D02*
X165655455Y-123302038D01*
X165655455Y-123302038D02*
X165750693Y-123397276D01*
X165750693Y-123397276D02*
X165798312Y-123492514D01*
X165798312Y-123492514D02*
X165845931Y-123682990D01*
X165845931Y-123682990D02*
X165845931Y-123825847D01*
X165845931Y-123825847D02*
X165798312Y-124016323D01*
X165798312Y-124016323D02*
X165750693Y-124111561D01*
X165750693Y-124111561D02*
X165655455Y-124206800D01*
X165655455Y-124206800D02*
X165512598Y-124254419D01*
X165512598Y-124254419D02*
X165274503Y-124254419D01*
D11*
X146914200Y-129182000D02*
X146942771Y-129096286D01*
X146942771Y-129096286D02*
X146942771Y-128953428D01*
X146942771Y-128953428D02*
X146914200Y-128896286D01*
X146914200Y-128896286D02*
X146885628Y-128867714D01*
X146885628Y-128867714D02*
X146828485Y-128839143D01*
X146828485Y-128839143D02*
X146771342Y-128839143D01*
X146771342Y-128839143D02*
X146714200Y-128867714D01*
X146714200Y-128867714D02*
X146685628Y-128896286D01*
X146685628Y-128896286D02*
X146657057Y-128953428D01*
X146657057Y-128953428D02*
X146628485Y-129067714D01*
X146628485Y-129067714D02*
X146599914Y-129124857D01*
X146599914Y-129124857D02*
X146571342Y-129153428D01*
X146571342Y-129153428D02*
X146514200Y-129182000D01*
X146514200Y-129182000D02*
X146457057Y-129182000D01*
X146457057Y-129182000D02*
X146399914Y-129153428D01*
X146399914Y-129153428D02*
X146371342Y-129124857D01*
X146371342Y-129124857D02*
X146342771Y-129067714D01*
X146342771Y-129067714D02*
X146342771Y-128924857D01*
X146342771Y-128924857D02*
X146371342Y-128839143D01*
X146342771Y-128639142D02*
X146942771Y-128496285D01*
X146942771Y-128496285D02*
X146514200Y-128381999D01*
X146514200Y-128381999D02*
X146942771Y-128267714D01*
X146942771Y-128267714D02*
X146342771Y-128124857D01*
X146399914Y-127924857D02*
X146371342Y-127896285D01*
X146371342Y-127896285D02*
X146342771Y-127839143D01*
X146342771Y-127839143D02*
X146342771Y-127696285D01*
X146342771Y-127696285D02*
X146371342Y-127639143D01*
X146371342Y-127639143D02*
X146399914Y-127610571D01*
X146399914Y-127610571D02*
X146457057Y-127582000D01*
X146457057Y-127582000D02*
X146514200Y-127582000D01*
X146514200Y-127582000D02*
X146599914Y-127610571D01*
X146599914Y-127610571D02*
X146942771Y-127953428D01*
X146942771Y-127953428D02*
X146942771Y-127582000D01*
X167942771Y-108074856D02*
X167342771Y-108074856D01*
X167342771Y-108074856D02*
X167342771Y-107931999D01*
X167342771Y-107931999D02*
X167371342Y-107846285D01*
X167371342Y-107846285D02*
X167428485Y-107789142D01*
X167428485Y-107789142D02*
X167485628Y-107760571D01*
X167485628Y-107760571D02*
X167599914Y-107731999D01*
X167599914Y-107731999D02*
X167685628Y-107731999D01*
X167685628Y-107731999D02*
X167799914Y-107760571D01*
X167799914Y-107760571D02*
X167857057Y-107789142D01*
X167857057Y-107789142D02*
X167914200Y-107846285D01*
X167914200Y-107846285D02*
X167942771Y-107931999D01*
X167942771Y-107931999D02*
X167942771Y-108074856D01*
X167399914Y-107503428D02*
X167371342Y-107474856D01*
X167371342Y-107474856D02*
X167342771Y-107417714D01*
X167342771Y-107417714D02*
X167342771Y-107274856D01*
X167342771Y-107274856D02*
X167371342Y-107217714D01*
X167371342Y-107217714D02*
X167399914Y-107189142D01*
X167399914Y-107189142D02*
X167457057Y-107160571D01*
X167457057Y-107160571D02*
X167514200Y-107160571D01*
X167514200Y-107160571D02*
X167599914Y-107189142D01*
X167599914Y-107189142D02*
X167942771Y-107531999D01*
X167942771Y-107531999D02*
X167942771Y-107160571D01*
X141722999Y-118801771D02*
X141722999Y-119230342D01*
X141722999Y-119230342D02*
X141694428Y-119316057D01*
X141694428Y-119316057D02*
X141637285Y-119373200D01*
X141637285Y-119373200D02*
X141551571Y-119401771D01*
X141551571Y-119401771D02*
X141494428Y-119401771D01*
X141980142Y-118858914D02*
X142008714Y-118830342D01*
X142008714Y-118830342D02*
X142065857Y-118801771D01*
X142065857Y-118801771D02*
X142208714Y-118801771D01*
X142208714Y-118801771D02*
X142265857Y-118830342D01*
X142265857Y-118830342D02*
X142294428Y-118858914D01*
X142294428Y-118858914D02*
X142322999Y-118916057D01*
X142322999Y-118916057D02*
X142322999Y-118973200D01*
X142322999Y-118973200D02*
X142294428Y-119058914D01*
X142294428Y-119058914D02*
X141951571Y-119401771D01*
X141951571Y-119401771D02*
X142322999Y-119401771D01*
X158215857Y-97051771D02*
X158215857Y-97537485D01*
X158215857Y-97537485D02*
X158244428Y-97594628D01*
X158244428Y-97594628D02*
X158273000Y-97623200D01*
X158273000Y-97623200D02*
X158330142Y-97651771D01*
X158330142Y-97651771D02*
X158444428Y-97651771D01*
X158444428Y-97651771D02*
X158501571Y-97623200D01*
X158501571Y-97623200D02*
X158530142Y-97594628D01*
X158530142Y-97594628D02*
X158558714Y-97537485D01*
X158558714Y-97537485D02*
X158558714Y-97051771D01*
X159158713Y-97651771D02*
X158815856Y-97651771D01*
X158987285Y-97651771D02*
X158987285Y-97051771D01*
X158987285Y-97051771D02*
X158930142Y-97137485D01*
X158930142Y-97137485D02*
X158872999Y-97194628D01*
X158872999Y-97194628D02*
X158815856Y-97223200D01*
X161487285Y-97651771D02*
X161201571Y-97651771D01*
X161201571Y-97651771D02*
X161201571Y-97051771D01*
X161687285Y-97651771D02*
X161687285Y-97051771D01*
X161687285Y-97051771D02*
X161887285Y-97480342D01*
X161887285Y-97480342D02*
X162087285Y-97051771D01*
X162087285Y-97051771D02*
X162087285Y-97651771D01*
X162344427Y-97108914D02*
X162372999Y-97080342D01*
X162372999Y-97080342D02*
X162430142Y-97051771D01*
X162430142Y-97051771D02*
X162572999Y-97051771D01*
X162572999Y-97051771D02*
X162630142Y-97080342D01*
X162630142Y-97080342D02*
X162658713Y-97108914D01*
X162658713Y-97108914D02*
X162687284Y-97166057D01*
X162687284Y-97166057D02*
X162687284Y-97223200D01*
X162687284Y-97223200D02*
X162658713Y-97308914D01*
X162658713Y-97308914D02*
X162315856Y-97651771D01*
X162315856Y-97651771D02*
X162687284Y-97651771D01*
X162972999Y-97651771D02*
X163087285Y-97651771D01*
X163087285Y-97651771D02*
X163144428Y-97623200D01*
X163144428Y-97623200D02*
X163172999Y-97594628D01*
X163172999Y-97594628D02*
X163230142Y-97508914D01*
X163230142Y-97508914D02*
X163258713Y-97394628D01*
X163258713Y-97394628D02*
X163258713Y-97166057D01*
X163258713Y-97166057D02*
X163230142Y-97108914D01*
X163230142Y-97108914D02*
X163201571Y-97080342D01*
X163201571Y-97080342D02*
X163144428Y-97051771D01*
X163144428Y-97051771D02*
X163030142Y-97051771D01*
X163030142Y-97051771D02*
X162972999Y-97080342D01*
X162972999Y-97080342D02*
X162944428Y-97108914D01*
X162944428Y-97108914D02*
X162915856Y-97166057D01*
X162915856Y-97166057D02*
X162915856Y-97308914D01*
X162915856Y-97308914D02*
X162944428Y-97366057D01*
X162944428Y-97366057D02*
X162972999Y-97394628D01*
X162972999Y-97394628D02*
X163030142Y-97423200D01*
X163030142Y-97423200D02*
X163144428Y-97423200D01*
X163144428Y-97423200D02*
X163201571Y-97394628D01*
X163201571Y-97394628D02*
X163230142Y-97366057D01*
X163230142Y-97366057D02*
X163258713Y-97308914D01*
X163458714Y-97051771D02*
X163830142Y-97051771D01*
X163830142Y-97051771D02*
X163630142Y-97280342D01*
X163630142Y-97280342D02*
X163715857Y-97280342D01*
X163715857Y-97280342D02*
X163773000Y-97308914D01*
X163773000Y-97308914D02*
X163801571Y-97337485D01*
X163801571Y-97337485D02*
X163830142Y-97394628D01*
X163830142Y-97394628D02*
X163830142Y-97537485D01*
X163830142Y-97537485D02*
X163801571Y-97594628D01*
X163801571Y-97594628D02*
X163773000Y-97623200D01*
X163773000Y-97623200D02*
X163715857Y-97651771D01*
X163715857Y-97651771D02*
X163544428Y-97651771D01*
X163544428Y-97651771D02*
X163487285Y-97623200D01*
X163487285Y-97623200D02*
X163458714Y-97594628D01*
X164030143Y-97051771D02*
X164430143Y-97051771D01*
X164430143Y-97051771D02*
X164173000Y-97651771D01*
X164601572Y-97651771D02*
X164915858Y-97251771D01*
X164601572Y-97251771D02*
X164915858Y-97651771D01*
X165144429Y-97651771D02*
X165144429Y-97051771D01*
X165144429Y-97051771D02*
X165344429Y-97480342D01*
X165344429Y-97480342D02*
X165544429Y-97051771D01*
X165544429Y-97051771D02*
X165544429Y-97651771D01*
X165830143Y-97651771D02*
X165830143Y-97051771D01*
X165830143Y-97051771D02*
X166058714Y-97051771D01*
X166058714Y-97051771D02*
X166115857Y-97080342D01*
X166115857Y-97080342D02*
X166144428Y-97108914D01*
X166144428Y-97108914D02*
X166173000Y-97166057D01*
X166173000Y-97166057D02*
X166173000Y-97251771D01*
X166173000Y-97251771D02*
X166144428Y-97308914D01*
X166144428Y-97308914D02*
X166115857Y-97337485D01*
X166115857Y-97337485D02*
X166058714Y-97366057D01*
X166058714Y-97366057D02*
X165830143Y-97366057D01*
X167692771Y-99731999D02*
X167407057Y-99931999D01*
X167692771Y-100074856D02*
X167092771Y-100074856D01*
X167092771Y-100074856D02*
X167092771Y-99846285D01*
X167092771Y-99846285D02*
X167121342Y-99789142D01*
X167121342Y-99789142D02*
X167149914Y-99760571D01*
X167149914Y-99760571D02*
X167207057Y-99731999D01*
X167207057Y-99731999D02*
X167292771Y-99731999D01*
X167292771Y-99731999D02*
X167349914Y-99760571D01*
X167349914Y-99760571D02*
X167378485Y-99789142D01*
X167378485Y-99789142D02*
X167407057Y-99846285D01*
X167407057Y-99846285D02*
X167407057Y-100074856D01*
X167349914Y-99389142D02*
X167321342Y-99446285D01*
X167321342Y-99446285D02*
X167292771Y-99474856D01*
X167292771Y-99474856D02*
X167235628Y-99503428D01*
X167235628Y-99503428D02*
X167207057Y-99503428D01*
X167207057Y-99503428D02*
X167149914Y-99474856D01*
X167149914Y-99474856D02*
X167121342Y-99446285D01*
X167121342Y-99446285D02*
X167092771Y-99389142D01*
X167092771Y-99389142D02*
X167092771Y-99274856D01*
X167092771Y-99274856D02*
X167121342Y-99217714D01*
X167121342Y-99217714D02*
X167149914Y-99189142D01*
X167149914Y-99189142D02*
X167207057Y-99160571D01*
X167207057Y-99160571D02*
X167235628Y-99160571D01*
X167235628Y-99160571D02*
X167292771Y-99189142D01*
X167292771Y-99189142D02*
X167321342Y-99217714D01*
X167321342Y-99217714D02*
X167349914Y-99274856D01*
X167349914Y-99274856D02*
X167349914Y-99389142D01*
X167349914Y-99389142D02*
X167378485Y-99446285D01*
X167378485Y-99446285D02*
X167407057Y-99474856D01*
X167407057Y-99474856D02*
X167464200Y-99503428D01*
X167464200Y-99503428D02*
X167578485Y-99503428D01*
X167578485Y-99503428D02*
X167635628Y-99474856D01*
X167635628Y-99474856D02*
X167664200Y-99446285D01*
X167664200Y-99446285D02*
X167692771Y-99389142D01*
X167692771Y-99389142D02*
X167692771Y-99274856D01*
X167692771Y-99274856D02*
X167664200Y-99217714D01*
X167664200Y-99217714D02*
X167635628Y-99189142D01*
X167635628Y-99189142D02*
X167578485Y-99160571D01*
X167578485Y-99160571D02*
X167464200Y-99160571D01*
X167464200Y-99160571D02*
X167407057Y-99189142D01*
X167407057Y-99189142D02*
X167378485Y-99217714D01*
X167378485Y-99217714D02*
X167349914Y-99274856D01*
X170399914Y-100332000D02*
X170371342Y-100303428D01*
X170371342Y-100303428D02*
X170342771Y-100246286D01*
X170342771Y-100246286D02*
X170342771Y-100103428D01*
X170342771Y-100103428D02*
X170371342Y-100046286D01*
X170371342Y-100046286D02*
X170399914Y-100017714D01*
X170399914Y-100017714D02*
X170457057Y-99989143D01*
X170457057Y-99989143D02*
X170514200Y-99989143D01*
X170514200Y-99989143D02*
X170599914Y-100017714D01*
X170599914Y-100017714D02*
X170942771Y-100360571D01*
X170942771Y-100360571D02*
X170942771Y-99989143D01*
X170942771Y-99731999D02*
X170342771Y-99731999D01*
X170714200Y-99674857D02*
X170942771Y-99503428D01*
X170542771Y-99503428D02*
X170771342Y-99731999D01*
X170399914Y-99274857D02*
X170371342Y-99246285D01*
X170371342Y-99246285D02*
X170342771Y-99189143D01*
X170342771Y-99189143D02*
X170342771Y-99046285D01*
X170342771Y-99046285D02*
X170371342Y-98989143D01*
X170371342Y-98989143D02*
X170399914Y-98960571D01*
X170399914Y-98960571D02*
X170457057Y-98932000D01*
X170457057Y-98932000D02*
X170514200Y-98932000D01*
X170514200Y-98932000D02*
X170599914Y-98960571D01*
X170599914Y-98960571D02*
X170942771Y-99303428D01*
X170942771Y-99303428D02*
X170942771Y-98932000D01*
X159065857Y-132151771D02*
X158865857Y-131866057D01*
X158723000Y-132151771D02*
X158723000Y-131551771D01*
X158723000Y-131551771D02*
X158951571Y-131551771D01*
X158951571Y-131551771D02*
X159008714Y-131580342D01*
X159008714Y-131580342D02*
X159037285Y-131608914D01*
X159037285Y-131608914D02*
X159065857Y-131666057D01*
X159065857Y-131666057D02*
X159065857Y-131751771D01*
X159065857Y-131751771D02*
X159037285Y-131808914D01*
X159037285Y-131808914D02*
X159008714Y-131837485D01*
X159008714Y-131837485D02*
X158951571Y-131866057D01*
X158951571Y-131866057D02*
X158723000Y-131866057D01*
X159237285Y-131551771D02*
X159437285Y-132151771D01*
X159437285Y-132151771D02*
X159637285Y-131551771D01*
X160151571Y-132151771D02*
X159808714Y-132151771D01*
X159980143Y-132151771D02*
X159980143Y-131551771D01*
X159980143Y-131551771D02*
X159923000Y-131637485D01*
X159923000Y-131637485D02*
X159865857Y-131694628D01*
X159865857Y-131694628D02*
X159808714Y-131723200D01*
X156437286Y-122651771D02*
X156437286Y-122051771D01*
X156437286Y-122051771D02*
X156665857Y-122051771D01*
X156665857Y-122051771D02*
X156723000Y-122080342D01*
X156723000Y-122080342D02*
X156751571Y-122108914D01*
X156751571Y-122108914D02*
X156780143Y-122166057D01*
X156780143Y-122166057D02*
X156780143Y-122251771D01*
X156780143Y-122251771D02*
X156751571Y-122308914D01*
X156751571Y-122308914D02*
X156723000Y-122337485D01*
X156723000Y-122337485D02*
X156665857Y-122366057D01*
X156665857Y-122366057D02*
X156437286Y-122366057D01*
X157123000Y-122651771D02*
X157065857Y-122623200D01*
X157065857Y-122623200D02*
X157037286Y-122594628D01*
X157037286Y-122594628D02*
X157008714Y-122537485D01*
X157008714Y-122537485D02*
X157008714Y-122366057D01*
X157008714Y-122366057D02*
X157037286Y-122308914D01*
X157037286Y-122308914D02*
X157065857Y-122280342D01*
X157065857Y-122280342D02*
X157123000Y-122251771D01*
X157123000Y-122251771D02*
X157208714Y-122251771D01*
X157208714Y-122251771D02*
X157265857Y-122280342D01*
X157265857Y-122280342D02*
X157294429Y-122308914D01*
X157294429Y-122308914D02*
X157323000Y-122366057D01*
X157323000Y-122366057D02*
X157323000Y-122537485D01*
X157323000Y-122537485D02*
X157294429Y-122594628D01*
X157294429Y-122594628D02*
X157265857Y-122623200D01*
X157265857Y-122623200D02*
X157208714Y-122651771D01*
X157208714Y-122651771D02*
X157123000Y-122651771D01*
X157494428Y-122251771D02*
X157723000Y-122251771D01*
X157580143Y-122051771D02*
X157580143Y-122566057D01*
X157580143Y-122566057D02*
X157608714Y-122623200D01*
X157608714Y-122623200D02*
X157665857Y-122651771D01*
X157665857Y-122651771D02*
X157723000Y-122651771D01*
X158151571Y-122623200D02*
X158094428Y-122651771D01*
X158094428Y-122651771D02*
X157980143Y-122651771D01*
X157980143Y-122651771D02*
X157923000Y-122623200D01*
X157923000Y-122623200D02*
X157894428Y-122566057D01*
X157894428Y-122566057D02*
X157894428Y-122337485D01*
X157894428Y-122337485D02*
X157923000Y-122280342D01*
X157923000Y-122280342D02*
X157980143Y-122251771D01*
X157980143Y-122251771D02*
X158094428Y-122251771D01*
X158094428Y-122251771D02*
X158151571Y-122280342D01*
X158151571Y-122280342D02*
X158180143Y-122337485D01*
X158180143Y-122337485D02*
X158180143Y-122394628D01*
X158180143Y-122394628D02*
X157894428Y-122451771D01*
X158437286Y-122251771D02*
X158437286Y-122651771D01*
X158437286Y-122308914D02*
X158465857Y-122280342D01*
X158465857Y-122280342D02*
X158523000Y-122251771D01*
X158523000Y-122251771D02*
X158608714Y-122251771D01*
X158608714Y-122251771D02*
X158665857Y-122280342D01*
X158665857Y-122280342D02*
X158694429Y-122337485D01*
X158694429Y-122337485D02*
X158694429Y-122651771D01*
X158894428Y-122251771D02*
X159123000Y-122251771D01*
X158980143Y-122051771D02*
X158980143Y-122566057D01*
X158980143Y-122566057D02*
X159008714Y-122623200D01*
X159008714Y-122623200D02*
X159065857Y-122651771D01*
X159065857Y-122651771D02*
X159123000Y-122651771D01*
X159323000Y-122651771D02*
X159323000Y-122251771D01*
X159323000Y-122051771D02*
X159294428Y-122080342D01*
X159294428Y-122080342D02*
X159323000Y-122108914D01*
X159323000Y-122108914D02*
X159351571Y-122080342D01*
X159351571Y-122080342D02*
X159323000Y-122051771D01*
X159323000Y-122051771D02*
X159323000Y-122108914D01*
X159694428Y-122651771D02*
X159637285Y-122623200D01*
X159637285Y-122623200D02*
X159608714Y-122594628D01*
X159608714Y-122594628D02*
X159580142Y-122537485D01*
X159580142Y-122537485D02*
X159580142Y-122366057D01*
X159580142Y-122366057D02*
X159608714Y-122308914D01*
X159608714Y-122308914D02*
X159637285Y-122280342D01*
X159637285Y-122280342D02*
X159694428Y-122251771D01*
X159694428Y-122251771D02*
X159780142Y-122251771D01*
X159780142Y-122251771D02*
X159837285Y-122280342D01*
X159837285Y-122280342D02*
X159865857Y-122308914D01*
X159865857Y-122308914D02*
X159894428Y-122366057D01*
X159894428Y-122366057D02*
X159894428Y-122537485D01*
X159894428Y-122537485D02*
X159865857Y-122594628D01*
X159865857Y-122594628D02*
X159837285Y-122623200D01*
X159837285Y-122623200D02*
X159780142Y-122651771D01*
X159780142Y-122651771D02*
X159694428Y-122651771D01*
X160151571Y-122651771D02*
X160151571Y-122251771D01*
X160151571Y-122308914D02*
X160180142Y-122280342D01*
X160180142Y-122280342D02*
X160237285Y-122251771D01*
X160237285Y-122251771D02*
X160322999Y-122251771D01*
X160322999Y-122251771D02*
X160380142Y-122280342D01*
X160380142Y-122280342D02*
X160408714Y-122337485D01*
X160408714Y-122337485D02*
X160408714Y-122651771D01*
X160408714Y-122337485D02*
X160437285Y-122280342D01*
X160437285Y-122280342D02*
X160494428Y-122251771D01*
X160494428Y-122251771D02*
X160580142Y-122251771D01*
X160580142Y-122251771D02*
X160637285Y-122280342D01*
X160637285Y-122280342D02*
X160665856Y-122337485D01*
X160665856Y-122337485D02*
X160665856Y-122651771D01*
X161180142Y-122623200D02*
X161122999Y-122651771D01*
X161122999Y-122651771D02*
X161008714Y-122651771D01*
X161008714Y-122651771D02*
X160951571Y-122623200D01*
X160951571Y-122623200D02*
X160922999Y-122566057D01*
X160922999Y-122566057D02*
X160922999Y-122337485D01*
X160922999Y-122337485D02*
X160951571Y-122280342D01*
X160951571Y-122280342D02*
X161008714Y-122251771D01*
X161008714Y-122251771D02*
X161122999Y-122251771D01*
X161122999Y-122251771D02*
X161180142Y-122280342D01*
X161180142Y-122280342D02*
X161208714Y-122337485D01*
X161208714Y-122337485D02*
X161208714Y-122394628D01*
X161208714Y-122394628D02*
X160922999Y-122451771D01*
X161380142Y-122251771D02*
X161608714Y-122251771D01*
X161465857Y-122051771D02*
X161465857Y-122566057D01*
X161465857Y-122566057D02*
X161494428Y-122623200D01*
X161494428Y-122623200D02*
X161551571Y-122651771D01*
X161551571Y-122651771D02*
X161608714Y-122651771D01*
X162037285Y-122623200D02*
X161980142Y-122651771D01*
X161980142Y-122651771D02*
X161865857Y-122651771D01*
X161865857Y-122651771D02*
X161808714Y-122623200D01*
X161808714Y-122623200D02*
X161780142Y-122566057D01*
X161780142Y-122566057D02*
X161780142Y-122337485D01*
X161780142Y-122337485D02*
X161808714Y-122280342D01*
X161808714Y-122280342D02*
X161865857Y-122251771D01*
X161865857Y-122251771D02*
X161980142Y-122251771D01*
X161980142Y-122251771D02*
X162037285Y-122280342D01*
X162037285Y-122280342D02*
X162065857Y-122337485D01*
X162065857Y-122337485D02*
X162065857Y-122394628D01*
X162065857Y-122394628D02*
X161780142Y-122451771D01*
X162323000Y-122651771D02*
X162323000Y-122251771D01*
X162323000Y-122366057D02*
X162351571Y-122308914D01*
X162351571Y-122308914D02*
X162380143Y-122280342D01*
X162380143Y-122280342D02*
X162437285Y-122251771D01*
X162437285Y-122251771D02*
X162494428Y-122251771D01*
X147573000Y-119401771D02*
X147373000Y-119116057D01*
X147230143Y-119401771D02*
X147230143Y-118801771D01*
X147230143Y-118801771D02*
X147458714Y-118801771D01*
X147458714Y-118801771D02*
X147515857Y-118830342D01*
X147515857Y-118830342D02*
X147544428Y-118858914D01*
X147544428Y-118858914D02*
X147573000Y-118916057D01*
X147573000Y-118916057D02*
X147573000Y-119001771D01*
X147573000Y-119001771D02*
X147544428Y-119058914D01*
X147544428Y-119058914D02*
X147515857Y-119087485D01*
X147515857Y-119087485D02*
X147458714Y-119116057D01*
X147458714Y-119116057D02*
X147230143Y-119116057D01*
X148087286Y-118801771D02*
X147973000Y-118801771D01*
X147973000Y-118801771D02*
X147915857Y-118830342D01*
X147915857Y-118830342D02*
X147887286Y-118858914D01*
X147887286Y-118858914D02*
X147830143Y-118944628D01*
X147830143Y-118944628D02*
X147801571Y-119058914D01*
X147801571Y-119058914D02*
X147801571Y-119287485D01*
X147801571Y-119287485D02*
X147830143Y-119344628D01*
X147830143Y-119344628D02*
X147858714Y-119373200D01*
X147858714Y-119373200D02*
X147915857Y-119401771D01*
X147915857Y-119401771D02*
X148030143Y-119401771D01*
X148030143Y-119401771D02*
X148087286Y-119373200D01*
X148087286Y-119373200D02*
X148115857Y-119344628D01*
X148115857Y-119344628D02*
X148144428Y-119287485D01*
X148144428Y-119287485D02*
X148144428Y-119144628D01*
X148144428Y-119144628D02*
X148115857Y-119087485D01*
X148115857Y-119087485D02*
X148087286Y-119058914D01*
X148087286Y-119058914D02*
X148030143Y-119030342D01*
X148030143Y-119030342D02*
X147915857Y-119030342D01*
X147915857Y-119030342D02*
X147858714Y-119058914D01*
X147858714Y-119058914D02*
X147830143Y-119087485D01*
X147830143Y-119087485D02*
X147801571Y-119144628D01*
X149315856Y-119401771D02*
X148972999Y-119401771D01*
X149144428Y-119401771D02*
X149144428Y-118801771D01*
X149144428Y-118801771D02*
X149087285Y-118887485D01*
X149087285Y-118887485D02*
X149030142Y-118944628D01*
X149030142Y-118944628D02*
X148972999Y-118973200D01*
X149687285Y-118801771D02*
X149744428Y-118801771D01*
X149744428Y-118801771D02*
X149801571Y-118830342D01*
X149801571Y-118830342D02*
X149830143Y-118858914D01*
X149830143Y-118858914D02*
X149858714Y-118916057D01*
X149858714Y-118916057D02*
X149887285Y-119030342D01*
X149887285Y-119030342D02*
X149887285Y-119173200D01*
X149887285Y-119173200D02*
X149858714Y-119287485D01*
X149858714Y-119287485D02*
X149830143Y-119344628D01*
X149830143Y-119344628D02*
X149801571Y-119373200D01*
X149801571Y-119373200D02*
X149744428Y-119401771D01*
X149744428Y-119401771D02*
X149687285Y-119401771D01*
X149687285Y-119401771D02*
X149630143Y-119373200D01*
X149630143Y-119373200D02*
X149601571Y-119344628D01*
X149601571Y-119344628D02*
X149573000Y-119287485D01*
X149573000Y-119287485D02*
X149544428Y-119173200D01*
X149544428Y-119173200D02*
X149544428Y-119030342D01*
X149544428Y-119030342D02*
X149573000Y-118916057D01*
X149573000Y-118916057D02*
X149601571Y-118858914D01*
X149601571Y-118858914D02*
X149630143Y-118830342D01*
X149630143Y-118830342D02*
X149687285Y-118801771D01*
X150144429Y-119401771D02*
X150144429Y-118801771D01*
X150201572Y-119173200D02*
X150373000Y-119401771D01*
X150373000Y-119001771D02*
X150144429Y-119230342D01*
X148573000Y-114151771D02*
X148373000Y-113866057D01*
X148230143Y-114151771D02*
X148230143Y-113551771D01*
X148230143Y-113551771D02*
X148458714Y-113551771D01*
X148458714Y-113551771D02*
X148515857Y-113580342D01*
X148515857Y-113580342D02*
X148544428Y-113608914D01*
X148544428Y-113608914D02*
X148573000Y-113666057D01*
X148573000Y-113666057D02*
X148573000Y-113751771D01*
X148573000Y-113751771D02*
X148544428Y-113808914D01*
X148544428Y-113808914D02*
X148515857Y-113837485D01*
X148515857Y-113837485D02*
X148458714Y-113866057D01*
X148458714Y-113866057D02*
X148230143Y-113866057D01*
X148801571Y-113608914D02*
X148830143Y-113580342D01*
X148830143Y-113580342D02*
X148887286Y-113551771D01*
X148887286Y-113551771D02*
X149030143Y-113551771D01*
X149030143Y-113551771D02*
X149087286Y-113580342D01*
X149087286Y-113580342D02*
X149115857Y-113608914D01*
X149115857Y-113608914D02*
X149144428Y-113666057D01*
X149144428Y-113666057D02*
X149144428Y-113723200D01*
X149144428Y-113723200D02*
X149115857Y-113808914D01*
X149115857Y-113808914D02*
X148773000Y-114151771D01*
X148773000Y-114151771D02*
X149144428Y-114151771D01*
X148258714Y-116251771D02*
X148258714Y-116651771D01*
X148115856Y-116023200D02*
X147972999Y-116451771D01*
X147972999Y-116451771D02*
X148344428Y-116451771D01*
X148573000Y-116651771D02*
X148573000Y-116051771D01*
X148630143Y-116423200D02*
X148801571Y-116651771D01*
X148801571Y-116251771D02*
X148573000Y-116480342D01*
X149001571Y-116051771D02*
X149401571Y-116051771D01*
X149401571Y-116051771D02*
X149144428Y-116651771D01*
X141914200Y-115432000D02*
X141942771Y-115346286D01*
X141942771Y-115346286D02*
X141942771Y-115203428D01*
X141942771Y-115203428D02*
X141914200Y-115146286D01*
X141914200Y-115146286D02*
X141885628Y-115117714D01*
X141885628Y-115117714D02*
X141828485Y-115089143D01*
X141828485Y-115089143D02*
X141771342Y-115089143D01*
X141771342Y-115089143D02*
X141714200Y-115117714D01*
X141714200Y-115117714D02*
X141685628Y-115146286D01*
X141685628Y-115146286D02*
X141657057Y-115203428D01*
X141657057Y-115203428D02*
X141628485Y-115317714D01*
X141628485Y-115317714D02*
X141599914Y-115374857D01*
X141599914Y-115374857D02*
X141571342Y-115403428D01*
X141571342Y-115403428D02*
X141514200Y-115432000D01*
X141514200Y-115432000D02*
X141457057Y-115432000D01*
X141457057Y-115432000D02*
X141399914Y-115403428D01*
X141399914Y-115403428D02*
X141371342Y-115374857D01*
X141371342Y-115374857D02*
X141342771Y-115317714D01*
X141342771Y-115317714D02*
X141342771Y-115174857D01*
X141342771Y-115174857D02*
X141371342Y-115089143D01*
X141342771Y-114889142D02*
X141942771Y-114746285D01*
X141942771Y-114746285D02*
X141514200Y-114631999D01*
X141514200Y-114631999D02*
X141942771Y-114517714D01*
X141942771Y-114517714D02*
X141342771Y-114374857D01*
X141942771Y-113832000D02*
X141942771Y-114174857D01*
X141942771Y-114003428D02*
X141342771Y-114003428D01*
X141342771Y-114003428D02*
X141428485Y-114060571D01*
X141428485Y-114060571D02*
X141485628Y-114117714D01*
X141485628Y-114117714D02*
X141514200Y-114174857D01*
X149635628Y-107231999D02*
X149664200Y-107260571D01*
X149664200Y-107260571D02*
X149692771Y-107346285D01*
X149692771Y-107346285D02*
X149692771Y-107403428D01*
X149692771Y-107403428D02*
X149664200Y-107489142D01*
X149664200Y-107489142D02*
X149607057Y-107546285D01*
X149607057Y-107546285D02*
X149549914Y-107574856D01*
X149549914Y-107574856D02*
X149435628Y-107603428D01*
X149435628Y-107603428D02*
X149349914Y-107603428D01*
X149349914Y-107603428D02*
X149235628Y-107574856D01*
X149235628Y-107574856D02*
X149178485Y-107546285D01*
X149178485Y-107546285D02*
X149121342Y-107489142D01*
X149121342Y-107489142D02*
X149092771Y-107403428D01*
X149092771Y-107403428D02*
X149092771Y-107346285D01*
X149092771Y-107346285D02*
X149121342Y-107260571D01*
X149121342Y-107260571D02*
X149149914Y-107231999D01*
X149149914Y-107003428D02*
X149121342Y-106974856D01*
X149121342Y-106974856D02*
X149092771Y-106917714D01*
X149092771Y-106917714D02*
X149092771Y-106774856D01*
X149092771Y-106774856D02*
X149121342Y-106717714D01*
X149121342Y-106717714D02*
X149149914Y-106689142D01*
X149149914Y-106689142D02*
X149207057Y-106660571D01*
X149207057Y-106660571D02*
X149264200Y-106660571D01*
X149264200Y-106660571D02*
X149349914Y-106689142D01*
X149349914Y-106689142D02*
X149692771Y-107031999D01*
X149692771Y-107031999D02*
X149692771Y-106660571D01*
X149692771Y-105817714D02*
X149692771Y-106160571D01*
X149692771Y-105989142D02*
X149092771Y-105989142D01*
X149092771Y-105989142D02*
X149178485Y-106046285D01*
X149178485Y-106046285D02*
X149235628Y-106103428D01*
X149235628Y-106103428D02*
X149264200Y-106160571D01*
X149092771Y-105446285D02*
X149092771Y-105389142D01*
X149092771Y-105389142D02*
X149121342Y-105331999D01*
X149121342Y-105331999D02*
X149149914Y-105303428D01*
X149149914Y-105303428D02*
X149207057Y-105274856D01*
X149207057Y-105274856D02*
X149321342Y-105246285D01*
X149321342Y-105246285D02*
X149464200Y-105246285D01*
X149464200Y-105246285D02*
X149578485Y-105274856D01*
X149578485Y-105274856D02*
X149635628Y-105303428D01*
X149635628Y-105303428D02*
X149664200Y-105331999D01*
X149664200Y-105331999D02*
X149692771Y-105389142D01*
X149692771Y-105389142D02*
X149692771Y-105446285D01*
X149692771Y-105446285D02*
X149664200Y-105503428D01*
X149664200Y-105503428D02*
X149635628Y-105531999D01*
X149635628Y-105531999D02*
X149578485Y-105560570D01*
X149578485Y-105560570D02*
X149464200Y-105589142D01*
X149464200Y-105589142D02*
X149321342Y-105589142D01*
X149321342Y-105589142D02*
X149207057Y-105560570D01*
X149207057Y-105560570D02*
X149149914Y-105531999D01*
X149149914Y-105531999D02*
X149121342Y-105503428D01*
X149121342Y-105503428D02*
X149092771Y-105446285D01*
X149292771Y-104989141D02*
X149892771Y-104989141D01*
X149607057Y-104703427D02*
X149664200Y-104674856D01*
X149664200Y-104674856D02*
X149692771Y-104617713D01*
X149607057Y-104989141D02*
X149664200Y-104960570D01*
X149664200Y-104960570D02*
X149692771Y-104903427D01*
X149692771Y-104903427D02*
X149692771Y-104789141D01*
X149692771Y-104789141D02*
X149664200Y-104731999D01*
X149664200Y-104731999D02*
X149607057Y-104703427D01*
X149607057Y-104703427D02*
X149292771Y-104703427D01*
X149378485Y-104160570D02*
X149378485Y-104360570D01*
X149692771Y-104360570D02*
X149092771Y-104360570D01*
X149092771Y-104360570D02*
X149092771Y-104074856D01*
X160073000Y-114151771D02*
X159873000Y-113866057D01*
X159730143Y-114151771D02*
X159730143Y-113551771D01*
X159730143Y-113551771D02*
X159958714Y-113551771D01*
X159958714Y-113551771D02*
X160015857Y-113580342D01*
X160015857Y-113580342D02*
X160044428Y-113608914D01*
X160044428Y-113608914D02*
X160073000Y-113666057D01*
X160073000Y-113666057D02*
X160073000Y-113751771D01*
X160073000Y-113751771D02*
X160044428Y-113808914D01*
X160044428Y-113808914D02*
X160015857Y-113837485D01*
X160015857Y-113837485D02*
X159958714Y-113866057D01*
X159958714Y-113866057D02*
X159730143Y-113866057D01*
X160273000Y-113551771D02*
X160673000Y-113551771D01*
X160673000Y-113551771D02*
X160415857Y-114151771D01*
X160565856Y-119401771D02*
X160222999Y-119401771D01*
X160394428Y-119401771D02*
X160394428Y-118801771D01*
X160394428Y-118801771D02*
X160337285Y-118887485D01*
X160337285Y-118887485D02*
X160280142Y-118944628D01*
X160280142Y-118944628D02*
X160222999Y-118973200D01*
X160937285Y-118801771D02*
X160994428Y-118801771D01*
X160994428Y-118801771D02*
X161051571Y-118830342D01*
X161051571Y-118830342D02*
X161080143Y-118858914D01*
X161080143Y-118858914D02*
X161108714Y-118916057D01*
X161108714Y-118916057D02*
X161137285Y-119030342D01*
X161137285Y-119030342D02*
X161137285Y-119173200D01*
X161137285Y-119173200D02*
X161108714Y-119287485D01*
X161108714Y-119287485D02*
X161080143Y-119344628D01*
X161080143Y-119344628D02*
X161051571Y-119373200D01*
X161051571Y-119373200D02*
X160994428Y-119401771D01*
X160994428Y-119401771D02*
X160937285Y-119401771D01*
X160937285Y-119401771D02*
X160880143Y-119373200D01*
X160880143Y-119373200D02*
X160851571Y-119344628D01*
X160851571Y-119344628D02*
X160823000Y-119287485D01*
X160823000Y-119287485D02*
X160794428Y-119173200D01*
X160794428Y-119173200D02*
X160794428Y-119030342D01*
X160794428Y-119030342D02*
X160823000Y-118916057D01*
X160823000Y-118916057D02*
X160851571Y-118858914D01*
X160851571Y-118858914D02*
X160880143Y-118830342D01*
X160880143Y-118830342D02*
X160937285Y-118801771D01*
X161394429Y-119401771D02*
X161394429Y-118801771D01*
X161451572Y-119173200D02*
X161623000Y-119401771D01*
X161623000Y-119001771D02*
X161394429Y-119230342D01*
X151480143Y-93501771D02*
X151480143Y-92901771D01*
X151480143Y-92901771D02*
X151623000Y-92901771D01*
X151623000Y-92901771D02*
X151708714Y-92930342D01*
X151708714Y-92930342D02*
X151765857Y-92987485D01*
X151765857Y-92987485D02*
X151794428Y-93044628D01*
X151794428Y-93044628D02*
X151823000Y-93158914D01*
X151823000Y-93158914D02*
X151823000Y-93244628D01*
X151823000Y-93244628D02*
X151794428Y-93358914D01*
X151794428Y-93358914D02*
X151765857Y-93416057D01*
X151765857Y-93416057D02*
X151708714Y-93473200D01*
X151708714Y-93473200D02*
X151623000Y-93501771D01*
X151623000Y-93501771D02*
X151480143Y-93501771D01*
X152394428Y-93501771D02*
X152051571Y-93501771D01*
X152223000Y-93501771D02*
X152223000Y-92901771D01*
X152223000Y-92901771D02*
X152165857Y-92987485D01*
X152165857Y-92987485D02*
X152108714Y-93044628D01*
X152108714Y-93044628D02*
X152051571Y-93073200D01*
X151537286Y-96801771D02*
X151251572Y-96801771D01*
X151251572Y-96801771D02*
X151251572Y-96201771D01*
X151737286Y-96487485D02*
X151937286Y-96487485D01*
X152023000Y-96801771D02*
X151737286Y-96801771D01*
X151737286Y-96801771D02*
X151737286Y-96201771D01*
X151737286Y-96201771D02*
X152023000Y-96201771D01*
X152280143Y-96801771D02*
X152280143Y-96201771D01*
X152280143Y-96201771D02*
X152423000Y-96201771D01*
X152423000Y-96201771D02*
X152508714Y-96230342D01*
X152508714Y-96230342D02*
X152565857Y-96287485D01*
X152565857Y-96287485D02*
X152594428Y-96344628D01*
X152594428Y-96344628D02*
X152623000Y-96458914D01*
X152623000Y-96458914D02*
X152623000Y-96544628D01*
X152623000Y-96544628D02*
X152594428Y-96658914D01*
X152594428Y-96658914D02*
X152565857Y-96716057D01*
X152565857Y-96716057D02*
X152508714Y-96773200D01*
X152508714Y-96773200D02*
X152423000Y-96801771D01*
X152423000Y-96801771D02*
X152280143Y-96801771D01*
X149635628Y-102731999D02*
X149664200Y-102760571D01*
X149664200Y-102760571D02*
X149692771Y-102846285D01*
X149692771Y-102846285D02*
X149692771Y-102903428D01*
X149692771Y-102903428D02*
X149664200Y-102989142D01*
X149664200Y-102989142D02*
X149607057Y-103046285D01*
X149607057Y-103046285D02*
X149549914Y-103074856D01*
X149549914Y-103074856D02*
X149435628Y-103103428D01*
X149435628Y-103103428D02*
X149349914Y-103103428D01*
X149349914Y-103103428D02*
X149235628Y-103074856D01*
X149235628Y-103074856D02*
X149178485Y-103046285D01*
X149178485Y-103046285D02*
X149121342Y-102989142D01*
X149121342Y-102989142D02*
X149092771Y-102903428D01*
X149092771Y-102903428D02*
X149092771Y-102846285D01*
X149092771Y-102846285D02*
X149121342Y-102760571D01*
X149121342Y-102760571D02*
X149149914Y-102731999D01*
X149692771Y-102160571D02*
X149692771Y-102503428D01*
X149692771Y-102331999D02*
X149092771Y-102331999D01*
X149092771Y-102331999D02*
X149178485Y-102389142D01*
X149178485Y-102389142D02*
X149235628Y-102446285D01*
X149235628Y-102446285D02*
X149264200Y-102503428D01*
X149692771Y-101317714D02*
X149692771Y-101660571D01*
X149692771Y-101489142D02*
X149092771Y-101489142D01*
X149092771Y-101489142D02*
X149178485Y-101546285D01*
X149178485Y-101546285D02*
X149235628Y-101603428D01*
X149235628Y-101603428D02*
X149264200Y-101660571D01*
X149092771Y-100946285D02*
X149092771Y-100889142D01*
X149092771Y-100889142D02*
X149121342Y-100831999D01*
X149121342Y-100831999D02*
X149149914Y-100803428D01*
X149149914Y-100803428D02*
X149207057Y-100774856D01*
X149207057Y-100774856D02*
X149321342Y-100746285D01*
X149321342Y-100746285D02*
X149464200Y-100746285D01*
X149464200Y-100746285D02*
X149578485Y-100774856D01*
X149578485Y-100774856D02*
X149635628Y-100803428D01*
X149635628Y-100803428D02*
X149664200Y-100831999D01*
X149664200Y-100831999D02*
X149692771Y-100889142D01*
X149692771Y-100889142D02*
X149692771Y-100946285D01*
X149692771Y-100946285D02*
X149664200Y-101003428D01*
X149664200Y-101003428D02*
X149635628Y-101031999D01*
X149635628Y-101031999D02*
X149578485Y-101060570D01*
X149578485Y-101060570D02*
X149464200Y-101089142D01*
X149464200Y-101089142D02*
X149321342Y-101089142D01*
X149321342Y-101089142D02*
X149207057Y-101060570D01*
X149207057Y-101060570D02*
X149149914Y-101031999D01*
X149149914Y-101031999D02*
X149121342Y-101003428D01*
X149121342Y-101003428D02*
X149092771Y-100946285D01*
X149292771Y-100489141D02*
X149892771Y-100489141D01*
X149607057Y-100203427D02*
X149664200Y-100174856D01*
X149664200Y-100174856D02*
X149692771Y-100117713D01*
X149607057Y-100489141D02*
X149664200Y-100460570D01*
X149664200Y-100460570D02*
X149692771Y-100403427D01*
X149692771Y-100403427D02*
X149692771Y-100289141D01*
X149692771Y-100289141D02*
X149664200Y-100231999D01*
X149664200Y-100231999D02*
X149607057Y-100203427D01*
X149607057Y-100203427D02*
X149292771Y-100203427D01*
X149378485Y-99660570D02*
X149378485Y-99860570D01*
X149692771Y-99860570D02*
X149092771Y-99860570D01*
X149092771Y-99860570D02*
X149092771Y-99574856D01*
X171690271Y-103832000D02*
X172118842Y-103832000D01*
X172118842Y-103832000D02*
X172204557Y-103860571D01*
X172204557Y-103860571D02*
X172261700Y-103917714D01*
X172261700Y-103917714D02*
X172290271Y-104003428D01*
X172290271Y-104003428D02*
X172290271Y-104060571D01*
X172290271Y-103232000D02*
X172290271Y-103574857D01*
X172290271Y-103403428D02*
X171690271Y-103403428D01*
X171690271Y-103403428D02*
X171775985Y-103460571D01*
X171775985Y-103460571D02*
X171833128Y-103517714D01*
X171833128Y-103517714D02*
X171861700Y-103574857D01*
X180192771Y-106174855D02*
X179592771Y-106174855D01*
X179592771Y-106174855D02*
X179592771Y-105946284D01*
X179592771Y-105946284D02*
X179621342Y-105889141D01*
X179621342Y-105889141D02*
X179649914Y-105860570D01*
X179649914Y-105860570D02*
X179707057Y-105831998D01*
X179707057Y-105831998D02*
X179792771Y-105831998D01*
X179792771Y-105831998D02*
X179849914Y-105860570D01*
X179849914Y-105860570D02*
X179878485Y-105889141D01*
X179878485Y-105889141D02*
X179907057Y-105946284D01*
X179907057Y-105946284D02*
X179907057Y-106174855D01*
X179592771Y-105631998D02*
X180192771Y-105489141D01*
X180192771Y-105489141D02*
X179764200Y-105374855D01*
X179764200Y-105374855D02*
X180192771Y-105260570D01*
X180192771Y-105260570D02*
X179592771Y-105117713D01*
X180192771Y-104889141D02*
X179592771Y-104889141D01*
X179592771Y-104889141D02*
X180021342Y-104689141D01*
X180021342Y-104689141D02*
X179592771Y-104489141D01*
X179592771Y-104489141D02*
X180192771Y-104489141D01*
X179592771Y-103631999D02*
X179592771Y-103517713D01*
X179592771Y-103517713D02*
X179621342Y-103460570D01*
X179621342Y-103460570D02*
X179678485Y-103403427D01*
X179678485Y-103403427D02*
X179792771Y-103374856D01*
X179792771Y-103374856D02*
X179992771Y-103374856D01*
X179992771Y-103374856D02*
X180107057Y-103403427D01*
X180107057Y-103403427D02*
X180164200Y-103460570D01*
X180164200Y-103460570D02*
X180192771Y-103517713D01*
X180192771Y-103517713D02*
X180192771Y-103631999D01*
X180192771Y-103631999D02*
X180164200Y-103689142D01*
X180164200Y-103689142D02*
X180107057Y-103746284D01*
X180107057Y-103746284D02*
X179992771Y-103774856D01*
X179992771Y-103774856D02*
X179792771Y-103774856D01*
X179792771Y-103774856D02*
X179678485Y-103746284D01*
X179678485Y-103746284D02*
X179621342Y-103689142D01*
X179621342Y-103689142D02*
X179592771Y-103631999D01*
X179792771Y-102860571D02*
X180192771Y-102860571D01*
X179792771Y-103117713D02*
X180107057Y-103117713D01*
X180107057Y-103117713D02*
X180164200Y-103089142D01*
X180164200Y-103089142D02*
X180192771Y-103031999D01*
X180192771Y-103031999D02*
X180192771Y-102946285D01*
X180192771Y-102946285D02*
X180164200Y-102889142D01*
X180164200Y-102889142D02*
X180135628Y-102860571D01*
X179792771Y-102660571D02*
X179792771Y-102431999D01*
X179592771Y-102574856D02*
X180107057Y-102574856D01*
X180107057Y-102574856D02*
X180164200Y-102546285D01*
X180164200Y-102546285D02*
X180192771Y-102489142D01*
X180192771Y-102489142D02*
X180192771Y-102431999D01*
X179792771Y-102231999D02*
X180392771Y-102231999D01*
X179821342Y-102231999D02*
X179792771Y-102174857D01*
X179792771Y-102174857D02*
X179792771Y-102060571D01*
X179792771Y-102060571D02*
X179821342Y-102003428D01*
X179821342Y-102003428D02*
X179849914Y-101974857D01*
X179849914Y-101974857D02*
X179907057Y-101946285D01*
X179907057Y-101946285D02*
X180078485Y-101946285D01*
X180078485Y-101946285D02*
X180135628Y-101974857D01*
X180135628Y-101974857D02*
X180164200Y-102003428D01*
X180164200Y-102003428D02*
X180192771Y-102060571D01*
X180192771Y-102060571D02*
X180192771Y-102174857D01*
X180192771Y-102174857D02*
X180164200Y-102231999D01*
X179792771Y-101432000D02*
X180192771Y-101432000D01*
X179792771Y-101689142D02*
X180107057Y-101689142D01*
X180107057Y-101689142D02*
X180164200Y-101660571D01*
X180164200Y-101660571D02*
X180192771Y-101603428D01*
X180192771Y-101603428D02*
X180192771Y-101517714D01*
X180192771Y-101517714D02*
X180164200Y-101460571D01*
X180164200Y-101460571D02*
X180135628Y-101432000D01*
X179792771Y-101232000D02*
X179792771Y-101003428D01*
X179592771Y-101146285D02*
X180107057Y-101146285D01*
X180107057Y-101146285D02*
X180164200Y-101117714D01*
X180164200Y-101117714D02*
X180192771Y-101060571D01*
X180192771Y-101060571D02*
X180192771Y-101003428D01*
X171914200Y-129182000D02*
X171942771Y-129096286D01*
X171942771Y-129096286D02*
X171942771Y-128953428D01*
X171942771Y-128953428D02*
X171914200Y-128896286D01*
X171914200Y-128896286D02*
X171885628Y-128867714D01*
X171885628Y-128867714D02*
X171828485Y-128839143D01*
X171828485Y-128839143D02*
X171771342Y-128839143D01*
X171771342Y-128839143D02*
X171714200Y-128867714D01*
X171714200Y-128867714D02*
X171685628Y-128896286D01*
X171685628Y-128896286D02*
X171657057Y-128953428D01*
X171657057Y-128953428D02*
X171628485Y-129067714D01*
X171628485Y-129067714D02*
X171599914Y-129124857D01*
X171599914Y-129124857D02*
X171571342Y-129153428D01*
X171571342Y-129153428D02*
X171514200Y-129182000D01*
X171514200Y-129182000D02*
X171457057Y-129182000D01*
X171457057Y-129182000D02*
X171399914Y-129153428D01*
X171399914Y-129153428D02*
X171371342Y-129124857D01*
X171371342Y-129124857D02*
X171342771Y-129067714D01*
X171342771Y-129067714D02*
X171342771Y-128924857D01*
X171342771Y-128924857D02*
X171371342Y-128839143D01*
X171342771Y-128639142D02*
X171942771Y-128496285D01*
X171942771Y-128496285D02*
X171514200Y-128381999D01*
X171514200Y-128381999D02*
X171942771Y-128267714D01*
X171942771Y-128267714D02*
X171342771Y-128124857D01*
X171342771Y-127953428D02*
X171342771Y-127582000D01*
X171342771Y-127582000D02*
X171571342Y-127782000D01*
X171571342Y-127782000D02*
X171571342Y-127696285D01*
X171571342Y-127696285D02*
X171599914Y-127639143D01*
X171599914Y-127639143D02*
X171628485Y-127610571D01*
X171628485Y-127610571D02*
X171685628Y-127582000D01*
X171685628Y-127582000D02*
X171828485Y-127582000D01*
X171828485Y-127582000D02*
X171885628Y-127610571D01*
X171885628Y-127610571D02*
X171914200Y-127639143D01*
X171914200Y-127639143D02*
X171942771Y-127696285D01*
X171942771Y-127696285D02*
X171942771Y-127867714D01*
X171942771Y-127867714D02*
X171914200Y-127924857D01*
X171914200Y-127924857D02*
X171885628Y-127953428D01*
X180249914Y-121189142D02*
X180221342Y-121246285D01*
X180221342Y-121246285D02*
X180164200Y-121303428D01*
X180164200Y-121303428D02*
X180078485Y-121389142D01*
X180078485Y-121389142D02*
X180049914Y-121446285D01*
X180049914Y-121446285D02*
X180049914Y-121503428D01*
X180192771Y-121474857D02*
X180164200Y-121532000D01*
X180164200Y-121532000D02*
X180107057Y-121589142D01*
X180107057Y-121589142D02*
X179992771Y-121617714D01*
X179992771Y-121617714D02*
X179792771Y-121617714D01*
X179792771Y-121617714D02*
X179678485Y-121589142D01*
X179678485Y-121589142D02*
X179621342Y-121532000D01*
X179621342Y-121532000D02*
X179592771Y-121474857D01*
X179592771Y-121474857D02*
X179592771Y-121360571D01*
X179592771Y-121360571D02*
X179621342Y-121303428D01*
X179621342Y-121303428D02*
X179678485Y-121246285D01*
X179678485Y-121246285D02*
X179792771Y-121217714D01*
X179792771Y-121217714D02*
X179992771Y-121217714D01*
X179992771Y-121217714D02*
X180107057Y-121246285D01*
X180107057Y-121246285D02*
X180164200Y-121303428D01*
X180164200Y-121303428D02*
X180192771Y-121360571D01*
X180192771Y-121360571D02*
X180192771Y-121474857D01*
X180192771Y-120646286D02*
X180192771Y-120989143D01*
X180192771Y-120817714D02*
X179592771Y-120817714D01*
X179592771Y-120817714D02*
X179678485Y-120874857D01*
X179678485Y-120874857D02*
X179735628Y-120932000D01*
X179735628Y-120932000D02*
X179764200Y-120989143D01*
X180192771Y-114096285D02*
X179592771Y-114096285D01*
X180192771Y-113467714D02*
X179907057Y-113667714D01*
X180192771Y-113810571D02*
X179592771Y-113810571D01*
X179592771Y-113810571D02*
X179592771Y-113582000D01*
X179592771Y-113582000D02*
X179621342Y-113524857D01*
X179621342Y-113524857D02*
X179649914Y-113496286D01*
X179649914Y-113496286D02*
X179707057Y-113467714D01*
X179707057Y-113467714D02*
X179792771Y-113467714D01*
X179792771Y-113467714D02*
X179849914Y-113496286D01*
X179849914Y-113496286D02*
X179878485Y-113524857D01*
X179878485Y-113524857D02*
X179907057Y-113582000D01*
X179907057Y-113582000D02*
X179907057Y-113810571D01*
X180192771Y-112924857D02*
X180192771Y-113210571D01*
X180192771Y-113210571D02*
X179592771Y-113210571D01*
X179592771Y-112782000D02*
X179592771Y-112382000D01*
X179592771Y-112382000D02*
X180192771Y-112782000D01*
X180192771Y-112782000D02*
X180192771Y-112382000D01*
X179792771Y-111896286D02*
X180192771Y-111896286D01*
X179564200Y-112039143D02*
X179992771Y-112182000D01*
X179992771Y-112182000D02*
X179992771Y-111810571D01*
X179792771Y-111324857D02*
X180192771Y-111324857D01*
X179564200Y-111467714D02*
X179992771Y-111610571D01*
X179992771Y-111610571D02*
X179992771Y-111239142D01*
X180192771Y-111010570D02*
X179592771Y-111010570D01*
X179592771Y-111010570D02*
X180192771Y-110667713D01*
X180192771Y-110667713D02*
X179592771Y-110667713D01*
X138942771Y-105960571D02*
X138942771Y-106303428D01*
X138942771Y-106131999D02*
X138342771Y-106131999D01*
X138342771Y-106131999D02*
X138428485Y-106189142D01*
X138428485Y-106189142D02*
X138485628Y-106246285D01*
X138485628Y-106246285D02*
X138514200Y-106303428D01*
X138399914Y-105731999D02*
X138371342Y-105703427D01*
X138371342Y-105703427D02*
X138342771Y-105646285D01*
X138342771Y-105646285D02*
X138342771Y-105503427D01*
X138342771Y-105503427D02*
X138371342Y-105446285D01*
X138371342Y-105446285D02*
X138399914Y-105417713D01*
X138399914Y-105417713D02*
X138457057Y-105389142D01*
X138457057Y-105389142D02*
X138514200Y-105389142D01*
X138514200Y-105389142D02*
X138599914Y-105417713D01*
X138599914Y-105417713D02*
X138942771Y-105760570D01*
X138942771Y-105760570D02*
X138942771Y-105389142D01*
X138342771Y-105217713D02*
X138942771Y-105017713D01*
X138942771Y-105017713D02*
X138342771Y-104817713D01*
X138942771Y-104617712D02*
X138342771Y-104617712D01*
X138342771Y-104617712D02*
X138342771Y-104474855D01*
X138342771Y-104474855D02*
X138371342Y-104389141D01*
X138371342Y-104389141D02*
X138428485Y-104331998D01*
X138428485Y-104331998D02*
X138485628Y-104303427D01*
X138485628Y-104303427D02*
X138599914Y-104274855D01*
X138599914Y-104274855D02*
X138685628Y-104274855D01*
X138685628Y-104274855D02*
X138799914Y-104303427D01*
X138799914Y-104303427D02*
X138857057Y-104331998D01*
X138857057Y-104331998D02*
X138914200Y-104389141D01*
X138914200Y-104389141D02*
X138942771Y-104474855D01*
X138942771Y-104474855D02*
X138942771Y-104617712D01*
X138885628Y-103674855D02*
X138914200Y-103703427D01*
X138914200Y-103703427D02*
X138942771Y-103789141D01*
X138942771Y-103789141D02*
X138942771Y-103846284D01*
X138942771Y-103846284D02*
X138914200Y-103931998D01*
X138914200Y-103931998D02*
X138857057Y-103989141D01*
X138857057Y-103989141D02*
X138799914Y-104017712D01*
X138799914Y-104017712D02*
X138685628Y-104046284D01*
X138685628Y-104046284D02*
X138599914Y-104046284D01*
X138599914Y-104046284D02*
X138485628Y-104017712D01*
X138485628Y-104017712D02*
X138428485Y-103989141D01*
X138428485Y-103989141D02*
X138371342Y-103931998D01*
X138371342Y-103931998D02*
X138342771Y-103846284D01*
X138342771Y-103846284D02*
X138342771Y-103789141D01*
X138342771Y-103789141D02*
X138371342Y-103703427D01*
X138371342Y-103703427D02*
X138399914Y-103674855D01*
X138942771Y-102960569D02*
X138342771Y-102960569D01*
X138542771Y-102674855D02*
X138942771Y-102674855D01*
X138599914Y-102674855D02*
X138571342Y-102646284D01*
X138571342Y-102646284D02*
X138542771Y-102589141D01*
X138542771Y-102589141D02*
X138542771Y-102503427D01*
X138542771Y-102503427D02*
X138571342Y-102446284D01*
X138571342Y-102446284D02*
X138628485Y-102417713D01*
X138628485Y-102417713D02*
X138942771Y-102417713D01*
X138542771Y-102131998D02*
X139142771Y-102131998D01*
X138571342Y-102131998D02*
X138542771Y-102074856D01*
X138542771Y-102074856D02*
X138542771Y-101960570D01*
X138542771Y-101960570D02*
X138571342Y-101903427D01*
X138571342Y-101903427D02*
X138599914Y-101874856D01*
X138599914Y-101874856D02*
X138657057Y-101846284D01*
X138657057Y-101846284D02*
X138828485Y-101846284D01*
X138828485Y-101846284D02*
X138885628Y-101874856D01*
X138885628Y-101874856D02*
X138914200Y-101903427D01*
X138914200Y-101903427D02*
X138942771Y-101960570D01*
X138942771Y-101960570D02*
X138942771Y-102074856D01*
X138942771Y-102074856D02*
X138914200Y-102131998D01*
X138542771Y-101331999D02*
X138942771Y-101331999D01*
X138542771Y-101589141D02*
X138857057Y-101589141D01*
X138857057Y-101589141D02*
X138914200Y-101560570D01*
X138914200Y-101560570D02*
X138942771Y-101503427D01*
X138942771Y-101503427D02*
X138942771Y-101417713D01*
X138942771Y-101417713D02*
X138914200Y-101360570D01*
X138914200Y-101360570D02*
X138885628Y-101331999D01*
X138542771Y-101131999D02*
X138542771Y-100903427D01*
X138342771Y-101046284D02*
X138857057Y-101046284D01*
X138857057Y-101046284D02*
X138914200Y-101017713D01*
X138914200Y-101017713D02*
X138942771Y-100960570D01*
X138942771Y-100960570D02*
X138942771Y-100903427D01*
X167792771Y-104324856D02*
X167192771Y-104324856D01*
X167192771Y-104324856D02*
X167192771Y-104181999D01*
X167192771Y-104181999D02*
X167221342Y-104096285D01*
X167221342Y-104096285D02*
X167278485Y-104039142D01*
X167278485Y-104039142D02*
X167335628Y-104010571D01*
X167335628Y-104010571D02*
X167449914Y-103981999D01*
X167449914Y-103981999D02*
X167535628Y-103981999D01*
X167535628Y-103981999D02*
X167649914Y-104010571D01*
X167649914Y-104010571D02*
X167707057Y-104039142D01*
X167707057Y-104039142D02*
X167764200Y-104096285D01*
X167764200Y-104096285D02*
X167792771Y-104181999D01*
X167792771Y-104181999D02*
X167792771Y-104324856D01*
X167192771Y-103781999D02*
X167192771Y-103410571D01*
X167192771Y-103410571D02*
X167421342Y-103610571D01*
X167421342Y-103610571D02*
X167421342Y-103524856D01*
X167421342Y-103524856D02*
X167449914Y-103467714D01*
X167449914Y-103467714D02*
X167478485Y-103439142D01*
X167478485Y-103439142D02*
X167535628Y-103410571D01*
X167535628Y-103410571D02*
X167678485Y-103410571D01*
X167678485Y-103410571D02*
X167735628Y-103439142D01*
X167735628Y-103439142D02*
X167764200Y-103467714D01*
X167764200Y-103467714D02*
X167792771Y-103524856D01*
X167792771Y-103524856D02*
X167792771Y-103696285D01*
X167792771Y-103696285D02*
X167764200Y-103753428D01*
X167764200Y-103753428D02*
X167735628Y-103781999D01*
X171092771Y-104267713D02*
X171092771Y-104553427D01*
X171092771Y-104553427D02*
X170492771Y-104553427D01*
X170778485Y-104067713D02*
X170778485Y-103867713D01*
X171092771Y-103781999D02*
X171092771Y-104067713D01*
X171092771Y-104067713D02*
X170492771Y-104067713D01*
X170492771Y-104067713D02*
X170492771Y-103781999D01*
X171092771Y-103524856D02*
X170492771Y-103524856D01*
X170492771Y-103524856D02*
X170492771Y-103381999D01*
X170492771Y-103381999D02*
X170521342Y-103296285D01*
X170521342Y-103296285D02*
X170578485Y-103239142D01*
X170578485Y-103239142D02*
X170635628Y-103210571D01*
X170635628Y-103210571D02*
X170749914Y-103181999D01*
X170749914Y-103181999D02*
X170835628Y-103181999D01*
X170835628Y-103181999D02*
X170949914Y-103210571D01*
X170949914Y-103210571D02*
X171007057Y-103239142D01*
X171007057Y-103239142D02*
X171064200Y-103296285D01*
X171064200Y-103296285D02*
X171092771Y-103381999D01*
X171092771Y-103381999D02*
X171092771Y-103524856D01*
X151215857Y-111551771D02*
X151215857Y-112037485D01*
X151215857Y-112037485D02*
X151244428Y-112094628D01*
X151244428Y-112094628D02*
X151273000Y-112123200D01*
X151273000Y-112123200D02*
X151330142Y-112151771D01*
X151330142Y-112151771D02*
X151444428Y-112151771D01*
X151444428Y-112151771D02*
X151501571Y-112123200D01*
X151501571Y-112123200D02*
X151530142Y-112094628D01*
X151530142Y-112094628D02*
X151558714Y-112037485D01*
X151558714Y-112037485D02*
X151558714Y-111551771D01*
X151815856Y-111608914D02*
X151844428Y-111580342D01*
X151844428Y-111580342D02*
X151901571Y-111551771D01*
X151901571Y-111551771D02*
X152044428Y-111551771D01*
X152044428Y-111551771D02*
X152101571Y-111580342D01*
X152101571Y-111580342D02*
X152130142Y-111608914D01*
X152130142Y-111608914D02*
X152158713Y-111666057D01*
X152158713Y-111666057D02*
X152158713Y-111723200D01*
X152158713Y-111723200D02*
X152130142Y-111808914D01*
X152130142Y-111808914D02*
X151787285Y-112151771D01*
X151787285Y-112151771D02*
X152158713Y-112151771D01*
X152687284Y-111980342D02*
X152972999Y-111980342D01*
X152630141Y-112151771D02*
X152830141Y-111551771D01*
X152830141Y-111551771D02*
X153030141Y-112151771D01*
X153144427Y-111551771D02*
X153487285Y-111551771D01*
X153315856Y-112151771D02*
X153315856Y-111551771D01*
X153601570Y-111751771D02*
X153830142Y-111751771D01*
X153687285Y-111551771D02*
X153687285Y-112066057D01*
X153687285Y-112066057D02*
X153715856Y-112123200D01*
X153715856Y-112123200D02*
X153772999Y-112151771D01*
X153772999Y-112151771D02*
X153830142Y-112151771D01*
X154030142Y-112151771D02*
X154030142Y-111751771D01*
X154030142Y-111551771D02*
X154001570Y-111580342D01*
X154001570Y-111580342D02*
X154030142Y-111608914D01*
X154030142Y-111608914D02*
X154058713Y-111580342D01*
X154058713Y-111580342D02*
X154030142Y-111551771D01*
X154030142Y-111551771D02*
X154030142Y-111608914D01*
X154315856Y-111751771D02*
X154315856Y-112151771D01*
X154315856Y-111808914D02*
X154344427Y-111780342D01*
X154344427Y-111780342D02*
X154401570Y-111751771D01*
X154401570Y-111751771D02*
X154487284Y-111751771D01*
X154487284Y-111751771D02*
X154544427Y-111780342D01*
X154544427Y-111780342D02*
X154572999Y-111837485D01*
X154572999Y-111837485D02*
X154572999Y-112151771D01*
X154801570Y-111751771D02*
X154944427Y-112151771D01*
X155087284Y-111751771D02*
X154944427Y-112151771D01*
X154944427Y-112151771D02*
X154887284Y-112294628D01*
X154887284Y-112294628D02*
X154858713Y-112323200D01*
X154858713Y-112323200D02*
X154801570Y-112351771D01*
X155572999Y-111751771D02*
X155572999Y-112151771D01*
X155430141Y-111523200D02*
X155287284Y-111951771D01*
X155287284Y-111951771D02*
X155658713Y-111951771D01*
X156001570Y-111551771D02*
X156058713Y-111551771D01*
X156058713Y-111551771D02*
X156115856Y-111580342D01*
X156115856Y-111580342D02*
X156144428Y-111608914D01*
X156144428Y-111608914D02*
X156172999Y-111666057D01*
X156172999Y-111666057D02*
X156201570Y-111780342D01*
X156201570Y-111780342D02*
X156201570Y-111923200D01*
X156201570Y-111923200D02*
X156172999Y-112037485D01*
X156172999Y-112037485D02*
X156144428Y-112094628D01*
X156144428Y-112094628D02*
X156115856Y-112123200D01*
X156115856Y-112123200D02*
X156058713Y-112151771D01*
X156058713Y-112151771D02*
X156001570Y-112151771D01*
X156001570Y-112151771D02*
X155944428Y-112123200D01*
X155944428Y-112123200D02*
X155915856Y-112094628D01*
X155915856Y-112094628D02*
X155887285Y-112037485D01*
X155887285Y-112037485D02*
X155858713Y-111923200D01*
X155858713Y-111923200D02*
X155858713Y-111780342D01*
X155858713Y-111780342D02*
X155887285Y-111666057D01*
X155887285Y-111666057D02*
X155915856Y-111608914D01*
X155915856Y-111608914D02*
X155944428Y-111580342D01*
X155944428Y-111580342D02*
X156001570Y-111551771D01*
X156430142Y-111608914D02*
X156458714Y-111580342D01*
X156458714Y-111580342D02*
X156515857Y-111551771D01*
X156515857Y-111551771D02*
X156658714Y-111551771D01*
X156658714Y-111551771D02*
X156715857Y-111580342D01*
X156715857Y-111580342D02*
X156744428Y-111608914D01*
X156744428Y-111608914D02*
X156772999Y-111666057D01*
X156772999Y-111666057D02*
X156772999Y-111723200D01*
X156772999Y-111723200D02*
X156744428Y-111808914D01*
X156744428Y-111808914D02*
X156401571Y-112151771D01*
X156401571Y-112151771D02*
X156772999Y-112151771D01*
X157030143Y-111923200D02*
X157487286Y-111923200D01*
X157744428Y-112123200D02*
X157830143Y-112151771D01*
X157830143Y-112151771D02*
X157973000Y-112151771D01*
X157973000Y-112151771D02*
X158030143Y-112123200D01*
X158030143Y-112123200D02*
X158058714Y-112094628D01*
X158058714Y-112094628D02*
X158087285Y-112037485D01*
X158087285Y-112037485D02*
X158087285Y-111980342D01*
X158087285Y-111980342D02*
X158058714Y-111923200D01*
X158058714Y-111923200D02*
X158030143Y-111894628D01*
X158030143Y-111894628D02*
X157973000Y-111866057D01*
X157973000Y-111866057D02*
X157858714Y-111837485D01*
X157858714Y-111837485D02*
X157801571Y-111808914D01*
X157801571Y-111808914D02*
X157773000Y-111780342D01*
X157773000Y-111780342D02*
X157744428Y-111723200D01*
X157744428Y-111723200D02*
X157744428Y-111666057D01*
X157744428Y-111666057D02*
X157773000Y-111608914D01*
X157773000Y-111608914D02*
X157801571Y-111580342D01*
X157801571Y-111580342D02*
X157858714Y-111551771D01*
X157858714Y-111551771D02*
X158001571Y-111551771D01*
X158001571Y-111551771D02*
X158087285Y-111580342D01*
X158315857Y-112123200D02*
X158401572Y-112151771D01*
X158401572Y-112151771D02*
X158544429Y-112151771D01*
X158544429Y-112151771D02*
X158601572Y-112123200D01*
X158601572Y-112123200D02*
X158630143Y-112094628D01*
X158630143Y-112094628D02*
X158658714Y-112037485D01*
X158658714Y-112037485D02*
X158658714Y-111980342D01*
X158658714Y-111980342D02*
X158630143Y-111923200D01*
X158630143Y-111923200D02*
X158601572Y-111894628D01*
X158601572Y-111894628D02*
X158544429Y-111866057D01*
X158544429Y-111866057D02*
X158430143Y-111837485D01*
X158430143Y-111837485D02*
X158373000Y-111808914D01*
X158373000Y-111808914D02*
X158344429Y-111780342D01*
X158344429Y-111780342D02*
X158315857Y-111723200D01*
X158315857Y-111723200D02*
X158315857Y-111666057D01*
X158315857Y-111666057D02*
X158344429Y-111608914D01*
X158344429Y-111608914D02*
X158373000Y-111580342D01*
X158373000Y-111580342D02*
X158430143Y-111551771D01*
X158430143Y-111551771D02*
X158573000Y-111551771D01*
X158573000Y-111551771D02*
X158658714Y-111580342D01*
X147323000Y-111401771D02*
X147123000Y-111116057D01*
X146980143Y-111401771D02*
X146980143Y-110801771D01*
X146980143Y-110801771D02*
X147208714Y-110801771D01*
X147208714Y-110801771D02*
X147265857Y-110830342D01*
X147265857Y-110830342D02*
X147294428Y-110858914D01*
X147294428Y-110858914D02*
X147323000Y-110916057D01*
X147323000Y-110916057D02*
X147323000Y-111001771D01*
X147323000Y-111001771D02*
X147294428Y-111058914D01*
X147294428Y-111058914D02*
X147265857Y-111087485D01*
X147265857Y-111087485D02*
X147208714Y-111116057D01*
X147208714Y-111116057D02*
X146980143Y-111116057D01*
X147865857Y-110801771D02*
X147580143Y-110801771D01*
X147580143Y-110801771D02*
X147551571Y-111087485D01*
X147551571Y-111087485D02*
X147580143Y-111058914D01*
X147580143Y-111058914D02*
X147637286Y-111030342D01*
X147637286Y-111030342D02*
X147780143Y-111030342D01*
X147780143Y-111030342D02*
X147837286Y-111058914D01*
X147837286Y-111058914D02*
X147865857Y-111087485D01*
X147865857Y-111087485D02*
X147894428Y-111144628D01*
X147894428Y-111144628D02*
X147894428Y-111287485D01*
X147894428Y-111287485D02*
X147865857Y-111344628D01*
X147865857Y-111344628D02*
X147837286Y-111373200D01*
X147837286Y-111373200D02*
X147780143Y-111401771D01*
X147780143Y-111401771D02*
X147637286Y-111401771D01*
X147637286Y-111401771D02*
X147580143Y-111373200D01*
X147580143Y-111373200D02*
X147551571Y-111344628D01*
X149315856Y-111401771D02*
X148972999Y-111401771D01*
X149144428Y-111401771D02*
X149144428Y-110801771D01*
X149144428Y-110801771D02*
X149087285Y-110887485D01*
X149087285Y-110887485D02*
X149030142Y-110944628D01*
X149030142Y-110944628D02*
X148972999Y-110973200D01*
X149687285Y-110801771D02*
X149744428Y-110801771D01*
X149744428Y-110801771D02*
X149801571Y-110830342D01*
X149801571Y-110830342D02*
X149830143Y-110858914D01*
X149830143Y-110858914D02*
X149858714Y-110916057D01*
X149858714Y-110916057D02*
X149887285Y-111030342D01*
X149887285Y-111030342D02*
X149887285Y-111173200D01*
X149887285Y-111173200D02*
X149858714Y-111287485D01*
X149858714Y-111287485D02*
X149830143Y-111344628D01*
X149830143Y-111344628D02*
X149801571Y-111373200D01*
X149801571Y-111373200D02*
X149744428Y-111401771D01*
X149744428Y-111401771D02*
X149687285Y-111401771D01*
X149687285Y-111401771D02*
X149630143Y-111373200D01*
X149630143Y-111373200D02*
X149601571Y-111344628D01*
X149601571Y-111344628D02*
X149573000Y-111287485D01*
X149573000Y-111287485D02*
X149544428Y-111173200D01*
X149544428Y-111173200D02*
X149544428Y-111030342D01*
X149544428Y-111030342D02*
X149573000Y-110916057D01*
X149573000Y-110916057D02*
X149601571Y-110858914D01*
X149601571Y-110858914D02*
X149630143Y-110830342D01*
X149630143Y-110830342D02*
X149687285Y-110801771D01*
X150144429Y-111401771D02*
X150144429Y-110801771D01*
X150201572Y-111173200D02*
X150373000Y-111401771D01*
X150373000Y-111001771D02*
X150144429Y-111230342D01*
X156073000Y-93501771D02*
X155873000Y-93216057D01*
X155730143Y-93501771D02*
X155730143Y-92901771D01*
X155730143Y-92901771D02*
X155958714Y-92901771D01*
X155958714Y-92901771D02*
X156015857Y-92930342D01*
X156015857Y-92930342D02*
X156044428Y-92958914D01*
X156044428Y-92958914D02*
X156073000Y-93016057D01*
X156073000Y-93016057D02*
X156073000Y-93101771D01*
X156073000Y-93101771D02*
X156044428Y-93158914D01*
X156044428Y-93158914D02*
X156015857Y-93187485D01*
X156015857Y-93187485D02*
X155958714Y-93216057D01*
X155958714Y-93216057D02*
X155730143Y-93216057D01*
X156644428Y-93501771D02*
X156301571Y-93501771D01*
X156473000Y-93501771D02*
X156473000Y-92901771D01*
X156473000Y-92901771D02*
X156415857Y-92987485D01*
X156415857Y-92987485D02*
X156358714Y-93044628D01*
X156358714Y-93044628D02*
X156301571Y-93073200D01*
X155744428Y-96201771D02*
X155458714Y-96201771D01*
X155458714Y-96201771D02*
X155430142Y-96487485D01*
X155430142Y-96487485D02*
X155458714Y-96458914D01*
X155458714Y-96458914D02*
X155515857Y-96430342D01*
X155515857Y-96430342D02*
X155658714Y-96430342D01*
X155658714Y-96430342D02*
X155715857Y-96458914D01*
X155715857Y-96458914D02*
X155744428Y-96487485D01*
X155744428Y-96487485D02*
X155772999Y-96544628D01*
X155772999Y-96544628D02*
X155772999Y-96687485D01*
X155772999Y-96687485D02*
X155744428Y-96744628D01*
X155744428Y-96744628D02*
X155715857Y-96773200D01*
X155715857Y-96773200D02*
X155658714Y-96801771D01*
X155658714Y-96801771D02*
X155515857Y-96801771D01*
X155515857Y-96801771D02*
X155458714Y-96773200D01*
X155458714Y-96773200D02*
X155430142Y-96744628D01*
X156287286Y-96201771D02*
X156173000Y-96201771D01*
X156173000Y-96201771D02*
X156115857Y-96230342D01*
X156115857Y-96230342D02*
X156087286Y-96258914D01*
X156087286Y-96258914D02*
X156030143Y-96344628D01*
X156030143Y-96344628D02*
X156001571Y-96458914D01*
X156001571Y-96458914D02*
X156001571Y-96687485D01*
X156001571Y-96687485D02*
X156030143Y-96744628D01*
X156030143Y-96744628D02*
X156058714Y-96773200D01*
X156058714Y-96773200D02*
X156115857Y-96801771D01*
X156115857Y-96801771D02*
X156230143Y-96801771D01*
X156230143Y-96801771D02*
X156287286Y-96773200D01*
X156287286Y-96773200D02*
X156315857Y-96744628D01*
X156315857Y-96744628D02*
X156344428Y-96687485D01*
X156344428Y-96687485D02*
X156344428Y-96544628D01*
X156344428Y-96544628D02*
X156315857Y-96487485D01*
X156315857Y-96487485D02*
X156287286Y-96458914D01*
X156287286Y-96458914D02*
X156230143Y-96430342D01*
X156230143Y-96430342D02*
X156115857Y-96430342D01*
X156115857Y-96430342D02*
X156058714Y-96458914D01*
X156058714Y-96458914D02*
X156030143Y-96487485D01*
X156030143Y-96487485D02*
X156001571Y-96544628D01*
X156715857Y-96201771D02*
X156773000Y-96201771D01*
X156773000Y-96201771D02*
X156830143Y-96230342D01*
X156830143Y-96230342D02*
X156858715Y-96258914D01*
X156858715Y-96258914D02*
X156887286Y-96316057D01*
X156887286Y-96316057D02*
X156915857Y-96430342D01*
X156915857Y-96430342D02*
X156915857Y-96573200D01*
X156915857Y-96573200D02*
X156887286Y-96687485D01*
X156887286Y-96687485D02*
X156858715Y-96744628D01*
X156858715Y-96744628D02*
X156830143Y-96773200D01*
X156830143Y-96773200D02*
X156773000Y-96801771D01*
X156773000Y-96801771D02*
X156715857Y-96801771D01*
X156715857Y-96801771D02*
X156658715Y-96773200D01*
X156658715Y-96773200D02*
X156630143Y-96744628D01*
X156630143Y-96744628D02*
X156601572Y-96687485D01*
X156601572Y-96687485D02*
X156573000Y-96573200D01*
X156573000Y-96573200D02*
X156573000Y-96430342D01*
X156573000Y-96430342D02*
X156601572Y-96316057D01*
X156601572Y-96316057D02*
X156630143Y-96258914D01*
X156630143Y-96258914D02*
X156658715Y-96230342D01*
X156658715Y-96230342D02*
X156715857Y-96201771D01*
X158823000Y-119401771D02*
X158623000Y-119116057D01*
X158480143Y-119401771D02*
X158480143Y-118801771D01*
X158480143Y-118801771D02*
X158708714Y-118801771D01*
X158708714Y-118801771D02*
X158765857Y-118830342D01*
X158765857Y-118830342D02*
X158794428Y-118858914D01*
X158794428Y-118858914D02*
X158823000Y-118916057D01*
X158823000Y-118916057D02*
X158823000Y-119001771D01*
X158823000Y-119001771D02*
X158794428Y-119058914D01*
X158794428Y-119058914D02*
X158765857Y-119087485D01*
X158765857Y-119087485D02*
X158708714Y-119116057D01*
X158708714Y-119116057D02*
X158480143Y-119116057D01*
X159023000Y-118801771D02*
X159394428Y-118801771D01*
X159394428Y-118801771D02*
X159194428Y-119030342D01*
X159194428Y-119030342D02*
X159280143Y-119030342D01*
X159280143Y-119030342D02*
X159337286Y-119058914D01*
X159337286Y-119058914D02*
X159365857Y-119087485D01*
X159365857Y-119087485D02*
X159394428Y-119144628D01*
X159394428Y-119144628D02*
X159394428Y-119287485D01*
X159394428Y-119287485D02*
X159365857Y-119344628D01*
X159365857Y-119344628D02*
X159337286Y-119373200D01*
X159337286Y-119373200D02*
X159280143Y-119401771D01*
X159280143Y-119401771D02*
X159108714Y-119401771D01*
X159108714Y-119401771D02*
X159051571Y-119373200D01*
X159051571Y-119373200D02*
X159023000Y-119344628D01*
X159772999Y-116651771D02*
X159430142Y-116651771D01*
X159601571Y-116651771D02*
X159601571Y-116051771D01*
X159601571Y-116051771D02*
X159544428Y-116137485D01*
X159544428Y-116137485D02*
X159487285Y-116194628D01*
X159487285Y-116194628D02*
X159430142Y-116223200D01*
X160144428Y-116051771D02*
X160201571Y-116051771D01*
X160201571Y-116051771D02*
X160258714Y-116080342D01*
X160258714Y-116080342D02*
X160287286Y-116108914D01*
X160287286Y-116108914D02*
X160315857Y-116166057D01*
X160315857Y-116166057D02*
X160344428Y-116280342D01*
X160344428Y-116280342D02*
X160344428Y-116423200D01*
X160344428Y-116423200D02*
X160315857Y-116537485D01*
X160315857Y-116537485D02*
X160287286Y-116594628D01*
X160287286Y-116594628D02*
X160258714Y-116623200D01*
X160258714Y-116623200D02*
X160201571Y-116651771D01*
X160201571Y-116651771D02*
X160144428Y-116651771D01*
X160144428Y-116651771D02*
X160087286Y-116623200D01*
X160087286Y-116623200D02*
X160058714Y-116594628D01*
X160058714Y-116594628D02*
X160030143Y-116537485D01*
X160030143Y-116537485D02*
X160001571Y-116423200D01*
X160001571Y-116423200D02*
X160001571Y-116280342D01*
X160001571Y-116280342D02*
X160030143Y-116166057D01*
X160030143Y-116166057D02*
X160058714Y-116108914D01*
X160058714Y-116108914D02*
X160087286Y-116080342D01*
X160087286Y-116080342D02*
X160144428Y-116051771D01*
X160715857Y-116051771D02*
X160773000Y-116051771D01*
X160773000Y-116051771D02*
X160830143Y-116080342D01*
X160830143Y-116080342D02*
X160858715Y-116108914D01*
X160858715Y-116108914D02*
X160887286Y-116166057D01*
X160887286Y-116166057D02*
X160915857Y-116280342D01*
X160915857Y-116280342D02*
X160915857Y-116423200D01*
X160915857Y-116423200D02*
X160887286Y-116537485D01*
X160887286Y-116537485D02*
X160858715Y-116594628D01*
X160858715Y-116594628D02*
X160830143Y-116623200D01*
X160830143Y-116623200D02*
X160773000Y-116651771D01*
X160773000Y-116651771D02*
X160715857Y-116651771D01*
X160715857Y-116651771D02*
X160658715Y-116623200D01*
X160658715Y-116623200D02*
X160630143Y-116594628D01*
X160630143Y-116594628D02*
X160601572Y-116537485D01*
X160601572Y-116537485D02*
X160573000Y-116423200D01*
X160573000Y-116423200D02*
X160573000Y-116280342D01*
X160573000Y-116280342D02*
X160601572Y-116166057D01*
X160601572Y-116166057D02*
X160630143Y-116108914D01*
X160630143Y-116108914D02*
X160658715Y-116080342D01*
X160658715Y-116080342D02*
X160715857Y-116051771D01*
X158823000Y-111401771D02*
X158623000Y-111116057D01*
X158480143Y-111401771D02*
X158480143Y-110801771D01*
X158480143Y-110801771D02*
X158708714Y-110801771D01*
X158708714Y-110801771D02*
X158765857Y-110830342D01*
X158765857Y-110830342D02*
X158794428Y-110858914D01*
X158794428Y-110858914D02*
X158823000Y-110916057D01*
X158823000Y-110916057D02*
X158823000Y-111001771D01*
X158823000Y-111001771D02*
X158794428Y-111058914D01*
X158794428Y-111058914D02*
X158765857Y-111087485D01*
X158765857Y-111087485D02*
X158708714Y-111116057D01*
X158708714Y-111116057D02*
X158480143Y-111116057D01*
X159337286Y-111001771D02*
X159337286Y-111401771D01*
X159194428Y-110773200D02*
X159051571Y-111201771D01*
X159051571Y-111201771D02*
X159423000Y-111201771D01*
X161065856Y-111401771D02*
X160722999Y-111401771D01*
X160894428Y-111401771D02*
X160894428Y-110801771D01*
X160894428Y-110801771D02*
X160837285Y-110887485D01*
X160837285Y-110887485D02*
X160780142Y-110944628D01*
X160780142Y-110944628D02*
X160722999Y-110973200D01*
X161437285Y-110801771D02*
X161494428Y-110801771D01*
X161494428Y-110801771D02*
X161551571Y-110830342D01*
X161551571Y-110830342D02*
X161580143Y-110858914D01*
X161580143Y-110858914D02*
X161608714Y-110916057D01*
X161608714Y-110916057D02*
X161637285Y-111030342D01*
X161637285Y-111030342D02*
X161637285Y-111173200D01*
X161637285Y-111173200D02*
X161608714Y-111287485D01*
X161608714Y-111287485D02*
X161580143Y-111344628D01*
X161580143Y-111344628D02*
X161551571Y-111373200D01*
X161551571Y-111373200D02*
X161494428Y-111401771D01*
X161494428Y-111401771D02*
X161437285Y-111401771D01*
X161437285Y-111401771D02*
X161380143Y-111373200D01*
X161380143Y-111373200D02*
X161351571Y-111344628D01*
X161351571Y-111344628D02*
X161323000Y-111287485D01*
X161323000Y-111287485D02*
X161294428Y-111173200D01*
X161294428Y-111173200D02*
X161294428Y-111030342D01*
X161294428Y-111030342D02*
X161323000Y-110916057D01*
X161323000Y-110916057D02*
X161351571Y-110858914D01*
X161351571Y-110858914D02*
X161380143Y-110830342D01*
X161380143Y-110830342D02*
X161437285Y-110801771D01*
X161894429Y-111401771D02*
X161894429Y-110801771D01*
X161951572Y-111173200D02*
X162123000Y-111401771D01*
X162123000Y-111001771D02*
X161894429Y-111230342D01*
X152823000Y-120344628D02*
X152794428Y-120373200D01*
X152794428Y-120373200D02*
X152708714Y-120401771D01*
X152708714Y-120401771D02*
X152651571Y-120401771D01*
X152651571Y-120401771D02*
X152565857Y-120373200D01*
X152565857Y-120373200D02*
X152508714Y-120316057D01*
X152508714Y-120316057D02*
X152480143Y-120258914D01*
X152480143Y-120258914D02*
X152451571Y-120144628D01*
X152451571Y-120144628D02*
X152451571Y-120058914D01*
X152451571Y-120058914D02*
X152480143Y-119944628D01*
X152480143Y-119944628D02*
X152508714Y-119887485D01*
X152508714Y-119887485D02*
X152565857Y-119830342D01*
X152565857Y-119830342D02*
X152651571Y-119801771D01*
X152651571Y-119801771D02*
X152708714Y-119801771D01*
X152708714Y-119801771D02*
X152794428Y-119830342D01*
X152794428Y-119830342D02*
X152823000Y-119858914D01*
X153023000Y-119801771D02*
X153394428Y-119801771D01*
X153394428Y-119801771D02*
X153194428Y-120030342D01*
X153194428Y-120030342D02*
X153280143Y-120030342D01*
X153280143Y-120030342D02*
X153337286Y-120058914D01*
X153337286Y-120058914D02*
X153365857Y-120087485D01*
X153365857Y-120087485D02*
X153394428Y-120144628D01*
X153394428Y-120144628D02*
X153394428Y-120287485D01*
X153394428Y-120287485D02*
X153365857Y-120344628D01*
X153365857Y-120344628D02*
X153337286Y-120373200D01*
X153337286Y-120373200D02*
X153280143Y-120401771D01*
X153280143Y-120401771D02*
X153108714Y-120401771D01*
X153108714Y-120401771D02*
X153051571Y-120373200D01*
X153051571Y-120373200D02*
X153023000Y-120344628D01*
X154244427Y-120401771D02*
X153901570Y-120401771D01*
X154072999Y-120401771D02*
X154072999Y-119801771D01*
X154072999Y-119801771D02*
X154015856Y-119887485D01*
X154015856Y-119887485D02*
X153958713Y-119944628D01*
X153958713Y-119944628D02*
X153901570Y-119973200D01*
X154615856Y-119801771D02*
X154672999Y-119801771D01*
X154672999Y-119801771D02*
X154730142Y-119830342D01*
X154730142Y-119830342D02*
X154758714Y-119858914D01*
X154758714Y-119858914D02*
X154787285Y-119916057D01*
X154787285Y-119916057D02*
X154815856Y-120030342D01*
X154815856Y-120030342D02*
X154815856Y-120173200D01*
X154815856Y-120173200D02*
X154787285Y-120287485D01*
X154787285Y-120287485D02*
X154758714Y-120344628D01*
X154758714Y-120344628D02*
X154730142Y-120373200D01*
X154730142Y-120373200D02*
X154672999Y-120401771D01*
X154672999Y-120401771D02*
X154615856Y-120401771D01*
X154615856Y-120401771D02*
X154558714Y-120373200D01*
X154558714Y-120373200D02*
X154530142Y-120344628D01*
X154530142Y-120344628D02*
X154501571Y-120287485D01*
X154501571Y-120287485D02*
X154472999Y-120173200D01*
X154472999Y-120173200D02*
X154472999Y-120030342D01*
X154472999Y-120030342D02*
X154501571Y-119916057D01*
X154501571Y-119916057D02*
X154530142Y-119858914D01*
X154530142Y-119858914D02*
X154558714Y-119830342D01*
X154558714Y-119830342D02*
X154615856Y-119801771D01*
X155187285Y-119801771D02*
X155244428Y-119801771D01*
X155244428Y-119801771D02*
X155301571Y-119830342D01*
X155301571Y-119830342D02*
X155330143Y-119858914D01*
X155330143Y-119858914D02*
X155358714Y-119916057D01*
X155358714Y-119916057D02*
X155387285Y-120030342D01*
X155387285Y-120030342D02*
X155387285Y-120173200D01*
X155387285Y-120173200D02*
X155358714Y-120287485D01*
X155358714Y-120287485D02*
X155330143Y-120344628D01*
X155330143Y-120344628D02*
X155301571Y-120373200D01*
X155301571Y-120373200D02*
X155244428Y-120401771D01*
X155244428Y-120401771D02*
X155187285Y-120401771D01*
X155187285Y-120401771D02*
X155130143Y-120373200D01*
X155130143Y-120373200D02*
X155101571Y-120344628D01*
X155101571Y-120344628D02*
X155073000Y-120287485D01*
X155073000Y-120287485D02*
X155044428Y-120173200D01*
X155044428Y-120173200D02*
X155044428Y-120030342D01*
X155044428Y-120030342D02*
X155073000Y-119916057D01*
X155073000Y-119916057D02*
X155101571Y-119858914D01*
X155101571Y-119858914D02*
X155130143Y-119830342D01*
X155130143Y-119830342D02*
X155187285Y-119801771D01*
X155644429Y-120001771D02*
X155644429Y-120401771D01*
X155644429Y-120058914D02*
X155673000Y-120030342D01*
X155673000Y-120030342D02*
X155730143Y-120001771D01*
X155730143Y-120001771D02*
X155815857Y-120001771D01*
X155815857Y-120001771D02*
X155873000Y-120030342D01*
X155873000Y-120030342D02*
X155901572Y-120087485D01*
X155901572Y-120087485D02*
X155901572Y-120401771D01*
X156387286Y-120087485D02*
X156187286Y-120087485D01*
X156187286Y-120401771D02*
X156187286Y-119801771D01*
X156187286Y-119801771D02*
X156473000Y-119801771D01*
D13*
%TO.C,SW2*%
X150073000Y-131632000D02*
X149423000Y-131632000D01*
X150073000Y-125132000D02*
X150073000Y-131632000D01*
X149423000Y-125132000D02*
X150073000Y-125132000D01*
X145423000Y-131632000D02*
X147923000Y-131632000D01*
X145423000Y-125132000D02*
X147923000Y-125132000D01*
X143923000Y-125132000D02*
X143273000Y-125132000D01*
X143273000Y-131632000D02*
X143923000Y-131632000D01*
X143273000Y-125132000D02*
X143273000Y-131632000D01*
%TO.C,D2*%
X169908000Y-108682000D02*
X169908000Y-106397000D01*
X169908000Y-106397000D02*
X168438000Y-106397000D01*
X168438000Y-106397000D02*
X168438000Y-108682000D01*
%TO.C,J2*%
X146058000Y-122712000D02*
X146058000Y-120052000D01*
X140918000Y-122712000D02*
X146058000Y-122712000D01*
X140918000Y-122712000D02*
X140918000Y-120052000D01*
X140918000Y-120052000D02*
X146058000Y-120052000D01*
X139648000Y-122712000D02*
X138318000Y-122712000D01*
X138318000Y-122712000D02*
X138318000Y-121382000D01*
%TO.C,U1*%
X152648000Y-100282000D02*
X152308000Y-99812000D01*
X152988000Y-99812000D01*
X152648000Y-100282000D01*
G36*
X152648000Y-100282000D02*
G01*
X152308000Y-99812000D01*
X152988000Y-99812000D01*
X152648000Y-100282000D01*
G37*
X156838000Y-108832000D02*
X155473000Y-108832000D01*
X156838000Y-98432000D02*
X155473000Y-98432000D01*
X155473000Y-108832000D02*
X155473000Y-107022000D01*
X155473000Y-98432000D02*
X155473000Y-100242000D01*
%TO.C,R8*%
X169908000Y-99404936D02*
X169908000Y-99859064D01*
X168438000Y-99404936D02*
X168438000Y-99859064D01*
%TO.C,RV1*%
X154863000Y-133629500D02*
X153983000Y-133629500D01*
X154423000Y-133019500D01*
X154863000Y-133629500D01*
G36*
X154863000Y-133629500D02*
G01*
X153983000Y-133629500D01*
X154423000Y-133019500D01*
X154863000Y-133629500D01*
G37*
X166383000Y-129099500D02*
G75*
G02*
X162463000Y-129099500I-1960000J0D01*
G01*
X162463000Y-129099500D02*
G75*
G02*
X166383000Y-129099500I1960000J0D01*
G01*
X161383000Y-129099500D02*
G75*
G02*
X157463000Y-129099500I-1960000J0D01*
G01*
X157463000Y-129099500D02*
G75*
G02*
X161383000Y-129099500I1960000J0D01*
G01*
X156303000Y-128545500D02*
G75*
G02*
X156302861Y-129653972I-1880000J-554000D01*
G01*
X154977000Y-130979500D02*
G75*
G02*
X153868528Y-130979361I-554000J1879990D01*
G01*
X153869000Y-127219500D02*
G75*
G02*
X154977472Y-127219639I554000J-1880000D01*
G01*
X152543000Y-129653500D02*
G75*
G02*
X152543139Y-128545028I1879990J554000D01*
G01*
X167043000Y-124979500D02*
X167043000Y-133019500D01*
X166235000Y-129599500D02*
X167043000Y-129599500D01*
X166235000Y-128599500D02*
X167043000Y-128599500D01*
X165910000Y-127852500D02*
X165867000Y-127895500D01*
X165670000Y-127613500D02*
X165627000Y-127656500D01*
X164966000Y-130899500D02*
X167043000Y-130899500D01*
X163218000Y-130542500D02*
X163175000Y-130585500D01*
X162979000Y-130303500D02*
X162936000Y-130346500D01*
X161235000Y-129599500D02*
X162611000Y-129599500D01*
X161235000Y-128599500D02*
X162611000Y-128599500D01*
X160910000Y-127852500D02*
X160867000Y-127895500D01*
X160670000Y-127613500D02*
X160627000Y-127656500D01*
X159966000Y-130899500D02*
X163880000Y-130899500D01*
X158218000Y-130542500D02*
X158175000Y-130585500D01*
X157979000Y-130303500D02*
X157936000Y-130346500D01*
X156303000Y-130899500D02*
X158880000Y-130899500D01*
X156303000Y-129599500D02*
X157611000Y-129599500D01*
X156303000Y-128599500D02*
X157611000Y-128599500D01*
X154723000Y-133019500D02*
X167043000Y-133019500D01*
X151303000Y-133019500D02*
X154123000Y-133019500D01*
X151303000Y-130899500D02*
X152543000Y-130899500D01*
X151303000Y-129599500D02*
X152543000Y-129599500D01*
X151303000Y-128599500D02*
X152543000Y-128599500D01*
X151303000Y-124979500D02*
X167043000Y-124979500D01*
X151303000Y-124979500D02*
X151303000Y-133019500D01*
%TO.C,R6*%
X148445936Y-118367000D02*
X148900064Y-118367000D01*
X148445936Y-116897000D02*
X148900064Y-116897000D01*
%TO.C,R2*%
X148445936Y-115867000D02*
X148900064Y-115867000D01*
X148445936Y-114397000D02*
X148900064Y-114397000D01*
%TO.C,SW1*%
X145073000Y-117882000D02*
X144423000Y-117882000D01*
X145073000Y-111382000D02*
X145073000Y-117882000D01*
X144423000Y-111382000D02*
X145073000Y-111382000D01*
X140423000Y-117882000D02*
X142923000Y-117882000D01*
X140423000Y-111382000D02*
X142923000Y-111382000D01*
X138923000Y-111382000D02*
X138273000Y-111382000D01*
X138273000Y-117882000D02*
X138923000Y-117882000D01*
X138273000Y-111382000D02*
X138273000Y-117882000D01*
%TO.C,C2*%
X148658000Y-106143252D02*
X148658000Y-105620748D01*
X147188000Y-106143252D02*
X147188000Y-105620748D01*
%TO.C,R7*%
X159945936Y-118367000D02*
X160400064Y-118367000D01*
X159945936Y-116897000D02*
X160400064Y-116897000D01*
%TO.C,D1*%
X152923000Y-93922000D02*
X150238000Y-93922000D01*
X150238000Y-95842000D02*
X152923000Y-95842000D01*
X150238000Y-93922000D02*
X150238000Y-95842000D01*
%TO.C,C1*%
X148658000Y-101120748D02*
X148658000Y-101643252D01*
X147188000Y-101120748D02*
X147188000Y-101643252D01*
%TO.C,J1*%
X181670500Y-106322000D02*
X181060500Y-105882000D01*
X181670500Y-105442000D01*
X181670500Y-106322000D01*
G36*
X181670500Y-106322000D02*
G01*
X181060500Y-105882000D01*
X181670500Y-105442000D01*
X181670500Y-106322000D01*
G37*
X179100500Y-100882000D02*
G75*
G02*
X175180500Y-100882000I-1960000J0D01*
G01*
X175180500Y-100882000D02*
G75*
G02*
X179100500Y-100882000I1960000J0D01*
G01*
X179020500Y-105328000D02*
G75*
G02*
X179020361Y-106436472I-1879990J-554000D01*
G01*
X177694500Y-107762000D02*
G75*
G02*
X176586028Y-107761861I-554000J1879990D01*
G01*
X176586500Y-104002000D02*
G75*
G02*
X177694972Y-104002139I554000J-1880000D01*
G01*
X175260500Y-106436000D02*
G75*
G02*
X175260639Y-105327528I1880000J554000D01*
G01*
X181060500Y-109002000D02*
X181060500Y-106182000D01*
X181060500Y-105582000D02*
X181060500Y-98262000D01*
X178940500Y-109002000D02*
X178940500Y-107762000D01*
X178940500Y-104002000D02*
X178940500Y-101425000D01*
X178940500Y-100339000D02*
X178940500Y-98262000D01*
X178583500Y-102087000D02*
X178626500Y-102130000D01*
X178344500Y-102326000D02*
X178387500Y-102369000D01*
X177640500Y-109002000D02*
X177640500Y-107762000D01*
X177640500Y-104002000D02*
X177640500Y-102694000D01*
X177640500Y-99070000D02*
X177640500Y-98262000D01*
X176640500Y-109002000D02*
X176640500Y-107762000D01*
X176640500Y-104002000D02*
X176640500Y-102694000D01*
X176640500Y-99070000D02*
X176640500Y-98262000D01*
X175893500Y-99395000D02*
X175936500Y-99438000D01*
X175654500Y-99635000D02*
X175697500Y-99678000D01*
X173020500Y-109002000D02*
X181060500Y-109002000D01*
X173020500Y-109002000D02*
X173020500Y-98262000D01*
X173020500Y-98262000D02*
X181060500Y-98262000D01*
%TO.C,SW3*%
X175073000Y-131632000D02*
X175073000Y-125132000D01*
X175073000Y-125132000D02*
X174423000Y-125132000D01*
X174423000Y-131632000D02*
X175073000Y-131632000D01*
X172923000Y-131632000D02*
X170423000Y-131632000D01*
X172923000Y-125132000D02*
X170423000Y-125132000D01*
X168923000Y-131632000D02*
X168273000Y-131632000D01*
X168273000Y-131632000D02*
X168273000Y-125132000D01*
X168273000Y-125132000D02*
X168923000Y-125132000D01*
%TO.C,Q1*%
X165023000Y-112782000D02*
X164683000Y-112312000D01*
X165363000Y-112312000D01*
X165023000Y-112782000D01*
G36*
X165023000Y-112782000D02*
G01*
X164683000Y-112312000D01*
X165363000Y-112312000D01*
X165023000Y-112782000D01*
G37*
X169213000Y-121332000D02*
X167848000Y-121332000D01*
X169213000Y-110932000D02*
X167848000Y-110932000D01*
X167848000Y-121332000D02*
X167848000Y-119522000D01*
X167848000Y-110932000D02*
X167848000Y-112742000D01*
%TO.C,BT1*%
X137535500Y-101382000D02*
X136925500Y-101822000D01*
X136925500Y-100942000D01*
X137535500Y-101382000D01*
G36*
X137535500Y-101382000D02*
G01*
X136925500Y-101822000D01*
X136925500Y-100942000D01*
X137535500Y-101382000D01*
G37*
X143415500Y-106382000D02*
G75*
G02*
X139495500Y-106382000I-1960000J0D01*
G01*
X139495500Y-106382000D02*
G75*
G02*
X143415500Y-106382000I1960000J0D01*
G01*
X143335500Y-100828000D02*
G75*
G02*
X143335361Y-101936472I-1880000J-554000D01*
G01*
X142009500Y-103262000D02*
G75*
G02*
X140901028Y-103261861I-554000J1880000D01*
G01*
X140901500Y-99502000D02*
G75*
G02*
X142009972Y-99502139I554000J-1879990D01*
G01*
X139575500Y-101936000D02*
G75*
G02*
X139575639Y-100827528I1879990J554000D01*
G01*
X145575500Y-109002000D02*
X137535500Y-109002000D01*
X145575500Y-98262000D02*
X145575500Y-109002000D01*
X145575500Y-98262000D02*
X137535500Y-98262000D01*
X142941500Y-107629000D02*
X142898500Y-107586000D01*
X142702500Y-107869000D02*
X142659500Y-107826000D01*
X141955500Y-108194000D02*
X141955500Y-109002000D01*
X141955500Y-103262000D02*
X141955500Y-104570000D01*
X141955500Y-98262000D02*
X141955500Y-99502000D01*
X140955500Y-108194000D02*
X140955500Y-109002000D01*
X140955500Y-103262000D02*
X140955500Y-104570000D01*
X140955500Y-98262000D02*
X140955500Y-99502000D01*
X140251500Y-104938000D02*
X140208500Y-104895000D01*
X140012500Y-105177000D02*
X139969500Y-105134000D01*
X139655500Y-106925000D02*
X139655500Y-109002000D01*
X139655500Y-103262000D02*
X139655500Y-105839000D01*
X139655500Y-98262000D02*
X139655500Y-99502000D01*
X137535500Y-101682000D02*
X137535500Y-109002000D01*
X137535500Y-98262000D02*
X137535500Y-101082000D01*
%TO.C,D3*%
X170133000Y-105567000D02*
X170133000Y-102882000D01*
X168213000Y-105567000D02*
X170133000Y-105567000D01*
X168213000Y-102882000D02*
X168213000Y-105567000D01*
%TO.C,U2*%
X157363000Y-117927000D02*
X156883000Y-117927000D01*
X157123000Y-117597000D01*
X157363000Y-117927000D01*
G36*
X157363000Y-117927000D02*
G01*
X156883000Y-117927000D01*
X157123000Y-117597000D01*
X157363000Y-117927000D01*
G37*
X154423000Y-117692000D02*
X156373000Y-117692000D01*
X154423000Y-117692000D02*
X152473000Y-117692000D01*
X154423000Y-112572000D02*
X156373000Y-112572000D01*
X154423000Y-112572000D02*
X152473000Y-112572000D01*
%TO.C,R5*%
X148900064Y-113367000D02*
X148445936Y-113367000D01*
X148900064Y-111897000D02*
X148445936Y-111897000D01*
%TO.C,R1*%
X155945936Y-95617000D02*
X156400064Y-95617000D01*
X155945936Y-94147000D02*
X156400064Y-94147000D01*
%TO.C,R3*%
X160400064Y-115867000D02*
X159945936Y-115867000D01*
X160400064Y-114397000D02*
X159945936Y-114397000D01*
%TO.C,R4*%
X159945936Y-113367000D02*
X160400064Y-113367000D01*
X159945936Y-111897000D02*
X160400064Y-111897000D01*
%TO.C,C3*%
X154563580Y-119392000D02*
X154282420Y-119392000D01*
X154563580Y-118372000D02*
X154282420Y-118372000D01*
%TD*%
M02*
