%TF.GenerationSoftware,KiCad,Pcbnew,9.0.0*%
%TF.CreationDate,2025-03-26T19:28:16+01:00*%
%TF.ProjectId,attiny_pwm,61747469-6e79-45f7-9077-6d2e6b696361,1*%
%TF.SameCoordinates,Original*%
%TF.FileFunction,Copper,L2,Bot*%
%TF.FilePolarity,Positive*%
%FSLAX46Y46*%
G04 Gerber Fmt 4.6, Leading zero omitted, Abs format (unit mm)*
G04 Created by KiCad (PCBNEW 9.0.0) date 2025-03-26 19:28:16*
%MOMM*%
%LPD*%
G01*
G04 APERTURE LIST*
G04 Aperture macros list*
%AMRoundRect*
0 Rectangle with rounded corners*
0 $1 Rounding radius*
0 $2 $3 $4 $5 $6 $7 $8 $9 X,Y pos of 4 corners*
0 Add a 4 corners polygon primitive as box body*
4,1,4,$2,$3,$4,$5,$6,$7,$8,$9,$2,$3,0*
0 Add four circle primitives for the rounded corners*
1,1,$1+$1,$2,$3*
1,1,$1+$1,$4,$5*
1,1,$1+$1,$6,$7*
1,1,$1+$1,$8,$9*
0 Add four rect primitives between the rounded corners*
20,1,$1+$1,$2,$3,$4,$5,0*
20,1,$1+$1,$4,$5,$6,$7,0*
20,1,$1+$1,$6,$7,$8,$9,0*
20,1,$1+$1,$8,$9,$2,$3,0*%
G04 Aperture macros list end*
%TA.AperFunction,ComponentPad*%
%ADD10O,1.700000X1.700000*%
%TD*%
%TA.AperFunction,ComponentPad*%
%ADD11R,1.700000X1.700000*%
%TD*%
%TA.AperFunction,ComponentPad*%
%ADD12C,2.800000*%
%TD*%
%TA.AperFunction,ComponentPad*%
%ADD13RoundRect,0.250001X-1.149999X-1.149999X1.149999X-1.149999X1.149999X1.149999X-1.149999X1.149999X0*%
%TD*%
%TA.AperFunction,ComponentPad*%
%ADD14RoundRect,0.250001X1.149999X-1.149999X1.149999X1.149999X-1.149999X1.149999X-1.149999X-1.149999X0*%
%TD*%
%TA.AperFunction,ComponentPad*%
%ADD15RoundRect,0.250001X-1.149999X1.149999X-1.149999X-1.149999X1.149999X-1.149999X1.149999X1.149999X0*%
%TD*%
%TA.AperFunction,ViaPad*%
%ADD16C,0.800000*%
%TD*%
%TA.AperFunction,ViaPad*%
%ADD17C,0.600000*%
%TD*%
%TA.AperFunction,Conductor*%
%ADD18C,2.000000*%
%TD*%
%TA.AperFunction,Conductor*%
%ADD19C,0.200000*%
%TD*%
G04 APERTURE END LIST*
D10*
%TO.P,J2,3,Pin_3*%
%TO.N,5V*%
X144728000Y-121382000D03*
%TO.P,J2,2,Pin_2*%
%TO.N,Net-(J2-Pin_2)*%
X142188000Y-121382000D03*
D11*
%TO.P,J2,1,Pin_1*%
%TO.N,GND*%
X139648000Y-121382000D03*
%TD*%
D12*
%TO.P,RV1,3,3*%
%TO.N,GND*%
X164423000Y-129099500D03*
%TO.P,RV1,2,2*%
%TO.N,Net-(U2-PA6)*%
X159423000Y-129099500D03*
D13*
%TO.P,RV1,1,1*%
%TO.N,5V*%
X154423000Y-129099500D03*
%TD*%
D12*
%TO.P,J1,2,Pin_2*%
%TO.N,/Vin*%
X177140500Y-100882000D03*
D14*
%TO.P,J1,1,Pin_1*%
%TO.N,Net-(D2-A)*%
X177140500Y-105882000D03*
%TD*%
D12*
%TO.P,BT1,2,-*%
%TO.N,GND*%
X141455500Y-106382000D03*
D15*
%TO.P,BT1,1,+*%
%TO.N,/Vin*%
X141455500Y-101382000D03*
%TD*%
D16*
%TO.N,GND*%
X163173000Y-120132000D03*
X165673000Y-120132000D03*
X166923000Y-120132000D03*
X154423000Y-104382000D03*
X153423000Y-117632000D03*
D17*
X146423000Y-112632000D03*
D16*
X164423000Y-120132000D03*
X150923000Y-104382000D03*
D17*
%TO.N,Net-(U2-PA3)*%
X159173000Y-120632000D03*
X154423000Y-116632000D03*
%TD*%
D18*
%TO.N,/Vin*%
X141455500Y-101382000D02*
X176640500Y-101382000D01*
X176640500Y-101382000D02*
X177140500Y-100882000D01*
D19*
%TO.N,Net-(U2-PA3)*%
X154423000Y-116632000D02*
X155173000Y-116632000D01*
X155173000Y-116632000D02*
X159173000Y-120632000D01*
%TD*%
%TA.AperFunction,Conductor*%
%TO.N,GND*%
G36*
X178676736Y-92132726D02*
G01*
X178966796Y-92150271D01*
X178981659Y-92152076D01*
X179263798Y-92203780D01*
X179278335Y-92207363D01*
X179552172Y-92292695D01*
X179566163Y-92298000D01*
X179827743Y-92415727D01*
X179840989Y-92422680D01*
X180086465Y-92571075D01*
X180098776Y-92579573D01*
X180324573Y-92756473D01*
X180335781Y-92766403D01*
X180538596Y-92969218D01*
X180548526Y-92980426D01*
X180668481Y-93133538D01*
X180725422Y-93206217D01*
X180733926Y-93218537D01*
X180745532Y-93237735D01*
X180882316Y-93464004D01*
X180889275Y-93477263D01*
X181006997Y-93738831D01*
X181012306Y-93752832D01*
X181097635Y-94026663D01*
X181101219Y-94041201D01*
X181152923Y-94323340D01*
X181154728Y-94338205D01*
X181172274Y-94628263D01*
X181172500Y-94635750D01*
X181172500Y-130628249D01*
X181172274Y-130635736D01*
X181154728Y-130925794D01*
X181152923Y-130940659D01*
X181101219Y-131222798D01*
X181097635Y-131237336D01*
X181012306Y-131511167D01*
X181006997Y-131525168D01*
X180889275Y-131786736D01*
X180882316Y-131799995D01*
X180733928Y-132045459D01*
X180725422Y-132057782D01*
X180548526Y-132283573D01*
X180538596Y-132294781D01*
X180335781Y-132497596D01*
X180324573Y-132507526D01*
X180098782Y-132684422D01*
X180086459Y-132692928D01*
X179840995Y-132841316D01*
X179827736Y-132848275D01*
X179566168Y-132965997D01*
X179552167Y-132971306D01*
X179278336Y-133056635D01*
X179263798Y-133060219D01*
X178981659Y-133111923D01*
X178966794Y-133113728D01*
X178676736Y-133131274D01*
X178669249Y-133131500D01*
X139676751Y-133131500D01*
X139669264Y-133131274D01*
X139379205Y-133113728D01*
X139364340Y-133111923D01*
X139082201Y-133060219D01*
X139067663Y-133056635D01*
X138793832Y-132971306D01*
X138779831Y-132965997D01*
X138518263Y-132848275D01*
X138505004Y-132841316D01*
X138259540Y-132692928D01*
X138247217Y-132684422D01*
X138021426Y-132507526D01*
X138010218Y-132497596D01*
X137807403Y-132294781D01*
X137797473Y-132283573D01*
X137711575Y-132173932D01*
X137620573Y-132057776D01*
X137612075Y-132045465D01*
X137463680Y-131799989D01*
X137456727Y-131786743D01*
X137339000Y-131525163D01*
X137333693Y-131511167D01*
X137330057Y-131499500D01*
X137248363Y-131237335D01*
X137244780Y-131222798D01*
X137203951Y-131000000D01*
X137193075Y-130940657D01*
X137191271Y-130925794D01*
X137184125Y-130807662D01*
X137173726Y-130635736D01*
X137173500Y-130628249D01*
X137173500Y-130510711D01*
X137822500Y-130510711D01*
X137822500Y-130753288D01*
X137854161Y-130993785D01*
X137916947Y-131228104D01*
X137992016Y-131409336D01*
X138009776Y-131452212D01*
X138131064Y-131662289D01*
X138131066Y-131662292D01*
X138131067Y-131662293D01*
X138278733Y-131854736D01*
X138278739Y-131854743D01*
X138450256Y-132026260D01*
X138450263Y-132026266D01*
X138491336Y-132057782D01*
X138642711Y-132173936D01*
X138852788Y-132295224D01*
X139076900Y-132388054D01*
X139311211Y-132450838D01*
X139491586Y-132474584D01*
X139551711Y-132482500D01*
X139551712Y-132482500D01*
X139794289Y-132482500D01*
X139842388Y-132476167D01*
X140034789Y-132450838D01*
X140269100Y-132388054D01*
X140493212Y-132295224D01*
X140703289Y-132173936D01*
X140895738Y-132026265D01*
X141067265Y-131854738D01*
X141214936Y-131662289D01*
X141336224Y-131452212D01*
X141429054Y-131228100D01*
X141459880Y-131113055D01*
X163116548Y-131113055D01*
X163260247Y-131203347D01*
X163503104Y-131320301D01*
X163503118Y-131320307D01*
X163757536Y-131409332D01*
X163757548Y-131409336D01*
X164020348Y-131469318D01*
X164020366Y-131469321D01*
X164288212Y-131499499D01*
X164288216Y-131499500D01*
X164557784Y-131499500D01*
X164557787Y-131499499D01*
X164825633Y-131469321D01*
X164825651Y-131469318D01*
X165088451Y-131409336D01*
X165088463Y-131409332D01*
X165342881Y-131320307D01*
X165342895Y-131320301D01*
X165585752Y-131203347D01*
X165729449Y-131113055D01*
X165127105Y-130510711D01*
X176822500Y-130510711D01*
X176822500Y-130753288D01*
X176854161Y-130993785D01*
X176916947Y-131228104D01*
X176992016Y-131409336D01*
X177009776Y-131452212D01*
X177131064Y-131662289D01*
X177131066Y-131662292D01*
X177131067Y-131662293D01*
X177278733Y-131854736D01*
X177278739Y-131854743D01*
X177450256Y-132026260D01*
X177450263Y-132026266D01*
X177491336Y-132057782D01*
X177642711Y-132173936D01*
X177852788Y-132295224D01*
X178076900Y-132388054D01*
X178311211Y-132450838D01*
X178491586Y-132474584D01*
X178551711Y-132482500D01*
X178551712Y-132482500D01*
X178794289Y-132482500D01*
X178842388Y-132476167D01*
X179034789Y-132450838D01*
X179269100Y-132388054D01*
X179493212Y-132295224D01*
X179703289Y-132173936D01*
X179895738Y-132026265D01*
X180067265Y-131854738D01*
X180214936Y-131662289D01*
X180336224Y-131452212D01*
X180429054Y-131228100D01*
X180491838Y-130993789D01*
X180523500Y-130753288D01*
X180523500Y-130510712D01*
X180491838Y-130270211D01*
X180429054Y-130035900D01*
X180336224Y-129811788D01*
X180214936Y-129601711D01*
X180067265Y-129409262D01*
X180067260Y-129409256D01*
X179895743Y-129237739D01*
X179895736Y-129237733D01*
X179703293Y-129090067D01*
X179703292Y-129090066D01*
X179703289Y-129090064D01*
X179503880Y-128974935D01*
X179493214Y-128968777D01*
X179493205Y-128968773D01*
X179269104Y-128875947D01*
X179034785Y-128813161D01*
X178794289Y-128781500D01*
X178794288Y-128781500D01*
X178551712Y-128781500D01*
X178551711Y-128781500D01*
X178311214Y-128813161D01*
X178076895Y-128875947D01*
X177852794Y-128968773D01*
X177852785Y-128968777D01*
X177642706Y-129090067D01*
X177450263Y-129237733D01*
X177450256Y-129237739D01*
X177278739Y-129409256D01*
X177278733Y-129409263D01*
X177131067Y-129601706D01*
X177131064Y-129601710D01*
X177131064Y-129601711D01*
X177114817Y-129629851D01*
X177009777Y-129811785D01*
X177009773Y-129811794D01*
X176916947Y-130035895D01*
X176854161Y-130270214D01*
X176822500Y-130510711D01*
X165127105Y-130510711D01*
X164423000Y-129806606D01*
X163116549Y-131113055D01*
X163116548Y-131113055D01*
X141459880Y-131113055D01*
X141491838Y-130993789D01*
X141523500Y-130753288D01*
X141523500Y-130510712D01*
X141491838Y-130270211D01*
X141429054Y-130035900D01*
X141336224Y-129811788D01*
X141214936Y-129601711D01*
X141067265Y-129409262D01*
X141067260Y-129409256D01*
X140895743Y-129237739D01*
X140895736Y-129237733D01*
X140703293Y-129090067D01*
X140703292Y-129090066D01*
X140703289Y-129090064D01*
X140503880Y-128974935D01*
X140493214Y-128968777D01*
X140493205Y-128968773D01*
X140269104Y-128875947D01*
X140034785Y-128813161D01*
X139794289Y-128781500D01*
X139794288Y-128781500D01*
X139551712Y-128781500D01*
X139551711Y-128781500D01*
X139311214Y-128813161D01*
X139076895Y-128875947D01*
X138852794Y-128968773D01*
X138852785Y-128968777D01*
X138642706Y-129090067D01*
X138450263Y-129237733D01*
X138450256Y-129237739D01*
X138278739Y-129409256D01*
X138278733Y-129409263D01*
X138131067Y-129601706D01*
X138131064Y-129601710D01*
X138131064Y-129601711D01*
X138114817Y-129629851D01*
X138009777Y-129811785D01*
X138009773Y-129811794D01*
X137916947Y-130035895D01*
X137854161Y-130270214D01*
X137822500Y-130510711D01*
X137173500Y-130510711D01*
X137173500Y-127899484D01*
X152522500Y-127899484D01*
X152522500Y-130299515D01*
X152533000Y-130402295D01*
X152533001Y-130402297D01*
X152560593Y-130485565D01*
X152588186Y-130568835D01*
X152588187Y-130568837D01*
X152680286Y-130718151D01*
X152680289Y-130718155D01*
X152804344Y-130842210D01*
X152804348Y-130842213D01*
X152953662Y-130934312D01*
X152953664Y-130934313D01*
X152953666Y-130934314D01*
X153120203Y-130989499D01*
X153222992Y-131000000D01*
X153222997Y-131000000D01*
X155623003Y-131000000D01*
X155623008Y-131000000D01*
X155725797Y-130989499D01*
X155892334Y-130934314D01*
X156041655Y-130842211D01*
X156165711Y-130718155D01*
X156257814Y-130568834D01*
X156312999Y-130402297D01*
X156323500Y-130299508D01*
X156323500Y-128974941D01*
X157522500Y-128974941D01*
X157522500Y-129224058D01*
X157522501Y-129224075D01*
X157546881Y-129409263D01*
X157555018Y-129471065D01*
X157566483Y-129513851D01*
X157619498Y-129711707D01*
X157714830Y-129941861D01*
X157714837Y-129941876D01*
X157839400Y-130157626D01*
X157991060Y-130355274D01*
X157991066Y-130355281D01*
X158167218Y-130531433D01*
X158167225Y-130531439D01*
X158364873Y-130683099D01*
X158580623Y-130807662D01*
X158580638Y-130807669D01*
X158679825Y-130848753D01*
X158810793Y-130903002D01*
X159051435Y-130967482D01*
X159298435Y-131000000D01*
X159298442Y-131000000D01*
X159547558Y-131000000D01*
X159547565Y-131000000D01*
X159794565Y-130967482D01*
X160035207Y-130903002D01*
X160265373Y-130807664D01*
X160481127Y-130683099D01*
X160678776Y-130531438D01*
X160854938Y-130355276D01*
X161006599Y-130157627D01*
X161131164Y-129941873D01*
X161226502Y-129711707D01*
X161290982Y-129471065D01*
X161323500Y-129224065D01*
X161323500Y-128974935D01*
X161322154Y-128964712D01*
X162023000Y-128964712D01*
X162023000Y-129234287D01*
X162053178Y-129502133D01*
X162053181Y-129502151D01*
X162113163Y-129764951D01*
X162113167Y-129764963D01*
X162202192Y-130019381D01*
X162202198Y-130019395D01*
X162319152Y-130262252D01*
X162409443Y-130405950D01*
X163715893Y-129099500D01*
X163715893Y-129099499D01*
X163651875Y-129035481D01*
X163773000Y-129035481D01*
X163773000Y-129163519D01*
X163797979Y-129289098D01*
X163846978Y-129407390D01*
X163918112Y-129513851D01*
X164008649Y-129604388D01*
X164115110Y-129675522D01*
X164233402Y-129724521D01*
X164358981Y-129749500D01*
X164487019Y-129749500D01*
X164612598Y-129724521D01*
X164730890Y-129675522D01*
X164837351Y-129604388D01*
X164927888Y-129513851D01*
X164999022Y-129407390D01*
X165048021Y-129289098D01*
X165073000Y-129163519D01*
X165073000Y-129099499D01*
X165130106Y-129099499D01*
X165130106Y-129099500D01*
X166436555Y-130405949D01*
X166526846Y-130262254D01*
X166643801Y-130019395D01*
X166643807Y-130019381D01*
X166732832Y-129764963D01*
X166732836Y-129764951D01*
X166792818Y-129502151D01*
X166792821Y-129502133D01*
X166822999Y-129234287D01*
X166823000Y-129234283D01*
X166823000Y-128964716D01*
X166822999Y-128964712D01*
X166792821Y-128696866D01*
X166792818Y-128696848D01*
X166732836Y-128434048D01*
X166732832Y-128434036D01*
X166643807Y-128179618D01*
X166643801Y-128179604D01*
X166526847Y-127936747D01*
X166436555Y-127793049D01*
X165130106Y-129099499D01*
X165073000Y-129099499D01*
X165073000Y-129035481D01*
X165048021Y-128909902D01*
X164999022Y-128791610D01*
X164927888Y-128685149D01*
X164837351Y-128594612D01*
X164730890Y-128523478D01*
X164612598Y-128474479D01*
X164487019Y-128449500D01*
X164358981Y-128449500D01*
X164233402Y-128474479D01*
X164115110Y-128523478D01*
X164008649Y-128594612D01*
X163918112Y-128685149D01*
X163846978Y-128791610D01*
X163797979Y-128909902D01*
X163773000Y-129035481D01*
X163651875Y-129035481D01*
X162409442Y-127793049D01*
X162319155Y-127936742D01*
X162319154Y-127936743D01*
X162202198Y-128179604D01*
X162202192Y-128179618D01*
X162113167Y-128434036D01*
X162113163Y-128434048D01*
X162053181Y-128696848D01*
X162053178Y-128696866D01*
X162023000Y-128964712D01*
X161322154Y-128964712D01*
X161290982Y-128727935D01*
X161226502Y-128487293D01*
X161131164Y-128257127D01*
X161086414Y-128179618D01*
X161006599Y-128041373D01*
X160854939Y-127843725D01*
X160854933Y-127843718D01*
X160678781Y-127667566D01*
X160678774Y-127667560D01*
X160481126Y-127515900D01*
X160265376Y-127391337D01*
X160265361Y-127391330D01*
X160035207Y-127295998D01*
X159794565Y-127231518D01*
X159794564Y-127231517D01*
X159794561Y-127231517D01*
X159547575Y-127199001D01*
X159547570Y-127199000D01*
X159547565Y-127199000D01*
X159298435Y-127199000D01*
X159298429Y-127199000D01*
X159298424Y-127199001D01*
X159051438Y-127231517D01*
X158810792Y-127295998D01*
X158580638Y-127391330D01*
X158580623Y-127391337D01*
X158364873Y-127515900D01*
X158167225Y-127667560D01*
X158167218Y-127667566D01*
X157991066Y-127843718D01*
X157991060Y-127843725D01*
X157839400Y-128041373D01*
X157714837Y-128257123D01*
X157714830Y-128257138D01*
X157619498Y-128487292D01*
X157555017Y-128727938D01*
X157522501Y-128974924D01*
X157522500Y-128974941D01*
X156323500Y-128974941D01*
X156323500Y-127899492D01*
X156312999Y-127796703D01*
X156257814Y-127630166D01*
X156187333Y-127515900D01*
X156165713Y-127480848D01*
X156165710Y-127480844D01*
X156041655Y-127356789D01*
X156041651Y-127356786D01*
X155892337Y-127264687D01*
X155892335Y-127264686D01*
X155792237Y-127231517D01*
X155725797Y-127209501D01*
X155725795Y-127209500D01*
X155623015Y-127199000D01*
X155623008Y-127199000D01*
X153222992Y-127199000D01*
X153222984Y-127199000D01*
X153120204Y-127209500D01*
X153120203Y-127209501D01*
X152953664Y-127264686D01*
X152953662Y-127264687D01*
X152804348Y-127356786D01*
X152804344Y-127356789D01*
X152680289Y-127480844D01*
X152680286Y-127480848D01*
X152588187Y-127630162D01*
X152588186Y-127630164D01*
X152533001Y-127796703D01*
X152533000Y-127796704D01*
X152522500Y-127899484D01*
X137173500Y-127899484D01*
X137173500Y-127085942D01*
X163116549Y-127085942D01*
X164422999Y-128392393D01*
X165729450Y-127085943D01*
X165585752Y-126995652D01*
X165342895Y-126878698D01*
X165342881Y-126878692D01*
X165088463Y-126789667D01*
X165088451Y-126789663D01*
X164825651Y-126729681D01*
X164825633Y-126729678D01*
X164557787Y-126699500D01*
X164288212Y-126699500D01*
X164020366Y-126729678D01*
X164020348Y-126729681D01*
X163757548Y-126789663D01*
X163757536Y-126789667D01*
X163503118Y-126878692D01*
X163503104Y-126878698D01*
X163260243Y-126995654D01*
X163260242Y-126995655D01*
X163116549Y-127085942D01*
X137173500Y-127085942D01*
X137173500Y-122290000D01*
X137798000Y-122290000D01*
X137808608Y-122409325D01*
X137808609Y-122409328D01*
X137864557Y-122604861D01*
X137958721Y-122785129D01*
X138087246Y-122942753D01*
X138244870Y-123071278D01*
X138425138Y-123165442D01*
X138620671Y-123221390D01*
X138620674Y-123221391D01*
X138739999Y-123231999D01*
X138740002Y-123232000D01*
X139148000Y-123232000D01*
X139148000Y-121882000D01*
X137798000Y-121882000D01*
X137798000Y-122290000D01*
X137173500Y-122290000D01*
X137173500Y-121316174D01*
X139148000Y-121316174D01*
X139148000Y-121447826D01*
X139182075Y-121574993D01*
X139247901Y-121689007D01*
X139340993Y-121782099D01*
X139455007Y-121847925D01*
X139582174Y-121882000D01*
X139713826Y-121882000D01*
X139840993Y-121847925D01*
X139955007Y-121782099D01*
X140048099Y-121689007D01*
X140113925Y-121574993D01*
X140148000Y-121447826D01*
X140148000Y-123232000D01*
X140555998Y-123232000D01*
X140556000Y-123231999D01*
X140675325Y-123221391D01*
X140675328Y-123221390D01*
X140870861Y-123165442D01*
X141051129Y-123071278D01*
X141208753Y-122942753D01*
X141337280Y-122785128D01*
X141412830Y-122640492D01*
X141461316Y-122590184D01*
X141529303Y-122574076D01*
X141579031Y-122587416D01*
X141669588Y-122633557D01*
X141871757Y-122699246D01*
X142081713Y-122732500D01*
X142081714Y-122732500D01*
X142294286Y-122732500D01*
X142294287Y-122732500D01*
X142504243Y-122699246D01*
X142706412Y-122633557D01*
X142895816Y-122537051D01*
X142917789Y-122521086D01*
X143067786Y-122412109D01*
X143067788Y-122412106D01*
X143067792Y-122412104D01*
X143218104Y-122261792D01*
X143218106Y-122261788D01*
X143218109Y-122261786D01*
X143343048Y-122089820D01*
X143343047Y-122089820D01*
X143343051Y-122089816D01*
X143347514Y-122081054D01*
X143395488Y-122030259D01*
X143463308Y-122013463D01*
X143529444Y-122035999D01*
X143568486Y-122081056D01*
X143572951Y-122089820D01*
X143697890Y-122261786D01*
X143848213Y-122412109D01*
X144020179Y-122537048D01*
X144020181Y-122537049D01*
X144020184Y-122537051D01*
X144209588Y-122633557D01*
X144411757Y-122699246D01*
X144621713Y-122732500D01*
X144621714Y-122732500D01*
X144834286Y-122732500D01*
X144834287Y-122732500D01*
X145044243Y-122699246D01*
X145246412Y-122633557D01*
X145435816Y-122537051D01*
X145457789Y-122521086D01*
X145607786Y-122412109D01*
X145607788Y-122412106D01*
X145607792Y-122412104D01*
X145758104Y-122261792D01*
X145758106Y-122261788D01*
X145758109Y-122261786D01*
X145883048Y-122089820D01*
X145883047Y-122089820D01*
X145883051Y-122089816D01*
X145979557Y-121900412D01*
X146045246Y-121698243D01*
X146078500Y-121488287D01*
X146078500Y-121275713D01*
X146045246Y-121065757D01*
X145979557Y-120863588D01*
X145883051Y-120674184D01*
X145883049Y-120674181D01*
X145883048Y-120674179D01*
X145758109Y-120502213D01*
X145607786Y-120351890D01*
X145435820Y-120226951D01*
X145246414Y-120130444D01*
X145246413Y-120130443D01*
X145246412Y-120130443D01*
X145044243Y-120064754D01*
X145044241Y-120064753D01*
X145044240Y-120064753D01*
X144882957Y-120039208D01*
X144834287Y-120031500D01*
X144621713Y-120031500D01*
X144573042Y-120039208D01*
X144411760Y-120064753D01*
X144209585Y-120130444D01*
X144020179Y-120226951D01*
X143848213Y-120351890D01*
X143697890Y-120502213D01*
X143572949Y-120674182D01*
X143568484Y-120682946D01*
X143520509Y-120733742D01*
X143452688Y-120750536D01*
X143386553Y-120727998D01*
X143347516Y-120682946D01*
X143343050Y-120674182D01*
X143218109Y-120502213D01*
X143067786Y-120351890D01*
X142895820Y-120226951D01*
X142706414Y-120130444D01*
X142706413Y-120130443D01*
X142706412Y-120130443D01*
X142504243Y-120064754D01*
X142504241Y-120064753D01*
X142504240Y-120064753D01*
X142342957Y-120039208D01*
X142294287Y-120031500D01*
X142081713Y-120031500D01*
X142033042Y-120039208D01*
X141871760Y-120064753D01*
X141669582Y-120130445D01*
X141579033Y-120176582D01*
X141510364Y-120189478D01*
X141445624Y-120163201D01*
X141412830Y-120123508D01*
X141337278Y-119978870D01*
X141208753Y-119821246D01*
X141051129Y-119692721D01*
X140870861Y-119598557D01*
X140675328Y-119542609D01*
X140675325Y-119542608D01*
X140556000Y-119532000D01*
X140148000Y-119532000D01*
X140148000Y-121316174D01*
X140113925Y-121189007D01*
X140048099Y-121074993D01*
X139955007Y-120981901D01*
X139840993Y-120916075D01*
X139713826Y-120882000D01*
X139582174Y-120882000D01*
X139455007Y-120916075D01*
X139340993Y-120981901D01*
X139247901Y-121074993D01*
X139182075Y-121189007D01*
X139148000Y-121316174D01*
X137173500Y-121316174D01*
X137173500Y-120473999D01*
X137798000Y-120473999D01*
X137798000Y-120882000D01*
X139148000Y-120882000D01*
X139148000Y-119532000D01*
X138739999Y-119532000D01*
X138620674Y-119542608D01*
X138620671Y-119542609D01*
X138425138Y-119598557D01*
X138244870Y-119692721D01*
X138087246Y-119821246D01*
X137958721Y-119978870D01*
X137864557Y-120159138D01*
X137808609Y-120354671D01*
X137808608Y-120354674D01*
X137798000Y-120473999D01*
X137173500Y-120473999D01*
X137173500Y-116553153D01*
X153622500Y-116553153D01*
X153622500Y-116710846D01*
X153653261Y-116865489D01*
X153653264Y-116865501D01*
X153713602Y-117011172D01*
X153713609Y-117011185D01*
X153801210Y-117142288D01*
X153801213Y-117142292D01*
X153912707Y-117253786D01*
X153912711Y-117253789D01*
X154043814Y-117341390D01*
X154043827Y-117341397D01*
X154189498Y-117401735D01*
X154189503Y-117401737D01*
X154344153Y-117432499D01*
X154344156Y-117432500D01*
X154344158Y-117432500D01*
X154501844Y-117432500D01*
X154501845Y-117432499D01*
X154656497Y-117401737D01*
X154802179Y-117341394D01*
X154856028Y-117305412D01*
X154922702Y-117284535D01*
X154990083Y-117303018D01*
X155012599Y-117320834D01*
X158338425Y-120646660D01*
X158371910Y-120707983D01*
X158372361Y-120710149D01*
X158403261Y-120865491D01*
X158403264Y-120865501D01*
X158463602Y-121011172D01*
X158463609Y-121011185D01*
X158551210Y-121142288D01*
X158551213Y-121142292D01*
X158662707Y-121253786D01*
X158662711Y-121253789D01*
X158793814Y-121341390D01*
X158793827Y-121341397D01*
X158939498Y-121401735D01*
X158939503Y-121401737D01*
X159094153Y-121432499D01*
X159094156Y-121432500D01*
X159094158Y-121432500D01*
X159251844Y-121432500D01*
X159251845Y-121432499D01*
X159406497Y-121401737D01*
X159552179Y-121341394D01*
X159683289Y-121253789D01*
X159794789Y-121142289D01*
X159882394Y-121011179D01*
X159942737Y-120865497D01*
X159973500Y-120710842D01*
X159973500Y-120553158D01*
X159973500Y-120553155D01*
X159973499Y-120553153D01*
X159942738Y-120398510D01*
X159942737Y-120398503D01*
X159924583Y-120354674D01*
X159882397Y-120252827D01*
X159882390Y-120252814D01*
X159794789Y-120121711D01*
X159794786Y-120121707D01*
X159683292Y-120010213D01*
X159683288Y-120010210D01*
X159552185Y-119922609D01*
X159552172Y-119922602D01*
X159406501Y-119862264D01*
X159406491Y-119862261D01*
X159251149Y-119831361D01*
X159189238Y-119798976D01*
X159187660Y-119797425D01*
X155660590Y-116270355D01*
X155660588Y-116270352D01*
X155541717Y-116151481D01*
X155541716Y-116151480D01*
X155454904Y-116101360D01*
X155454904Y-116101359D01*
X155454900Y-116101358D01*
X155404785Y-116072423D01*
X155252057Y-116031499D01*
X155093943Y-116031499D01*
X155086347Y-116031499D01*
X155086331Y-116031500D01*
X155002766Y-116031500D01*
X154935727Y-116011815D01*
X154933875Y-116010602D01*
X154802185Y-115922609D01*
X154802172Y-115922602D01*
X154656501Y-115862264D01*
X154656489Y-115862261D01*
X154501845Y-115831500D01*
X154501842Y-115831500D01*
X154344158Y-115831500D01*
X154344155Y-115831500D01*
X154189510Y-115862261D01*
X154189498Y-115862264D01*
X154043827Y-115922602D01*
X154043814Y-115922609D01*
X153912711Y-116010210D01*
X153912707Y-116010213D01*
X153801213Y-116121707D01*
X153801210Y-116121711D01*
X153713609Y-116252814D01*
X153713602Y-116252827D01*
X153653264Y-116398498D01*
X153653261Y-116398510D01*
X153622500Y-116553153D01*
X137173500Y-116553153D01*
X137173500Y-108395555D01*
X140149048Y-108395555D01*
X140292747Y-108485847D01*
X140535604Y-108602801D01*
X140535618Y-108602807D01*
X140790036Y-108691832D01*
X140790048Y-108691836D01*
X141052848Y-108751818D01*
X141052866Y-108751821D01*
X141320712Y-108781999D01*
X141320716Y-108782000D01*
X141590284Y-108782000D01*
X141590287Y-108781999D01*
X141858133Y-108751821D01*
X141858151Y-108751818D01*
X142120951Y-108691836D01*
X142120963Y-108691832D01*
X142375381Y-108602807D01*
X142375395Y-108602801D01*
X142618252Y-108485847D01*
X142761949Y-108395555D01*
X141455500Y-107089106D01*
X140149049Y-108395555D01*
X140149048Y-108395555D01*
X137173500Y-108395555D01*
X137173500Y-106247212D01*
X139055500Y-106247212D01*
X139055500Y-106516787D01*
X139085678Y-106784633D01*
X139085681Y-106784651D01*
X139145663Y-107047451D01*
X139145667Y-107047463D01*
X139234692Y-107301881D01*
X139234698Y-107301895D01*
X139351652Y-107544752D01*
X139441943Y-107688450D01*
X140748393Y-106382000D01*
X140748393Y-106381999D01*
X140684375Y-106317981D01*
X140805500Y-106317981D01*
X140805500Y-106446019D01*
X140830479Y-106571598D01*
X140879478Y-106689890D01*
X140950612Y-106796351D01*
X141041149Y-106886888D01*
X141147610Y-106958022D01*
X141265902Y-107007021D01*
X141391481Y-107032000D01*
X141519519Y-107032000D01*
X141645098Y-107007021D01*
X141763390Y-106958022D01*
X141869851Y-106886888D01*
X141960388Y-106796351D01*
X142031522Y-106689890D01*
X142080521Y-106571598D01*
X142105500Y-106446019D01*
X142105500Y-106381999D01*
X142162606Y-106381999D01*
X142162606Y-106382000D01*
X143469055Y-107688449D01*
X143559347Y-107544752D01*
X143676301Y-107301895D01*
X143676307Y-107301881D01*
X143765332Y-107047463D01*
X143765336Y-107047451D01*
X143825318Y-106784651D01*
X143825321Y-106784633D01*
X143855499Y-106516787D01*
X143855500Y-106516783D01*
X143855500Y-106247216D01*
X143855499Y-106247212D01*
X143825321Y-105979366D01*
X143825318Y-105979348D01*
X143765336Y-105716548D01*
X143765332Y-105716536D01*
X143676307Y-105462118D01*
X143676301Y-105462104D01*
X143559347Y-105219247D01*
X143469055Y-105075549D01*
X142162606Y-106381999D01*
X142105500Y-106381999D01*
X142105500Y-106317981D01*
X142080521Y-106192402D01*
X142031522Y-106074110D01*
X141960388Y-105967649D01*
X141869851Y-105877112D01*
X141763390Y-105805978D01*
X141645098Y-105756979D01*
X141519519Y-105732000D01*
X141391481Y-105732000D01*
X141265902Y-105756979D01*
X141147610Y-105805978D01*
X141041149Y-105877112D01*
X140950612Y-105967649D01*
X140879478Y-106074110D01*
X140830479Y-106192402D01*
X140805500Y-106317981D01*
X140684375Y-106317981D01*
X139441942Y-105075549D01*
X139351655Y-105219242D01*
X139351654Y-105219243D01*
X139234698Y-105462104D01*
X139234692Y-105462118D01*
X139145667Y-105716536D01*
X139145663Y-105716548D01*
X139085681Y-105979348D01*
X139085678Y-105979366D01*
X139055500Y-106247212D01*
X137173500Y-106247212D01*
X137173500Y-104368442D01*
X140149049Y-104368442D01*
X141455499Y-105674893D01*
X142448409Y-104681984D01*
X175240000Y-104681984D01*
X175240000Y-107082015D01*
X175250500Y-107184795D01*
X175250501Y-107184796D01*
X175305686Y-107351335D01*
X175305687Y-107351337D01*
X175397786Y-107500651D01*
X175397789Y-107500655D01*
X175521844Y-107624710D01*
X175521848Y-107624713D01*
X175671162Y-107716812D01*
X175671164Y-107716813D01*
X175671166Y-107716814D01*
X175837703Y-107771999D01*
X175940492Y-107782500D01*
X175940497Y-107782500D01*
X178340503Y-107782500D01*
X178340508Y-107782500D01*
X178443297Y-107771999D01*
X178609834Y-107716814D01*
X178759155Y-107624711D01*
X178883211Y-107500655D01*
X178975314Y-107351334D01*
X179030499Y-107184797D01*
X179041000Y-107082008D01*
X179041000Y-104681992D01*
X179030499Y-104579203D01*
X178975314Y-104412666D01*
X178892345Y-104278154D01*
X178883213Y-104263348D01*
X178883210Y-104263344D01*
X178759155Y-104139289D01*
X178759151Y-104139286D01*
X178609837Y-104047187D01*
X178609835Y-104047186D01*
X178504187Y-104012178D01*
X178443297Y-103992001D01*
X178443295Y-103992000D01*
X178340515Y-103981500D01*
X178340508Y-103981500D01*
X175940492Y-103981500D01*
X175940484Y-103981500D01*
X175837704Y-103992000D01*
X175837703Y-103992001D01*
X175671164Y-104047186D01*
X175671162Y-104047187D01*
X175521848Y-104139286D01*
X175521844Y-104139289D01*
X175397789Y-104263344D01*
X175397786Y-104263348D01*
X175305687Y-104412662D01*
X175305686Y-104412664D01*
X175250501Y-104579203D01*
X175250500Y-104579204D01*
X175240000Y-104681984D01*
X142448409Y-104681984D01*
X142539239Y-104591154D01*
X142761950Y-104368443D01*
X142618252Y-104278152D01*
X142375395Y-104161198D01*
X142375381Y-104161192D01*
X142120963Y-104072167D01*
X142120951Y-104072163D01*
X141858151Y-104012181D01*
X141858133Y-104012178D01*
X141590287Y-103982000D01*
X141320712Y-103982000D01*
X141052866Y-104012178D01*
X141052848Y-104012181D01*
X140790048Y-104072163D01*
X140790036Y-104072167D01*
X140535618Y-104161192D01*
X140535604Y-104161198D01*
X140292743Y-104278154D01*
X140292742Y-104278155D01*
X140149049Y-104368442D01*
X137173500Y-104368442D01*
X137173500Y-100181984D01*
X139555000Y-100181984D01*
X139555000Y-102582015D01*
X139565500Y-102684795D01*
X139565501Y-102684797D01*
X139565735Y-102685502D01*
X139620686Y-102851335D01*
X139620687Y-102851337D01*
X139712786Y-103000651D01*
X139712789Y-103000655D01*
X139836844Y-103124710D01*
X139836848Y-103124713D01*
X139986162Y-103216812D01*
X139986164Y-103216813D01*
X139986166Y-103216814D01*
X140152703Y-103271999D01*
X140255492Y-103282500D01*
X140255497Y-103282500D01*
X142655503Y-103282500D01*
X142655508Y-103282500D01*
X142758297Y-103271999D01*
X142924834Y-103216814D01*
X143074155Y-103124711D01*
X143198211Y-103000655D01*
X143211011Y-102979901D01*
X143234759Y-102941403D01*
X143286707Y-102894678D01*
X143340297Y-102882500D01*
X176758597Y-102882500D01*
X176871684Y-102864588D01*
X176991868Y-102845553D01*
X176991871Y-102845552D01*
X176991872Y-102845552D01*
X177167247Y-102788569D01*
X177205565Y-102782500D01*
X177265058Y-102782500D01*
X177265065Y-102782500D01*
X177512065Y-102749982D01*
X177752707Y-102685502D01*
X177982873Y-102590164D01*
X178198627Y-102465599D01*
X178396276Y-102313938D01*
X178572438Y-102137776D01*
X178724099Y-101940127D01*
X178848664Y-101724373D01*
X178944002Y-101494207D01*
X179008482Y-101253565D01*
X179041000Y-101006565D01*
X179041000Y-100757435D01*
X179008482Y-100510435D01*
X178944002Y-100269793D01*
X178889753Y-100138825D01*
X178848669Y-100039638D01*
X178848662Y-100039623D01*
X178724099Y-99823873D01*
X178572439Y-99626225D01*
X178572433Y-99626218D01*
X178396281Y-99450066D01*
X178396274Y-99450060D01*
X178198626Y-99298400D01*
X177982876Y-99173837D01*
X177982861Y-99173830D01*
X177752707Y-99078498D01*
X177512061Y-99014017D01*
X177265075Y-98981501D01*
X177265070Y-98981500D01*
X177265065Y-98981500D01*
X177015935Y-98981500D01*
X177015929Y-98981500D01*
X177015924Y-98981501D01*
X176768938Y-99014017D01*
X176528292Y-99078498D01*
X176298138Y-99173830D01*
X176298123Y-99173837D01*
X176082373Y-99298400D01*
X175884725Y-99450060D01*
X175884718Y-99450066D01*
X175708566Y-99626218D01*
X175708560Y-99626225D01*
X175556906Y-99823865D01*
X175555224Y-99826384D01*
X175554527Y-99826966D01*
X175554430Y-99827093D01*
X175554401Y-99827071D01*
X175501615Y-99871192D01*
X175452117Y-99881500D01*
X143340297Y-99881500D01*
X143273258Y-99861815D01*
X143234759Y-99822597D01*
X143198213Y-99763348D01*
X143198210Y-99763344D01*
X143074155Y-99639289D01*
X143074151Y-99639286D01*
X142924837Y-99547187D01*
X142924835Y-99547186D01*
X142841565Y-99519593D01*
X142758297Y-99492001D01*
X142758295Y-99492000D01*
X142655515Y-99481500D01*
X142655508Y-99481500D01*
X140255492Y-99481500D01*
X140255484Y-99481500D01*
X140152704Y-99492000D01*
X140152703Y-99492001D01*
X139986164Y-99547186D01*
X139986162Y-99547187D01*
X139836848Y-99639286D01*
X139836844Y-99639289D01*
X139712789Y-99763344D01*
X139712786Y-99763348D01*
X139620687Y-99912662D01*
X139620686Y-99912664D01*
X139565501Y-100079203D01*
X139565500Y-100079204D01*
X139555000Y-100181984D01*
X137173500Y-100181984D01*
X137173500Y-94635750D01*
X137173726Y-94628263D01*
X137180837Y-94510711D01*
X137822500Y-94510711D01*
X137822500Y-94753288D01*
X137854161Y-94993785D01*
X137916947Y-95228104D01*
X138009773Y-95452205D01*
X138009776Y-95452212D01*
X138131064Y-95662289D01*
X138131066Y-95662292D01*
X138131067Y-95662293D01*
X138278733Y-95854736D01*
X138278739Y-95854743D01*
X138450256Y-96026260D01*
X138450262Y-96026265D01*
X138642711Y-96173936D01*
X138852788Y-96295224D01*
X139076900Y-96388054D01*
X139311211Y-96450838D01*
X139491586Y-96474584D01*
X139551711Y-96482500D01*
X139551712Y-96482500D01*
X139794289Y-96482500D01*
X139842388Y-96476167D01*
X140034789Y-96450838D01*
X140269100Y-96388054D01*
X140493212Y-96295224D01*
X140703289Y-96173936D01*
X140895738Y-96026265D01*
X141067265Y-95854738D01*
X141214936Y-95662289D01*
X141336224Y-95452212D01*
X141429054Y-95228100D01*
X141491838Y-94993789D01*
X141523500Y-94753288D01*
X141523500Y-94510712D01*
X141523500Y-94510711D01*
X176822500Y-94510711D01*
X176822500Y-94753288D01*
X176854161Y-94993785D01*
X176916947Y-95228104D01*
X177009773Y-95452205D01*
X177009776Y-95452212D01*
X177131064Y-95662289D01*
X177131066Y-95662292D01*
X177131067Y-95662293D01*
X177278733Y-95854736D01*
X177278739Y-95854743D01*
X177450256Y-96026260D01*
X177450262Y-96026265D01*
X177642711Y-96173936D01*
X177852788Y-96295224D01*
X178076900Y-96388054D01*
X178311211Y-96450838D01*
X178491586Y-96474584D01*
X178551711Y-96482500D01*
X178551712Y-96482500D01*
X178794289Y-96482500D01*
X178842388Y-96476167D01*
X179034789Y-96450838D01*
X179269100Y-96388054D01*
X179493212Y-96295224D01*
X179703289Y-96173936D01*
X179895738Y-96026265D01*
X180067265Y-95854738D01*
X180214936Y-95662289D01*
X180336224Y-95452212D01*
X180429054Y-95228100D01*
X180491838Y-94993789D01*
X180523500Y-94753288D01*
X180523500Y-94510712D01*
X180491838Y-94270211D01*
X180429054Y-94035900D01*
X180336224Y-93811788D01*
X180214936Y-93601711D01*
X180067265Y-93409262D01*
X180067260Y-93409256D01*
X179895743Y-93237739D01*
X179895736Y-93237733D01*
X179703293Y-93090067D01*
X179703292Y-93090066D01*
X179703289Y-93090064D01*
X179531661Y-92990974D01*
X179493214Y-92968777D01*
X179493205Y-92968773D01*
X179269104Y-92875947D01*
X179034785Y-92813161D01*
X178794289Y-92781500D01*
X178794288Y-92781500D01*
X178551712Y-92781500D01*
X178551711Y-92781500D01*
X178311214Y-92813161D01*
X178076895Y-92875947D01*
X177852794Y-92968773D01*
X177852785Y-92968777D01*
X177642706Y-93090067D01*
X177450263Y-93237733D01*
X177450256Y-93237739D01*
X177278739Y-93409256D01*
X177278733Y-93409263D01*
X177131067Y-93601706D01*
X177009777Y-93811785D01*
X177009773Y-93811794D01*
X176916947Y-94035895D01*
X176854161Y-94270214D01*
X176822500Y-94510711D01*
X141523500Y-94510711D01*
X141491838Y-94270211D01*
X141429054Y-94035900D01*
X141336224Y-93811788D01*
X141214936Y-93601711D01*
X141067265Y-93409262D01*
X141067260Y-93409256D01*
X140895743Y-93237739D01*
X140895736Y-93237733D01*
X140703293Y-93090067D01*
X140703292Y-93090066D01*
X140703289Y-93090064D01*
X140531661Y-92990974D01*
X140493214Y-92968777D01*
X140493205Y-92968773D01*
X140269104Y-92875947D01*
X140034785Y-92813161D01*
X139794289Y-92781500D01*
X139794288Y-92781500D01*
X139551712Y-92781500D01*
X139551711Y-92781500D01*
X139311214Y-92813161D01*
X139076895Y-92875947D01*
X138852794Y-92968773D01*
X138852785Y-92968777D01*
X138642706Y-93090067D01*
X138450263Y-93237733D01*
X138450256Y-93237739D01*
X138278739Y-93409256D01*
X138278733Y-93409263D01*
X138131067Y-93601706D01*
X138009777Y-93811785D01*
X138009773Y-93811794D01*
X137916947Y-94035895D01*
X137854161Y-94270214D01*
X137822500Y-94510711D01*
X137180837Y-94510711D01*
X137181535Y-94499166D01*
X137191271Y-94338205D01*
X137193076Y-94323340D01*
X137202813Y-94270211D01*
X137244780Y-94041197D01*
X137248364Y-94026663D01*
X137325096Y-93780422D01*
X137333696Y-93752822D01*
X137338998Y-93738841D01*
X137456731Y-93477249D01*
X137463676Y-93464016D01*
X137612080Y-93218526D01*
X137620567Y-93206230D01*
X137797480Y-92980417D01*
X137807395Y-92969226D01*
X138010226Y-92766395D01*
X138021417Y-92756480D01*
X138247230Y-92579567D01*
X138259526Y-92571080D01*
X138505016Y-92422676D01*
X138518249Y-92415731D01*
X138779841Y-92297998D01*
X138793822Y-92292696D01*
X139067668Y-92207362D01*
X139082197Y-92203780D01*
X139364344Y-92152075D01*
X139379201Y-92150271D01*
X139669264Y-92132726D01*
X139676751Y-92132500D01*
X139738892Y-92132500D01*
X178607108Y-92132500D01*
X178669249Y-92132500D01*
X178676736Y-92132726D01*
G37*
%TD.AperFunction*%
%TD*%
M02*
