%TF.GenerationSoftware,KiCad,Pcbnew,9.0.0*%
%TF.CreationDate,2025-03-26T19:28:16+01:00*%
%TF.ProjectId,attiny_pwm,61747469-6e79-45f7-9077-6d2e6b696361,1*%
%TF.SameCoordinates,Original*%
%TF.FileFunction,Legend,Bot*%
%TF.FilePolarity,Positive*%
%FSLAX46Y46*%
G04 Gerber Fmt 4.6, Leading zero omitted, Abs format (unit mm)*
G04 Created by KiCad (PCBNEW 9.0.0) date 2025-03-26 19:28:16*
%MOMM*%
%LPD*%
G01*
G04 APERTURE LIST*
%ADD10C,0.200000*%
%ADD11C,0.000000*%
G04 APERTURE END LIST*
D10*
X148836428Y-123697275D02*
X148836428Y-123935370D01*
X149074523Y-123840132D02*
X148836428Y-123935370D01*
X148836428Y-123935370D02*
X148598333Y-123840132D01*
X148979285Y-124125846D02*
X148836428Y-123935370D01*
X148836428Y-123935370D02*
X148693571Y-124125846D01*
X148217380Y-124697275D02*
X148217380Y-123697275D01*
X148217380Y-123697275D02*
X147836428Y-123697275D01*
X147836428Y-123697275D02*
X147741190Y-123744894D01*
X147741190Y-123744894D02*
X147693571Y-123792513D01*
X147693571Y-123792513D02*
X147645952Y-123887751D01*
X147645952Y-123887751D02*
X147645952Y-124030608D01*
X147645952Y-124030608D02*
X147693571Y-124125846D01*
X147693571Y-124125846D02*
X147741190Y-124173465D01*
X147741190Y-124173465D02*
X147836428Y-124221084D01*
X147836428Y-124221084D02*
X148217380Y-124221084D01*
X146645952Y-124697275D02*
X146979285Y-124221084D01*
X147217380Y-124697275D02*
X147217380Y-123697275D01*
X147217380Y-123697275D02*
X146836428Y-123697275D01*
X146836428Y-123697275D02*
X146741190Y-123744894D01*
X146741190Y-123744894D02*
X146693571Y-123792513D01*
X146693571Y-123792513D02*
X146645952Y-123887751D01*
X146645952Y-123887751D02*
X146645952Y-124030608D01*
X146645952Y-124030608D02*
X146693571Y-124125846D01*
X146693571Y-124125846D02*
X146741190Y-124173465D01*
X146741190Y-124173465D02*
X146836428Y-124221084D01*
X146836428Y-124221084D02*
X147217380Y-124221084D01*
X146026904Y-123697275D02*
X145836428Y-123697275D01*
X145836428Y-123697275D02*
X145741190Y-123744894D01*
X145741190Y-123744894D02*
X145645952Y-123840132D01*
X145645952Y-123840132D02*
X145598333Y-124030608D01*
X145598333Y-124030608D02*
X145598333Y-124363941D01*
X145598333Y-124363941D02*
X145645952Y-124554417D01*
X145645952Y-124554417D02*
X145741190Y-124649656D01*
X145741190Y-124649656D02*
X145836428Y-124697275D01*
X145836428Y-124697275D02*
X146026904Y-124697275D01*
X146026904Y-124697275D02*
X146122142Y-124649656D01*
X146122142Y-124649656D02*
X146217380Y-124554417D01*
X146217380Y-124554417D02*
X146264999Y-124363941D01*
X146264999Y-124363941D02*
X146264999Y-124030608D01*
X146264999Y-124030608D02*
X146217380Y-123840132D01*
X146217380Y-123840132D02*
X146122142Y-123744894D01*
X146122142Y-123744894D02*
X146026904Y-123697275D01*
X145312618Y-123697275D02*
X144741190Y-123697275D01*
X145026904Y-124697275D02*
X145026904Y-123697275D01*
X144217380Y-123697275D02*
X144026904Y-123697275D01*
X144026904Y-123697275D02*
X143931666Y-123744894D01*
X143931666Y-123744894D02*
X143836428Y-123840132D01*
X143836428Y-123840132D02*
X143788809Y-124030608D01*
X143788809Y-124030608D02*
X143788809Y-124363941D01*
X143788809Y-124363941D02*
X143836428Y-124554417D01*
X143836428Y-124554417D02*
X143931666Y-124649656D01*
X143931666Y-124649656D02*
X144026904Y-124697275D01*
X144026904Y-124697275D02*
X144217380Y-124697275D01*
X144217380Y-124697275D02*
X144312618Y-124649656D01*
X144312618Y-124649656D02*
X144407856Y-124554417D01*
X144407856Y-124554417D02*
X144455475Y-124363941D01*
X144455475Y-124363941D02*
X144455475Y-124030608D01*
X144455475Y-124030608D02*
X144407856Y-123840132D01*
X144407856Y-123840132D02*
X144312618Y-123744894D01*
X144312618Y-123744894D02*
X144217380Y-123697275D01*
X143503094Y-123697275D02*
X142931666Y-123697275D01*
X143217380Y-124697275D02*
X143217380Y-123697275D01*
X142407856Y-124221084D02*
X142407856Y-124697275D01*
X142741189Y-123697275D02*
X142407856Y-124221084D01*
X142407856Y-124221084D02*
X142074523Y-123697275D01*
X141741189Y-124697275D02*
X141741189Y-123697275D01*
X141741189Y-123697275D02*
X141360237Y-123697275D01*
X141360237Y-123697275D02*
X141264999Y-123744894D01*
X141264999Y-123744894D02*
X141217380Y-123792513D01*
X141217380Y-123792513D02*
X141169761Y-123887751D01*
X141169761Y-123887751D02*
X141169761Y-124030608D01*
X141169761Y-124030608D02*
X141217380Y-124125846D01*
X141217380Y-124125846D02*
X141264999Y-124173465D01*
X141264999Y-124173465D02*
X141360237Y-124221084D01*
X141360237Y-124221084D02*
X141741189Y-124221084D01*
X140741189Y-124173465D02*
X140407856Y-124173465D01*
X140264999Y-124697275D02*
X140741189Y-124697275D01*
X140741189Y-124697275D02*
X140741189Y-123697275D01*
X140741189Y-123697275D02*
X140264999Y-123697275D01*
X139693570Y-123697275D02*
X139693570Y-123935370D01*
X139931665Y-123840132D02*
X139693570Y-123935370D01*
X139693570Y-123935370D02*
X139455475Y-123840132D01*
X139836427Y-124125846D02*
X139693570Y-123935370D01*
X139693570Y-123935370D02*
X139550713Y-124125846D01*
X150550715Y-125307219D02*
X150550715Y-125545314D01*
X150788810Y-125450076D02*
X150550715Y-125545314D01*
X150550715Y-125545314D02*
X150312620Y-125450076D01*
X150693572Y-125735790D02*
X150550715Y-125545314D01*
X150550715Y-125545314D02*
X150407858Y-125735790D01*
X150074524Y-125640552D02*
X149693572Y-125640552D01*
X149931667Y-126307219D02*
X149931667Y-125450076D01*
X149931667Y-125450076D02*
X149884048Y-125354838D01*
X149884048Y-125354838D02*
X149788810Y-125307219D01*
X149788810Y-125307219D02*
X149693572Y-125307219D01*
X149217381Y-126307219D02*
X149312619Y-126259600D01*
X149312619Y-126259600D02*
X149360238Y-126211980D01*
X149360238Y-126211980D02*
X149407857Y-126116742D01*
X149407857Y-126116742D02*
X149407857Y-125831028D01*
X149407857Y-125831028D02*
X149360238Y-125735790D01*
X149360238Y-125735790D02*
X149312619Y-125688171D01*
X149312619Y-125688171D02*
X149217381Y-125640552D01*
X149217381Y-125640552D02*
X149074524Y-125640552D01*
X149074524Y-125640552D02*
X148979286Y-125688171D01*
X148979286Y-125688171D02*
X148931667Y-125735790D01*
X148931667Y-125735790D02*
X148884048Y-125831028D01*
X148884048Y-125831028D02*
X148884048Y-126116742D01*
X148884048Y-126116742D02*
X148931667Y-126211980D01*
X148931667Y-126211980D02*
X148979286Y-126259600D01*
X148979286Y-126259600D02*
X149074524Y-126307219D01*
X149074524Y-126307219D02*
X149217381Y-126307219D01*
X148455476Y-126307219D02*
X148455476Y-125640552D01*
X148455476Y-125831028D02*
X148407857Y-125735790D01*
X148407857Y-125735790D02*
X148360238Y-125688171D01*
X148360238Y-125688171D02*
X148265000Y-125640552D01*
X148265000Y-125640552D02*
X148169762Y-125640552D01*
X147217380Y-125640552D02*
X146836428Y-125640552D01*
X147074523Y-125307219D02*
X147074523Y-126164361D01*
X147074523Y-126164361D02*
X147026904Y-126259600D01*
X147026904Y-126259600D02*
X146931666Y-126307219D01*
X146931666Y-126307219D02*
X146836428Y-126307219D01*
X146122142Y-126259600D02*
X146217380Y-126307219D01*
X146217380Y-126307219D02*
X146407856Y-126307219D01*
X146407856Y-126307219D02*
X146503094Y-126259600D01*
X146503094Y-126259600D02*
X146550713Y-126164361D01*
X146550713Y-126164361D02*
X146550713Y-125783409D01*
X146550713Y-125783409D02*
X146503094Y-125688171D01*
X146503094Y-125688171D02*
X146407856Y-125640552D01*
X146407856Y-125640552D02*
X146217380Y-125640552D01*
X146217380Y-125640552D02*
X146122142Y-125688171D01*
X146122142Y-125688171D02*
X146074523Y-125783409D01*
X146074523Y-125783409D02*
X146074523Y-125878647D01*
X146074523Y-125878647D02*
X146550713Y-125973885D01*
X145693570Y-126259600D02*
X145598332Y-126307219D01*
X145598332Y-126307219D02*
X145407856Y-126307219D01*
X145407856Y-126307219D02*
X145312618Y-126259600D01*
X145312618Y-126259600D02*
X145264999Y-126164361D01*
X145264999Y-126164361D02*
X145264999Y-126116742D01*
X145264999Y-126116742D02*
X145312618Y-126021504D01*
X145312618Y-126021504D02*
X145407856Y-125973885D01*
X145407856Y-125973885D02*
X145550713Y-125973885D01*
X145550713Y-125973885D02*
X145645951Y-125926266D01*
X145645951Y-125926266D02*
X145693570Y-125831028D01*
X145693570Y-125831028D02*
X145693570Y-125783409D01*
X145693570Y-125783409D02*
X145645951Y-125688171D01*
X145645951Y-125688171D02*
X145550713Y-125640552D01*
X145550713Y-125640552D02*
X145407856Y-125640552D01*
X145407856Y-125640552D02*
X145312618Y-125688171D01*
X144979284Y-125640552D02*
X144598332Y-125640552D01*
X144836427Y-125307219D02*
X144836427Y-126164361D01*
X144836427Y-126164361D02*
X144788808Y-126259600D01*
X144788808Y-126259600D02*
X144693570Y-126307219D01*
X144693570Y-126307219D02*
X144598332Y-126307219D01*
X144264998Y-126307219D02*
X144264998Y-125640552D01*
X144264998Y-125307219D02*
X144312617Y-125354838D01*
X144312617Y-125354838D02*
X144264998Y-125402457D01*
X144264998Y-125402457D02*
X144217379Y-125354838D01*
X144217379Y-125354838D02*
X144264998Y-125307219D01*
X144264998Y-125307219D02*
X144264998Y-125402457D01*
X143788808Y-125640552D02*
X143788808Y-126307219D01*
X143788808Y-125735790D02*
X143741189Y-125688171D01*
X143741189Y-125688171D02*
X143645951Y-125640552D01*
X143645951Y-125640552D02*
X143503094Y-125640552D01*
X143503094Y-125640552D02*
X143407856Y-125688171D01*
X143407856Y-125688171D02*
X143360237Y-125783409D01*
X143360237Y-125783409D02*
X143360237Y-126307219D01*
X142455475Y-125640552D02*
X142455475Y-126450076D01*
X142455475Y-126450076D02*
X142503094Y-126545314D01*
X142503094Y-126545314D02*
X142550713Y-126592933D01*
X142550713Y-126592933D02*
X142645951Y-126640552D01*
X142645951Y-126640552D02*
X142788808Y-126640552D01*
X142788808Y-126640552D02*
X142884046Y-126592933D01*
X142455475Y-126259600D02*
X142550713Y-126307219D01*
X142550713Y-126307219D02*
X142741189Y-126307219D01*
X142741189Y-126307219D02*
X142836427Y-126259600D01*
X142836427Y-126259600D02*
X142884046Y-126211980D01*
X142884046Y-126211980D02*
X142931665Y-126116742D01*
X142931665Y-126116742D02*
X142931665Y-125831028D01*
X142931665Y-125831028D02*
X142884046Y-125735790D01*
X142884046Y-125735790D02*
X142836427Y-125688171D01*
X142836427Y-125688171D02*
X142741189Y-125640552D01*
X142741189Y-125640552D02*
X142550713Y-125640552D01*
X142550713Y-125640552D02*
X142455475Y-125688171D01*
X141074522Y-126307219D02*
X141169760Y-126259600D01*
X141169760Y-126259600D02*
X141217379Y-126211980D01*
X141217379Y-126211980D02*
X141264998Y-126116742D01*
X141264998Y-126116742D02*
X141264998Y-125831028D01*
X141264998Y-125831028D02*
X141217379Y-125735790D01*
X141217379Y-125735790D02*
X141169760Y-125688171D01*
X141169760Y-125688171D02*
X141074522Y-125640552D01*
X141074522Y-125640552D02*
X140931665Y-125640552D01*
X140931665Y-125640552D02*
X140836427Y-125688171D01*
X140836427Y-125688171D02*
X140788808Y-125735790D01*
X140788808Y-125735790D02*
X140741189Y-125831028D01*
X140741189Y-125831028D02*
X140741189Y-126116742D01*
X140741189Y-126116742D02*
X140788808Y-126211980D01*
X140788808Y-126211980D02*
X140836427Y-126259600D01*
X140836427Y-126259600D02*
X140931665Y-126307219D01*
X140931665Y-126307219D02*
X141074522Y-126307219D01*
X140312617Y-125640552D02*
X140312617Y-126307219D01*
X140312617Y-125735790D02*
X140264998Y-125688171D01*
X140264998Y-125688171D02*
X140169760Y-125640552D01*
X140169760Y-125640552D02*
X140026903Y-125640552D01*
X140026903Y-125640552D02*
X139931665Y-125688171D01*
X139931665Y-125688171D02*
X139884046Y-125783409D01*
X139884046Y-125783409D02*
X139884046Y-126307219D01*
X139264998Y-126307219D02*
X139360236Y-126259600D01*
X139360236Y-126259600D02*
X139407855Y-126164361D01*
X139407855Y-126164361D02*
X139407855Y-125307219D01*
X138979283Y-125640552D02*
X138741188Y-126307219D01*
X138503093Y-125640552D02*
X138741188Y-126307219D01*
X138741188Y-126307219D02*
X138836426Y-126545314D01*
X138836426Y-126545314D02*
X138884045Y-126592933D01*
X138884045Y-126592933D02*
X138979283Y-126640552D01*
X137979283Y-125307219D02*
X137979283Y-125545314D01*
X138217378Y-125450076D02*
X137979283Y-125545314D01*
X137979283Y-125545314D02*
X137741188Y-125450076D01*
X138122140Y-125735790D02*
X137979283Y-125545314D01*
X137979283Y-125545314D02*
X137836426Y-125735790D01*
D11*
%TO.C,G\u002A\u002A\u002A*%
G36*
X170083379Y-104171203D02*
G01*
X170180421Y-104194222D01*
X170278638Y-104234973D01*
X170328821Y-104259898D01*
X170670004Y-104468913D01*
X170988915Y-104737160D01*
X171290251Y-105070387D01*
X171578706Y-105474346D01*
X171858976Y-105954785D01*
X172087954Y-106414056D01*
X172301130Y-106919927D01*
X172474537Y-107436262D01*
X172605122Y-107948215D01*
X172689832Y-108440942D01*
X172725615Y-108899597D01*
X172709418Y-109309334D01*
X172699268Y-109386826D01*
X172637890Y-109696076D01*
X172551451Y-109934090D01*
X172430088Y-110115277D01*
X172263939Y-110254049D01*
X172043142Y-110364817D01*
X172025054Y-110372024D01*
X171937243Y-110410133D01*
X171784589Y-110480221D01*
X171580379Y-110576026D01*
X171337900Y-110691285D01*
X171070438Y-110819736D01*
X170894314Y-110904992D01*
X170593459Y-111050517D01*
X170359223Y-111161768D01*
X170180261Y-111243052D01*
X170045231Y-111298676D01*
X169942789Y-111332950D01*
X169861592Y-111350180D01*
X169790296Y-111354674D01*
X169719999Y-111350950D01*
X169548911Y-111319308D01*
X169361914Y-111260175D01*
X169280626Y-111225445D01*
X169144837Y-111165344D01*
X169052951Y-111143923D01*
X168973544Y-111156361D01*
X168932681Y-111172071D01*
X168873712Y-111199512D01*
X168743020Y-111261970D01*
X168547058Y-111356317D01*
X168292282Y-111479424D01*
X167985145Y-111628163D01*
X167632101Y-111799408D01*
X167239603Y-111990029D01*
X166814107Y-112196899D01*
X166362064Y-112416889D01*
X165923529Y-112630499D01*
X163040497Y-114035425D01*
X163031234Y-114449873D01*
X163010805Y-114748793D01*
X162958333Y-114983000D01*
X162864399Y-115171774D01*
X162719588Y-115334397D01*
X162527284Y-115481572D01*
X162363424Y-115584325D01*
X162236545Y-115641463D01*
X162117864Y-115664307D01*
X162057312Y-115666418D01*
X161861671Y-115666418D01*
X161970446Y-115795690D01*
X162031563Y-115885643D01*
X162071220Y-115996154D01*
X162097151Y-116153548D01*
X162107828Y-116263241D01*
X162123277Y-116430287D01*
X162138192Y-116565254D01*
X162149763Y-116643227D01*
X162151379Y-116649630D01*
X162199156Y-116677622D01*
X162309204Y-116703389D01*
X162445149Y-116720121D01*
X162643117Y-116739253D01*
X162776522Y-116769198D01*
X162857566Y-116825208D01*
X162898449Y-116922531D01*
X162911374Y-117076418D01*
X162908609Y-117299391D01*
X162905880Y-117515273D01*
X162911724Y-117661766D01*
X162928070Y-117756213D01*
X162956848Y-117815957D01*
X162967518Y-117828964D01*
X163053478Y-117959075D01*
X163105734Y-118130664D01*
X163128716Y-118361325D01*
X163130705Y-118477149D01*
X163133551Y-118617051D01*
X163145864Y-118737109D01*
X163173308Y-118858433D01*
X163221546Y-119002131D01*
X163296242Y-119189312D01*
X163366256Y-119355054D01*
X163509482Y-119690996D01*
X163673042Y-120075204D01*
X163853325Y-120499161D01*
X164046725Y-120954352D01*
X164249633Y-121432260D01*
X164458441Y-121924370D01*
X164669540Y-122422166D01*
X164879322Y-122917132D01*
X165084180Y-123400751D01*
X165280503Y-123864508D01*
X165464686Y-124299887D01*
X165633118Y-124698372D01*
X165782192Y-125051447D01*
X165908300Y-125350596D01*
X166007834Y-125587303D01*
X166077184Y-125753052D01*
X166080703Y-125761507D01*
X166236426Y-126135878D01*
X166738617Y-126161165D01*
X167027362Y-126177661D01*
X167318493Y-126197782D01*
X167599112Y-126220268D01*
X167856320Y-126243857D01*
X168077219Y-126267289D01*
X168248911Y-126289302D01*
X168358497Y-126308636D01*
X168393376Y-126322938D01*
X168350890Y-126347371D01*
X168227458Y-126371604D01*
X168029123Y-126395483D01*
X167761924Y-126418855D01*
X167431903Y-126441565D01*
X167045101Y-126463459D01*
X166607559Y-126484383D01*
X166125318Y-126504183D01*
X165604419Y-126522704D01*
X165050903Y-126539793D01*
X164470811Y-126555295D01*
X163870185Y-126569057D01*
X163255064Y-126580924D01*
X162631491Y-126590742D01*
X162005507Y-126598357D01*
X161383152Y-126603615D01*
X160770467Y-126606362D01*
X160173494Y-126606443D01*
X159598273Y-126603705D01*
X159050846Y-126597993D01*
X158537253Y-126589154D01*
X158237726Y-126582016D01*
X157522866Y-126561832D01*
X156846682Y-126540590D01*
X156213663Y-126518518D01*
X155628301Y-126495847D01*
X155095084Y-126472805D01*
X154618504Y-126449621D01*
X154203051Y-126426526D01*
X153853215Y-126403747D01*
X153573487Y-126381515D01*
X153368356Y-126360058D01*
X153242314Y-126339605D01*
X153202254Y-126324944D01*
X153231087Y-126311071D01*
X153336500Y-126293779D01*
X153508190Y-126273956D01*
X153735858Y-126252494D01*
X154009203Y-126230282D01*
X154317924Y-126208210D01*
X154651720Y-126187168D01*
X155000291Y-126168046D01*
X155043120Y-126165898D01*
X155588926Y-126138812D01*
X155596141Y-126121889D01*
X156737145Y-126121889D01*
X156778133Y-126121770D01*
X156891378Y-126118439D01*
X157062230Y-126112401D01*
X157276041Y-126104162D01*
X157422162Y-126098235D01*
X157686514Y-126089123D01*
X158010413Y-126080764D01*
X158366419Y-126073701D01*
X158727092Y-126068477D01*
X159064994Y-126065636D01*
X159069532Y-126065615D01*
X159357908Y-126063218D01*
X159623527Y-126058948D01*
X159851741Y-126053206D01*
X160027900Y-126046391D01*
X160137357Y-126038901D01*
X160158596Y-126035925D01*
X160285373Y-126010570D01*
X160295467Y-124894230D01*
X160305560Y-123777890D01*
X160193243Y-123652801D01*
X160156568Y-123613834D01*
X160117531Y-123582794D01*
X160064996Y-123557484D01*
X159987827Y-123535705D01*
X159874888Y-123515260D01*
X159715043Y-123493951D01*
X159497155Y-123469579D01*
X159210089Y-123439947D01*
X159014951Y-123420235D01*
X158720229Y-123391366D01*
X158455156Y-123367018D01*
X158231685Y-123348159D01*
X158061773Y-123335753D01*
X157957373Y-123330768D01*
X157929221Y-123332513D01*
X157909867Y-123373853D01*
X157861321Y-123484093D01*
X157788355Y-123652066D01*
X157695742Y-123866604D01*
X157588253Y-124116541D01*
X157470663Y-124390709D01*
X157347743Y-124677942D01*
X157224265Y-124967071D01*
X157105002Y-125246931D01*
X156994727Y-125506353D01*
X156898211Y-125734170D01*
X156820228Y-125919215D01*
X156765550Y-126050322D01*
X156738948Y-126116323D01*
X156737145Y-126121889D01*
X155596141Y-126121889D01*
X155863030Y-125495870D01*
X156302280Y-125495870D01*
X156318194Y-125531670D01*
X156331276Y-125524865D01*
X156336481Y-125473249D01*
X156331276Y-125466874D01*
X156305419Y-125472845D01*
X156302280Y-125495870D01*
X155863030Y-125495870D01*
X155914275Y-125375669D01*
X156358269Y-125375669D01*
X156360410Y-125390895D01*
X156379533Y-125362621D01*
X156417898Y-125285889D01*
X156477761Y-125155745D01*
X156561381Y-124967230D01*
X156671015Y-124715391D01*
X156808922Y-124395269D01*
X156977360Y-124001910D01*
X157054458Y-123821383D01*
X157376278Y-123066736D01*
X157383524Y-123049709D01*
X158551917Y-123049709D01*
X158579024Y-123062553D01*
X158692149Y-123079086D01*
X158891515Y-123099437D01*
X159177347Y-123123737D01*
X159499027Y-123148374D01*
X159735331Y-123166710D01*
X159939390Y-123184206D01*
X160096224Y-123199444D01*
X160190854Y-123211007D01*
X160211857Y-123215828D01*
X160254506Y-123217537D01*
X160283459Y-123163303D01*
X160284782Y-123114447D01*
X160274948Y-123089741D01*
X160246564Y-123070888D01*
X160189042Y-123057010D01*
X160091790Y-123047227D01*
X159944218Y-123040661D01*
X159735738Y-123036431D01*
X159455758Y-123033659D01*
X159299186Y-123032626D01*
X158984462Y-123032012D01*
X158754860Y-123034568D01*
X158610603Y-123040424D01*
X158551917Y-123049709D01*
X157383524Y-123049709D01*
X157563338Y-122627145D01*
X158259472Y-122627145D01*
X158302329Y-122641832D01*
X158428533Y-122652445D01*
X158634535Y-122658873D01*
X158916788Y-122661005D01*
X159270688Y-122658743D01*
X160281904Y-122647068D01*
X160291356Y-120874576D01*
X160292864Y-120488680D01*
X160293215Y-120128862D01*
X160292476Y-119804655D01*
X160290717Y-119525589D01*
X160288233Y-119319842D01*
X160608102Y-119319842D01*
X160608225Y-122005544D01*
X160609060Y-122793990D01*
X160611520Y-123497343D01*
X160615651Y-124117483D01*
X160621497Y-124656292D01*
X160629105Y-125115647D01*
X160638521Y-125497430D01*
X160649791Y-125803520D01*
X160662959Y-126035797D01*
X160678072Y-126196140D01*
X160695175Y-126286431D01*
X160712884Y-126309186D01*
X160734650Y-126259624D01*
X160754904Y-126130750D01*
X160764962Y-126017788D01*
X161521458Y-126017788D01*
X162249969Y-126023544D01*
X162565639Y-126027776D01*
X162919615Y-126035333D01*
X163273206Y-126045231D01*
X163587720Y-126056484D01*
X163652623Y-126059256D01*
X163919071Y-126070619D01*
X164185765Y-126081161D01*
X164426446Y-126089897D01*
X164614858Y-126095844D01*
X164659633Y-126096993D01*
X164992500Y-126104774D01*
X164496693Y-124919586D01*
X164365804Y-124607384D01*
X164241112Y-124311232D01*
X164127872Y-124043518D01*
X164031341Y-123816627D01*
X163956776Y-123642946D01*
X163909432Y-123534862D01*
X163904036Y-123522957D01*
X163807185Y-123311517D01*
X163588551Y-123334901D01*
X163475742Y-123346397D01*
X163294422Y-123364207D01*
X163062692Y-123386583D01*
X162798654Y-123411777D01*
X162527555Y-123437369D01*
X162236625Y-123465243D01*
X162020575Y-123488016D01*
X161867617Y-123508010D01*
X161765963Y-123527549D01*
X161703823Y-123548954D01*
X161669409Y-123574547D01*
X161650933Y-123606650D01*
X161649501Y-123610327D01*
X161602262Y-123697073D01*
X161567634Y-123732739D01*
X161551218Y-123787365D01*
X161538375Y-123928445D01*
X161529122Y-124155520D01*
X161523479Y-124468128D01*
X161521464Y-124865812D01*
X161521458Y-124889532D01*
X161521458Y-126017788D01*
X160764962Y-126017788D01*
X160772757Y-125930235D01*
X160787297Y-125666346D01*
X160792547Y-125511816D01*
X160798503Y-125279741D01*
X160805002Y-124979558D01*
X160806728Y-124889532D01*
X160811883Y-124620703D01*
X160818981Y-124212613D01*
X160826135Y-123764725D01*
X160833181Y-123286475D01*
X160836005Y-123078453D01*
X161751611Y-123078453D01*
X161813104Y-123090283D01*
X161928945Y-123095708D01*
X162082933Y-123094695D01*
X162258864Y-123087208D01*
X162440534Y-123073213D01*
X162543547Y-123061927D01*
X162646758Y-123048047D01*
X162688123Y-123038550D01*
X162661714Y-123032464D01*
X162561604Y-123028814D01*
X162381862Y-123026628D01*
X162326082Y-123026212D01*
X162122506Y-123028142D01*
X161944654Y-123035964D01*
X161814587Y-123048351D01*
X161760671Y-123060253D01*
X161751611Y-123078453D01*
X160836005Y-123078453D01*
X160839957Y-122787300D01*
X160846299Y-122276636D01*
X160847437Y-122179517D01*
X160862195Y-120907229D01*
X161521458Y-120907229D01*
X161521458Y-122668815D01*
X162521801Y-122668815D01*
X162806322Y-122668028D01*
X163059372Y-122665822D01*
X163268809Y-122662426D01*
X163422492Y-122658071D01*
X163508279Y-122652987D01*
X163522143Y-122649839D01*
X163509639Y-122608388D01*
X163471265Y-122505209D01*
X163405731Y-122337047D01*
X163311746Y-122100648D01*
X163188019Y-121792761D01*
X163033260Y-121410130D01*
X162899773Y-121081315D01*
X162680089Y-120542739D01*
X162490697Y-120082624D01*
X162484319Y-120067328D01*
X163050954Y-120067328D01*
X163051080Y-120095314D01*
X163082652Y-120192642D01*
X163144538Y-120355860D01*
X163235605Y-120581513D01*
X163354721Y-120866148D01*
X163365096Y-120890582D01*
X163472618Y-121143727D01*
X163605148Y-121456010D01*
X163753794Y-121806464D01*
X163909664Y-122174118D01*
X164063865Y-122538003D01*
X164174537Y-122799294D01*
X164380220Y-123282969D01*
X164565924Y-123715514D01*
X164729805Y-124092796D01*
X164870019Y-124410678D01*
X164984721Y-124665026D01*
X165072070Y-124851704D01*
X165130219Y-124966579D01*
X165157325Y-125005515D01*
X165158205Y-125005128D01*
X165146330Y-124962499D01*
X165104448Y-124851850D01*
X165037307Y-124684903D01*
X164949657Y-124473379D01*
X164846245Y-124228999D01*
X164800738Y-124122829D01*
X164689308Y-123862342D01*
X164552292Y-123539714D01*
X164397377Y-123173176D01*
X164232246Y-122780961D01*
X164064584Y-122381300D01*
X163902075Y-121992425D01*
X163839597Y-121842445D01*
X163698125Y-121503867D01*
X163562994Y-121183066D01*
X163438847Y-120890874D01*
X163330329Y-120638118D01*
X163242082Y-120435630D01*
X163178751Y-120294238D01*
X163149567Y-120233199D01*
X163083405Y-120112138D01*
X163050954Y-120067328D01*
X162484319Y-120067328D01*
X162330453Y-119698325D01*
X162198212Y-119387194D01*
X162092832Y-119146586D01*
X162013167Y-118973854D01*
X161958074Y-118866352D01*
X161926410Y-118821433D01*
X161922119Y-118819671D01*
X161870200Y-118846762D01*
X161778454Y-118916573D01*
X161701865Y-118982657D01*
X161521458Y-119145643D01*
X161521458Y-120907229D01*
X160862195Y-120907229D01*
X160880609Y-119319842D01*
X160744356Y-119319842D01*
X160608102Y-119319842D01*
X160288233Y-119319842D01*
X160288008Y-119301195D01*
X160284521Y-119145643D01*
X160284417Y-119141006D01*
X160280012Y-119054553D01*
X160278090Y-119042882D01*
X160223911Y-118981237D01*
X160149032Y-118935228D01*
X160069731Y-118876893D01*
X160042691Y-118820604D01*
X160006947Y-118765325D01*
X159963614Y-118754431D01*
X159915718Y-118777713D01*
X159859020Y-118854375D01*
X159787333Y-118994643D01*
X159707072Y-119178490D01*
X159648231Y-119318352D01*
X159560537Y-119525796D01*
X159449264Y-119788391D01*
X159319688Y-120093707D01*
X159177084Y-120429314D01*
X159026726Y-120782781D01*
X158894540Y-121093210D01*
X158750815Y-121431693D01*
X158618478Y-121745525D01*
X158501299Y-122025600D01*
X158403048Y-122262811D01*
X158327494Y-122448053D01*
X158278409Y-122572220D01*
X158259562Y-122626205D01*
X158259472Y-122627145D01*
X157563338Y-122627145D01*
X157664807Y-122388694D01*
X157921364Y-121784057D01*
X158147268Y-121249625D01*
X158343839Y-120782200D01*
X158512395Y-120378581D01*
X158654257Y-120035568D01*
X158770743Y-119749963D01*
X158863172Y-119518566D01*
X158932864Y-119338177D01*
X158981139Y-119205596D01*
X159009314Y-119117624D01*
X159018711Y-119071062D01*
X159016764Y-119062294D01*
X159000878Y-119053066D01*
X158981667Y-119060723D01*
X158955864Y-119092338D01*
X158920201Y-119154985D01*
X158871411Y-119255737D01*
X158806227Y-119401667D01*
X158721382Y-119599849D01*
X158613607Y-119857356D01*
X158479636Y-120181262D01*
X158316201Y-120578639D01*
X158315172Y-120581144D01*
X158255881Y-120724568D01*
X158169451Y-120932360D01*
X158062484Y-121188711D01*
X157941584Y-121477812D01*
X157813351Y-121783854D01*
X157715542Y-122016887D01*
X157550936Y-122410074D01*
X157384041Y-122811163D01*
X157218445Y-123211337D01*
X157057734Y-123601782D01*
X156905496Y-123973681D01*
X156765317Y-124318219D01*
X156640783Y-124626580D01*
X156535482Y-124889948D01*
X156453001Y-125099508D01*
X156396925Y-125246444D01*
X156370854Y-125321897D01*
X156358269Y-125375669D01*
X155914275Y-125375669D01*
X156018020Y-125132324D01*
X156374485Y-124296249D01*
X156698443Y-123536432D01*
X156991445Y-122849088D01*
X157255040Y-122230431D01*
X157490779Y-121676677D01*
X157700212Y-121184042D01*
X157884890Y-120748739D01*
X158046361Y-120366985D01*
X158186177Y-120034995D01*
X158305888Y-119748984D01*
X158407044Y-119505167D01*
X158491195Y-119299760D01*
X158559892Y-119128977D01*
X158614684Y-118989033D01*
X158657122Y-118876145D01*
X158688756Y-118786527D01*
X158711136Y-118716395D01*
X158725812Y-118661963D01*
X158733432Y-118623952D01*
X160347143Y-118623952D01*
X160564609Y-118623952D01*
X160782075Y-118623952D01*
X160782075Y-118449979D01*
X160787227Y-118338427D01*
X160815149Y-118288837D01*
X160884536Y-118276281D01*
X160912554Y-118276007D01*
X161000218Y-118267521D01*
X161036175Y-118224478D01*
X161043034Y-118123781D01*
X161038036Y-118049452D01*
X161545131Y-118049452D01*
X161555481Y-118144212D01*
X161555638Y-118145280D01*
X161590199Y-118242895D01*
X161642491Y-118273527D01*
X161692303Y-118231375D01*
X161708033Y-118189020D01*
X161745108Y-118128972D01*
X161830226Y-118104143D01*
X161897952Y-118101368D01*
X162052896Y-118092432D01*
X162124701Y-118071744D01*
X162115205Y-118046134D01*
X162026249Y-118022427D01*
X161872803Y-118008026D01*
X161717998Y-118002214D01*
X161602277Y-118000539D01*
X161548174Y-118003287D01*
X161546892Y-118003927D01*
X161545131Y-118049452D01*
X161038036Y-118049452D01*
X161036170Y-118021707D01*
X160998538Y-117979843D01*
X160904578Y-117971565D01*
X160896878Y-117971555D01*
X160759359Y-117965330D01*
X160595455Y-117949809D01*
X160548933Y-117943896D01*
X160347143Y-117916238D01*
X160347143Y-118270095D01*
X160347143Y-118623952D01*
X158733432Y-118623952D01*
X158734335Y-118619447D01*
X158738255Y-118585062D01*
X158739122Y-118555023D01*
X158738486Y-118525545D01*
X158737898Y-118492845D01*
X158737897Y-118491785D01*
X158757266Y-118271241D01*
X159520774Y-118271241D01*
X159727366Y-118287531D01*
X159854875Y-118298669D01*
X159943133Y-118308379D01*
X159962553Y-118311660D01*
X159980595Y-118276877D01*
X159981748Y-118270095D01*
X159997260Y-118178893D01*
X160006046Y-118080228D01*
X160011190Y-117947593D01*
X159994954Y-117871681D01*
X159940592Y-117841515D01*
X159831360Y-117846115D01*
X159683873Y-117868991D01*
X159582007Y-117891000D01*
X159534906Y-117930487D01*
X159521466Y-118015220D01*
X159520774Y-118083595D01*
X159520774Y-118271241D01*
X158757266Y-118271241D01*
X158763121Y-118204574D01*
X158804781Y-118083595D01*
X158840960Y-117978530D01*
X158941414Y-117836733D01*
X158998152Y-117766485D01*
X159025775Y-117694557D01*
X159029910Y-117592091D01*
X159017730Y-117445294D01*
X159017648Y-117442968D01*
X159393541Y-117442968D01*
X159408157Y-117468734D01*
X159449780Y-117483697D01*
X159528092Y-117488311D01*
X159652774Y-117483029D01*
X159833510Y-117468305D01*
X160079980Y-117444593D01*
X160401866Y-117412344D01*
X160459817Y-117406542D01*
X160858248Y-117365909D01*
X161234812Y-117325990D01*
X161580279Y-117287880D01*
X161885419Y-117252672D01*
X162140999Y-117221461D01*
X162337789Y-117195339D01*
X162466559Y-117175401D01*
X162518077Y-117162741D01*
X162518176Y-117162649D01*
X162480587Y-117158628D01*
X162365610Y-117154934D01*
X162182844Y-117151676D01*
X161941889Y-117148962D01*
X161652343Y-117146903D01*
X161323804Y-117145608D01*
X160985043Y-117145185D01*
X160625069Y-117146213D01*
X160295217Y-117149138D01*
X160005095Y-117153727D01*
X159764312Y-117159742D01*
X159582476Y-117166949D01*
X159469196Y-117175110D01*
X159433787Y-117183241D01*
X159425885Y-117249514D01*
X159406855Y-117355957D01*
X159406604Y-117357214D01*
X159396251Y-117405946D01*
X159393541Y-117442968D01*
X159017648Y-117442968D01*
X159010047Y-117228135D01*
X159029805Y-117034969D01*
X159072998Y-116884152D01*
X159135623Y-116794045D01*
X159162925Y-116779765D01*
X159238400Y-116762829D01*
X159368085Y-116738628D01*
X159522611Y-116712079D01*
X159672611Y-116688097D01*
X159788715Y-116671598D01*
X159836099Y-116667089D01*
X159852461Y-116627168D01*
X159864222Y-116522722D01*
X159864732Y-116506679D01*
X160358699Y-116506679D01*
X160363338Y-116611726D01*
X160400809Y-116659731D01*
X160485068Y-116665598D01*
X160630073Y-116644229D01*
X160662469Y-116638844D01*
X160825568Y-116611886D01*
X160825568Y-116317649D01*
X160825568Y-116023412D01*
X161227880Y-115978142D01*
X161383910Y-115960371D01*
X161477267Y-115948526D01*
X161503476Y-115942058D01*
X161458063Y-115940417D01*
X161336553Y-115943057D01*
X161134474Y-115949429D01*
X161023669Y-115953114D01*
X160804554Y-115961060D01*
X160619586Y-115968974D01*
X160484603Y-115976085D01*
X160415441Y-115981621D01*
X160409750Y-115982986D01*
X160402759Y-116027649D01*
X160390874Y-116137391D01*
X160376390Y-116290603D01*
X160372935Y-116329688D01*
X160358699Y-116506679D01*
X159864732Y-116506679D01*
X159868878Y-116376188D01*
X159868881Y-116373181D01*
X159895734Y-116102610D01*
X159975761Y-115899895D01*
X160108676Y-115765716D01*
X160132885Y-115751688D01*
X160184298Y-115718939D01*
X160182644Y-115690788D01*
X160117689Y-115652709D01*
X160037352Y-115616053D01*
X159885955Y-115530480D01*
X159732754Y-115416802D01*
X159685869Y-115374455D01*
X159545239Y-115264251D01*
X159412377Y-115206553D01*
X159391585Y-115203151D01*
X159253931Y-115174913D01*
X159116292Y-115129193D01*
X159069356Y-115111843D01*
X159021528Y-115104123D01*
X158962185Y-115109812D01*
X158880708Y-115132692D01*
X158766475Y-115176544D01*
X158608866Y-115245147D01*
X158397259Y-115342284D01*
X158121034Y-115471734D01*
X158018795Y-115519877D01*
X157746986Y-115645843D01*
X157496172Y-115758160D01*
X157278636Y-115851642D01*
X157106664Y-115921097D01*
X156992540Y-115961338D01*
X156954678Y-115969372D01*
X156856030Y-115952718D01*
X156713786Y-115910249D01*
X156598335Y-115866966D01*
X156350725Y-115765127D01*
X156163403Y-115849717D01*
X156054263Y-115897260D01*
X155885336Y-115968766D01*
X155677444Y-116055507D01*
X155451411Y-116148756D01*
X155388924Y-116174345D01*
X155178561Y-116261385D01*
X154997254Y-116338368D01*
X154860159Y-116398708D01*
X154782431Y-116435818D01*
X154771276Y-116442757D01*
X154766600Y-116495719D01*
X154782689Y-116608858D01*
X154816092Y-116758801D01*
X154820413Y-116775538D01*
X154868284Y-116989574D01*
X154910101Y-117229758D01*
X154931509Y-117396049D01*
X154940103Y-117625598D01*
X154908959Y-117789273D01*
X154832483Y-117901203D01*
X154705083Y-117975520D01*
X154701632Y-117976852D01*
X154623769Y-118003685D01*
X154469249Y-118054212D01*
X154244513Y-118126407D01*
X153956003Y-118218244D01*
X153610157Y-118327695D01*
X153213416Y-118452734D01*
X152772222Y-118591335D01*
X152293014Y-118741471D01*
X151782232Y-118901116D01*
X151246318Y-119068242D01*
X150691711Y-119240824D01*
X150159889Y-119405967D01*
X149800685Y-119514776D01*
X149512922Y-119591400D01*
X149285804Y-119632003D01*
X149108536Y-119632749D01*
X148970321Y-119589800D01*
X148860364Y-119499321D01*
X148767869Y-119357475D01*
X148708007Y-119220042D01*
X149212897Y-119220042D01*
X149249749Y-119230133D01*
X149343381Y-119216694D01*
X149468410Y-119184750D01*
X149577747Y-119147818D01*
X149657301Y-119107990D01*
X149679595Y-119076407D01*
X149678424Y-119074982D01*
X149628506Y-119074236D01*
X149528731Y-119096172D01*
X149408617Y-119131589D01*
X149297683Y-119171292D01*
X149225445Y-119206082D01*
X149212897Y-119220042D01*
X148708007Y-119220042D01*
X148682039Y-119160425D01*
X148592079Y-118904336D01*
X148571230Y-118841418D01*
X148464937Y-118510738D01*
X148350931Y-118141343D01*
X148232662Y-117745691D01*
X148113580Y-117336237D01*
X147997136Y-116925439D01*
X147886779Y-116525755D01*
X147785961Y-116149640D01*
X147698130Y-115809552D01*
X147683612Y-115750252D01*
X149134817Y-115750252D01*
X149137728Y-115764277D01*
X149155363Y-115830996D01*
X149195452Y-115975152D01*
X149256250Y-116190629D01*
X149336011Y-116471313D01*
X149432989Y-116811086D01*
X149545438Y-117203835D01*
X149671613Y-117643443D01*
X149809767Y-118123796D01*
X149958155Y-118638778D01*
X149975832Y-118700065D01*
X150032350Y-118852225D01*
X150089890Y-118923431D01*
X150109177Y-118928404D01*
X150152836Y-118909550D01*
X150157276Y-118839172D01*
X150148389Y-118787051D01*
X150128715Y-118702672D01*
X150125975Y-118691757D01*
X150481968Y-118691757D01*
X150487056Y-118749650D01*
X150503194Y-118768929D01*
X150525795Y-118785399D01*
X150560500Y-118792178D01*
X150619049Y-118786712D01*
X150713183Y-118766447D01*
X150854640Y-118728828D01*
X151055162Y-118671301D01*
X151326489Y-118591312D01*
X151345669Y-118585626D01*
X151632774Y-118498898D01*
X151938551Y-118403831D01*
X152233025Y-118309911D01*
X152486222Y-118226626D01*
X152571529Y-118197622D01*
X152806809Y-118118305D01*
X153092744Y-118024607D01*
X153396660Y-117927093D01*
X153685881Y-117836332D01*
X153745845Y-117817844D01*
X153974800Y-117745628D01*
X154175255Y-117678818D01*
X154331979Y-117622773D01*
X154429738Y-117582850D01*
X154453821Y-117568796D01*
X154468205Y-117539165D01*
X154431859Y-117546514D01*
X154375111Y-117563818D01*
X154245464Y-117602054D01*
X154053616Y-117658107D01*
X153810264Y-117728863D01*
X153526105Y-117811208D01*
X153211838Y-117902029D01*
X153061824Y-117945302D01*
X152705946Y-118048237D01*
X152347247Y-118152607D01*
X152002449Y-118253501D01*
X151688273Y-118346008D01*
X151421442Y-118425219D01*
X151218677Y-118486223D01*
X151191835Y-118494413D01*
X150977754Y-118558269D01*
X150789026Y-118611495D01*
X150643512Y-118649272D01*
X150559072Y-118666783D01*
X150550311Y-118667438D01*
X150481968Y-118691757D01*
X150125975Y-118691757D01*
X150090268Y-118549489D01*
X150036968Y-118342673D01*
X149972730Y-118097397D01*
X149901473Y-117828831D01*
X149887306Y-117775836D01*
X149805685Y-117470038D01*
X149759821Y-117297411D01*
X150822143Y-117297411D01*
X150856958Y-117355073D01*
X150887383Y-117362651D01*
X150945045Y-117327836D01*
X150952623Y-117297411D01*
X150917808Y-117239749D01*
X150887383Y-117232171D01*
X150829721Y-117266986D01*
X150822143Y-117297411D01*
X149759821Y-117297411D01*
X149721221Y-117152128D01*
X149640397Y-116846608D01*
X149569696Y-116577983D01*
X149526438Y-116412339D01*
X150169746Y-116412339D01*
X150204526Y-116533888D01*
X150295259Y-116604130D01*
X150421530Y-116613411D01*
X150520551Y-116578244D01*
X150588584Y-116502361D01*
X150596668Y-116400077D01*
X150554763Y-116296755D01*
X150472830Y-116217756D01*
X150367423Y-116188336D01*
X150246756Y-116223106D01*
X150180839Y-116323464D01*
X150169746Y-116412339D01*
X149526438Y-116412339D01*
X149519052Y-116384055D01*
X149449974Y-116121706D01*
X149396448Y-115932164D01*
X149353414Y-115803727D01*
X149315810Y-115724691D01*
X149278579Y-115683355D01*
X149236659Y-115668015D01*
X149208759Y-115666418D01*
X149141125Y-115683496D01*
X149134817Y-115750252D01*
X147683612Y-115750252D01*
X147656080Y-115637796D01*
X151350481Y-115637796D01*
X151403139Y-115977901D01*
X151528843Y-116325357D01*
X151686061Y-116608793D01*
X151885357Y-116867568D01*
X152099963Y-117044801D01*
X152339160Y-117145728D01*
X152612227Y-117175584D01*
X152685488Y-117172649D01*
X152836442Y-117156530D01*
X152953608Y-117132659D01*
X153006070Y-117109820D01*
X153005957Y-117087044D01*
X152928504Y-117093686D01*
X152867329Y-117106308D01*
X152608574Y-117126305D01*
X152375996Y-117063611D01*
X152252635Y-116989431D01*
X152112308Y-116885900D01*
X152282722Y-116815280D01*
X152434495Y-116752405D01*
X152583309Y-116690784D01*
X152601167Y-116683393D01*
X152691356Y-116638870D01*
X152729120Y-116605406D01*
X152727652Y-116600580D01*
X152680274Y-116605855D01*
X152573783Y-116639088D01*
X152428861Y-116693605D01*
X152388503Y-116710003D01*
X152210159Y-116778587D01*
X152089833Y-116805412D01*
X152007390Y-116786911D01*
X151942694Y-116719516D01*
X151886590Y-116621071D01*
X151825950Y-116503806D01*
X152139543Y-116406360D01*
X152339526Y-116339894D01*
X152460013Y-116288417D01*
X152506549Y-116248613D01*
X152484676Y-116217164D01*
X152468040Y-116209783D01*
X152393682Y-116212069D01*
X152273535Y-116244939D01*
X152188935Y-116277777D01*
X152004118Y-116357782D01*
X151883126Y-116405310D01*
X151809267Y-116420804D01*
X151765850Y-116404708D01*
X151736184Y-116357465D01*
X151708227Y-116290553D01*
X151671222Y-116175269D01*
X151688648Y-116103960D01*
X151772685Y-116056475D01*
X151865979Y-116029553D01*
X151979042Y-115991518D01*
X152104363Y-115936085D01*
X152215837Y-115876639D01*
X152287358Y-115826567D01*
X152300244Y-115806886D01*
X152278893Y-115745611D01*
X152262768Y-115717079D01*
X152202090Y-115685765D01*
X152083905Y-115699508D01*
X151902322Y-115759459D01*
X151772323Y-115812964D01*
X151668434Y-115853565D01*
X151616367Y-115855882D01*
X151589900Y-115820047D01*
X151587477Y-115813914D01*
X151561412Y-115692494D01*
X151581450Y-115606998D01*
X151633443Y-115579431D01*
X151710289Y-115561593D01*
X151833803Y-115515518D01*
X151937895Y-115469424D01*
X152067996Y-115404292D01*
X152137485Y-115351283D01*
X152165313Y-115287356D01*
X152170430Y-115189472D01*
X152170431Y-115186719D01*
X152168383Y-115143480D01*
X152612709Y-115143480D01*
X152617785Y-115205126D01*
X152693969Y-115553272D01*
X152841100Y-115878122D01*
X153048599Y-116163517D01*
X153305885Y-116393302D01*
X153456394Y-116485743D01*
X153569064Y-116539690D01*
X153651196Y-116569657D01*
X153688482Y-116572645D01*
X153666610Y-116545658D01*
X153633521Y-116522850D01*
X153330187Y-116300587D01*
X153103771Y-116065797D01*
X152944242Y-115803529D01*
X152841565Y-115498833D01*
X152802363Y-115284295D01*
X152796886Y-115010624D01*
X152807459Y-114959558D01*
X153257132Y-114959558D01*
X153276174Y-115179100D01*
X153325576Y-115405203D01*
X153399868Y-115602871D01*
X153403383Y-115609895D01*
X153484734Y-115739728D01*
X153594926Y-115876770D01*
X153715539Y-116002227D01*
X153828155Y-116097304D01*
X153914353Y-116143208D01*
X153927663Y-116144842D01*
X153931123Y-116124614D01*
X153877000Y-116077597D01*
X153801337Y-116002756D01*
X153713881Y-115886471D01*
X153632962Y-115757336D01*
X153576908Y-115643950D01*
X153562212Y-115586483D01*
X153592339Y-115538763D01*
X153607102Y-115535938D01*
X153674223Y-115520281D01*
X153781230Y-115481774D01*
X153801441Y-115473495D01*
X153950889Y-115411051D01*
X153865283Y-115162234D01*
X153816094Y-114975917D01*
X153785139Y-114775300D01*
X153779678Y-114676298D01*
X153777777Y-114540824D01*
X153765013Y-114473512D01*
X153730789Y-114455540D01*
X153664510Y-114468085D01*
X153662724Y-114468533D01*
X153502120Y-114535043D01*
X153366466Y-114637610D01*
X153283051Y-114754265D01*
X153273921Y-114781576D01*
X153257132Y-114959558D01*
X152807459Y-114959558D01*
X152850792Y-114750260D01*
X152957533Y-114529434D01*
X153006776Y-114465640D01*
X153047357Y-114414502D01*
X154179287Y-114414502D01*
X154187696Y-114646152D01*
X154234331Y-114890941D01*
X154311622Y-115109331D01*
X154385936Y-115245588D01*
X154482783Y-115388885D01*
X154586379Y-115519621D01*
X154680944Y-115618191D01*
X154750697Y-115664994D01*
X154760117Y-115666418D01*
X154757854Y-115639457D01*
X154707136Y-115573064D01*
X154693195Y-115557856D01*
X154629875Y-115481280D01*
X154608073Y-115435573D01*
X154609500Y-115432981D01*
X154655229Y-115411212D01*
X154764036Y-115365466D01*
X154917895Y-115303200D01*
X155040979Y-115254473D01*
X155277663Y-115160388D01*
X155443476Y-115090608D01*
X155549106Y-115039195D01*
X155605242Y-115000211D01*
X155622571Y-114967717D01*
X155612499Y-114936918D01*
X155575986Y-114923265D01*
X155494776Y-114940366D01*
X155359516Y-114991424D01*
X155160856Y-115079643D01*
X155064504Y-115124657D01*
X154815524Y-115237108D01*
X154638345Y-115305791D01*
X154534044Y-115330324D01*
X154507190Y-115323999D01*
X154479075Y-115275124D01*
X154498513Y-115223083D01*
X154573439Y-115162012D01*
X154711785Y-115086048D01*
X154921485Y-114989326D01*
X155014842Y-114948781D01*
X155239424Y-114848841D01*
X155390053Y-114772952D01*
X155474863Y-114716382D01*
X155501989Y-114674401D01*
X155500852Y-114666075D01*
X155479987Y-114594293D01*
X155443410Y-114464728D01*
X155398478Y-114303472D01*
X155391567Y-114278504D01*
X155347037Y-114123024D01*
X155309967Y-114003637D01*
X155287196Y-113942142D01*
X155284969Y-113938719D01*
X155241403Y-113949654D01*
X155137711Y-113993028D01*
X154991031Y-114061320D01*
X154872410Y-114119697D01*
X154702133Y-114203137D01*
X154559284Y-114269278D01*
X154462569Y-114309674D01*
X154432944Y-114318130D01*
X154386526Y-114301081D01*
X154403264Y-114262979D01*
X154469393Y-114223397D01*
X154508188Y-114211136D01*
X154599760Y-114176043D01*
X154740261Y-114107993D01*
X154904456Y-114019491D01*
X154964866Y-113984822D01*
X155131463Y-113883346D01*
X155233948Y-113808021D01*
X155286136Y-113746341D01*
X155301842Y-113685801D01*
X155301938Y-113679721D01*
X155301860Y-113631798D01*
X155300888Y-113628277D01*
X155715082Y-113628277D01*
X155732444Y-113867657D01*
X155769310Y-114100266D01*
X155817944Y-114282920D01*
X155930279Y-114555442D01*
X156072348Y-114809089D01*
X156230233Y-115022646D01*
X156390017Y-115174900D01*
X156414169Y-115191720D01*
X156587869Y-115305485D01*
X156703694Y-115379277D01*
X156776033Y-115421546D01*
X156819273Y-115440742D01*
X156845945Y-115445293D01*
X156843867Y-115423999D01*
X156795586Y-115379406D01*
X157193435Y-115379406D01*
X157245523Y-115364932D01*
X157356934Y-115319981D01*
X157533250Y-115242245D01*
X157780053Y-115129416D01*
X157889780Y-115078579D01*
X158076277Y-114992620D01*
X158258687Y-114909674D01*
X158403613Y-114844903D01*
X158428727Y-114833911D01*
X158535383Y-114782071D01*
X158594633Y-114742365D01*
X158599164Y-114730310D01*
X158555097Y-114740518D01*
X158448160Y-114781355D01*
X158293890Y-114845790D01*
X158107829Y-114926790D01*
X157905515Y-115017323D01*
X157702488Y-115110356D01*
X157514288Y-115198859D01*
X157356453Y-115275798D01*
X157244524Y-115334141D01*
X157195086Y-115365710D01*
X157193435Y-115379406D01*
X156795586Y-115379406D01*
X156785222Y-115369834D01*
X156758958Y-115349727D01*
X156649764Y-115259134D01*
X156531543Y-115146132D01*
X156422360Y-115030056D01*
X156340279Y-114930239D01*
X156303361Y-114866013D01*
X156302823Y-114861521D01*
X156340337Y-114831169D01*
X156445685Y-114770521D01*
X156607582Y-114685432D01*
X156814742Y-114581757D01*
X157055880Y-114465351D01*
X157172143Y-114410528D01*
X157424738Y-114290978D01*
X157648504Y-114182589D01*
X157832168Y-114091027D01*
X157964459Y-114021956D01*
X158034106Y-113981043D01*
X158042006Y-113973309D01*
X158019040Y-113917771D01*
X157985700Y-113866313D01*
X157962590Y-113843993D01*
X157927770Y-113835877D01*
X157871340Y-113845907D01*
X157783399Y-113878024D01*
X157654048Y-113936171D01*
X157473387Y-114024288D01*
X157231517Y-114146317D01*
X157050719Y-114238565D01*
X156761709Y-114385277D01*
X156540248Y-114494760D01*
X156377191Y-114570827D01*
X156263390Y-114617289D01*
X156189698Y-114637958D01*
X156146967Y-114636644D01*
X156129096Y-114622582D01*
X156087929Y-114532496D01*
X156116617Y-114493725D01*
X156134721Y-114492103D01*
X156187009Y-114473770D01*
X156305189Y-114422487D01*
X156477160Y-114343823D01*
X156690822Y-114243348D01*
X156934076Y-114126631D01*
X157031503Y-114079301D01*
X157309915Y-113942979D01*
X157519098Y-113838314D01*
X157668325Y-113759490D01*
X157766871Y-113700692D01*
X157824007Y-113656104D01*
X157849007Y-113619911D01*
X157851145Y-113586298D01*
X157846413Y-113568256D01*
X157790680Y-113385402D01*
X157734029Y-113180260D01*
X157682083Y-112975615D01*
X157640462Y-112794247D01*
X157614789Y-112658940D01*
X157609329Y-112607399D01*
X157597288Y-112524095D01*
X157572128Y-112498667D01*
X157524409Y-112522032D01*
X157411402Y-112578876D01*
X157245253Y-112663043D01*
X157038106Y-112768377D01*
X156802107Y-112888723D01*
X156745280Y-112917747D01*
X156503919Y-113038433D01*
X156287332Y-113141757D01*
X156107844Y-113222244D01*
X155977779Y-113274417D01*
X155909463Y-113292803D01*
X155903716Y-113291637D01*
X155925778Y-113263909D01*
X156016472Y-113203439D01*
X156166287Y-113115703D01*
X156365713Y-113006177D01*
X156605240Y-112880336D01*
X156719691Y-112821814D01*
X157001945Y-112677906D01*
X157215742Y-112566439D01*
X157370609Y-112481323D01*
X157447712Y-112433907D01*
X158012438Y-112433907D01*
X158067979Y-112901131D01*
X158195029Y-113355983D01*
X158390879Y-113782675D01*
X158558870Y-114044436D01*
X158640158Y-114140348D01*
X158753918Y-114255591D01*
X158881535Y-114373625D01*
X159004397Y-114477909D01*
X159103889Y-114551902D01*
X159160527Y-114579089D01*
X159155846Y-114569613D01*
X159740694Y-114569613D01*
X159769159Y-114812576D01*
X159866557Y-115007778D01*
X160040157Y-115168813D01*
X160072836Y-115190616D01*
X160210455Y-115270357D01*
X160324314Y-115306524D01*
X160457950Y-115310664D01*
X160512046Y-115307106D01*
X160693697Y-115275370D01*
X160836687Y-115217189D01*
X160857304Y-115203324D01*
X161029778Y-115038086D01*
X161127993Y-114846518D01*
X161161755Y-114657006D01*
X161140457Y-114402168D01*
X161044737Y-114171784D01*
X160886525Y-113979816D01*
X160677748Y-113840228D01*
X160430338Y-113766983D01*
X160398191Y-113763273D01*
X160271712Y-113755359D01*
X160186827Y-113771478D01*
X160110043Y-113825751D01*
X160014567Y-113924994D01*
X159856344Y-114131188D01*
X159768971Y-114338027D01*
X159740694Y-114569613D01*
X159155846Y-114569613D01*
X159146354Y-114550398D01*
X159086019Y-114475756D01*
X159007485Y-114387694D01*
X158816693Y-114141954D01*
X158674812Y-113879877D01*
X158632001Y-113764182D01*
X158627662Y-113735596D01*
X158631334Y-113723589D01*
X161275132Y-113723589D01*
X161288527Y-113764035D01*
X161332829Y-113862344D01*
X161399159Y-113999023D01*
X161415158Y-114030979D01*
X161500962Y-114218140D01*
X161547208Y-114371789D01*
X161564088Y-114529770D01*
X161564952Y-114587185D01*
X161557570Y-114742410D01*
X161538524Y-114871920D01*
X161519928Y-114929893D01*
X161498708Y-114995269D01*
X161511873Y-115014020D01*
X161552002Y-114978467D01*
X161607208Y-114889677D01*
X161625095Y-114854114D01*
X161701514Y-114626100D01*
X162454486Y-114626100D01*
X162457375Y-114777870D01*
X162466883Y-114881219D01*
X162481174Y-114919528D01*
X162486439Y-114915366D01*
X162504599Y-114845621D01*
X162517204Y-114718933D01*
X162521135Y-114592529D01*
X162516613Y-114448432D01*
X162504178Y-114343173D01*
X162489181Y-114303263D01*
X162473779Y-114333508D01*
X162461732Y-114431577D01*
X162455097Y-114578316D01*
X162454486Y-114626100D01*
X161701514Y-114626100D01*
X161712359Y-114593743D01*
X161725014Y-114344349D01*
X161662376Y-114121282D01*
X161658227Y-114112991D01*
X161596171Y-114016959D01*
X161508813Y-113910882D01*
X161482029Y-113883199D01*
X162347828Y-113883199D01*
X162363742Y-113918998D01*
X162376824Y-113912194D01*
X162382029Y-113860578D01*
X162376824Y-113854203D01*
X162350967Y-113860173D01*
X162347828Y-113883199D01*
X161482029Y-113883199D01*
X161414698Y-113813608D01*
X161332369Y-113743987D01*
X161280369Y-113720867D01*
X161275132Y-113723589D01*
X158631334Y-113723589D01*
X158636810Y-113705680D01*
X158665744Y-113671030D01*
X158718685Y-113629855D01*
X162826253Y-113629855D01*
X162861225Y-113631111D01*
X162952755Y-113598357D01*
X163076339Y-113540964D01*
X163170339Y-113494554D01*
X163332815Y-113415412D01*
X163553776Y-113308361D01*
X163823236Y-113178223D01*
X164131205Y-113029820D01*
X164467697Y-112867973D01*
X164822722Y-112697506D01*
X164935671Y-112643334D01*
X165483763Y-112379909D01*
X165986511Y-112137022D01*
X166439983Y-111916621D01*
X166840249Y-111720655D01*
X167183376Y-111551072D01*
X167465433Y-111409821D01*
X167682488Y-111298850D01*
X167830609Y-111220107D01*
X167905865Y-111175542D01*
X167914952Y-111166840D01*
X167893770Y-111163694D01*
X167826555Y-111186249D01*
X167707805Y-111237035D01*
X167532016Y-111318579D01*
X167293685Y-111433411D01*
X166987309Y-111584060D01*
X166741940Y-111705938D01*
X166499072Y-111826032D01*
X166193553Y-111975682D01*
X165841323Y-112147161D01*
X165458324Y-112332743D01*
X165060494Y-112524699D01*
X164663775Y-112715302D01*
X164359387Y-112860914D01*
X164020807Y-113023447D01*
X163708143Y-113175311D01*
X163429829Y-113312274D01*
X163194301Y-113430107D01*
X163009991Y-113524580D01*
X162885335Y-113591462D01*
X162828768Y-113626523D01*
X162826253Y-113629855D01*
X158718685Y-113629855D01*
X158720762Y-113628240D01*
X158808166Y-113573907D01*
X158934253Y-113504625D01*
X159105323Y-113416991D01*
X159327674Y-113307599D01*
X159497730Y-113225859D01*
X161951520Y-113225859D01*
X161976610Y-113230801D01*
X162020491Y-113212777D01*
X162129348Y-113162845D01*
X162289971Y-113087213D01*
X162489146Y-112992090D01*
X162661628Y-112908909D01*
X162983019Y-112753497D01*
X163346084Y-112578288D01*
X163741409Y-112387798D01*
X164159579Y-112186543D01*
X164591182Y-111979039D01*
X165026803Y-111769801D01*
X165457029Y-111563346D01*
X165872445Y-111364189D01*
X166263638Y-111176847D01*
X166621195Y-111005835D01*
X166935701Y-110855668D01*
X167137687Y-110759466D01*
X169741664Y-110759466D01*
X169744624Y-110779580D01*
X169760882Y-110787303D01*
X169801500Y-110778342D01*
X169877544Y-110748399D01*
X170000077Y-110693179D01*
X170180163Y-110608386D01*
X170396357Y-110505261D01*
X170602998Y-110404708D01*
X170776812Y-110316677D01*
X170904938Y-110247962D01*
X170974515Y-110205357D01*
X170983008Y-110195318D01*
X170937553Y-110204042D01*
X170830582Y-110243520D01*
X170678681Y-110306214D01*
X170498437Y-110384586D01*
X170306438Y-110471097D01*
X170119270Y-110558209D01*
X169953521Y-110638385D01*
X169825777Y-110704085D01*
X169752627Y-110747771D01*
X169741664Y-110759466D01*
X167137687Y-110759466D01*
X167197742Y-110730863D01*
X167397905Y-110635936D01*
X167501767Y-110587061D01*
X167722997Y-110483596D01*
X167876913Y-110410953D01*
X167974902Y-110362904D01*
X168028352Y-110333222D01*
X168048649Y-110315679D01*
X168047182Y-110304049D01*
X168037348Y-110294180D01*
X167992193Y-110303753D01*
X167883439Y-110345418D01*
X167725646Y-110413087D01*
X167533375Y-110500674D01*
X167453815Y-110538143D01*
X167206457Y-110655437D01*
X166912061Y-110794662D01*
X166602355Y-110940832D01*
X166309068Y-111078964D01*
X166218719Y-111121440D01*
X165946456Y-111249861D01*
X165625884Y-111401855D01*
X165287013Y-111563147D01*
X164959853Y-111719461D01*
X164761698Y-111814516D01*
X164485979Y-111947044D01*
X164156190Y-112105545D01*
X163796670Y-112278325D01*
X163431754Y-112453688D01*
X163085779Y-112619937D01*
X162967606Y-112676720D01*
X162624942Y-112842775D01*
X162357379Y-112975789D01*
X162160585Y-113078184D01*
X162030230Y-113152379D01*
X161961986Y-113200798D01*
X161951520Y-113225859D01*
X159497730Y-113225859D01*
X159607607Y-113173045D01*
X159951421Y-113009925D01*
X160365414Y-112814833D01*
X160542863Y-112731410D01*
X160846396Y-112588213D01*
X161205835Y-112417738D01*
X161598813Y-112230650D01*
X162002960Y-112037613D01*
X162395908Y-111849293D01*
X162717520Y-111694570D01*
X163404120Y-111363386D01*
X164050464Y-111051353D01*
X164653133Y-110760130D01*
X165208712Y-110491376D01*
X165713783Y-110246751D01*
X166164929Y-110027914D01*
X166510259Y-109860082D01*
X167740979Y-109860082D01*
X167762726Y-109881829D01*
X167784472Y-109860082D01*
X167762726Y-109838336D01*
X167740979Y-109860082D01*
X166510259Y-109860082D01*
X166558732Y-109836524D01*
X166891776Y-109674241D01*
X167160644Y-109542724D01*
X167361918Y-109443632D01*
X167492182Y-109378624D01*
X167548017Y-109349360D01*
X167549833Y-109348088D01*
X167548431Y-109298583D01*
X167516949Y-109210647D01*
X167458452Y-109126383D01*
X167382196Y-109114262D01*
X167373669Y-109116214D01*
X167321141Y-109138725D01*
X167196889Y-109196913D01*
X167007095Y-109287765D01*
X166757939Y-109408262D01*
X166455603Y-109555388D01*
X166106270Y-109726129D01*
X165716120Y-109917466D01*
X165291335Y-110126384D01*
X164838098Y-110349867D01*
X164362588Y-110584898D01*
X164282975Y-110624303D01*
X163780307Y-110872935D01*
X163281019Y-111119490D01*
X162793511Y-111359843D01*
X162326187Y-111589869D01*
X161887447Y-111805444D01*
X161485693Y-112002444D01*
X161129328Y-112176742D01*
X160826754Y-112324215D01*
X160586372Y-112440737D01*
X160434130Y-112513838D01*
X160139257Y-112654624D01*
X159829747Y-112802942D01*
X159528897Y-112947591D01*
X159260005Y-113077371D01*
X159046365Y-113181079D01*
X159046080Y-113181218D01*
X158811880Y-113293157D01*
X158644118Y-113366734D01*
X158532647Y-113404841D01*
X158467324Y-113410371D01*
X158438003Y-113386215D01*
X158433445Y-113355858D01*
X158470945Y-113325476D01*
X158576298Y-113263469D01*
X158738788Y-113175536D01*
X158947693Y-113067373D01*
X159192297Y-112944678D01*
X159379421Y-112853003D01*
X160001052Y-112551164D01*
X160563000Y-112277912D01*
X161083963Y-112024112D01*
X161582639Y-111780629D01*
X162077725Y-111538329D01*
X162587921Y-111288076D01*
X163131923Y-111020735D01*
X163435157Y-110871545D01*
X163819603Y-110682106D01*
X164218358Y-110485193D01*
X164623847Y-110284578D01*
X165028497Y-110084036D01*
X165424734Y-109887340D01*
X165804985Y-109698263D01*
X166161675Y-109520578D01*
X166487233Y-109358060D01*
X166774083Y-109214482D01*
X167014652Y-109093617D01*
X167201367Y-108999239D01*
X167326653Y-108935120D01*
X167382938Y-108905035D01*
X167385195Y-108903490D01*
X167375988Y-108860387D01*
X167336429Y-108767903D01*
X167314205Y-108722602D01*
X167241503Y-108555789D01*
X167160784Y-108333521D01*
X167080604Y-108083770D01*
X167009515Y-107834512D01*
X166956071Y-107613720D01*
X166930871Y-107469011D01*
X166911722Y-107337898D01*
X166891812Y-107250631D01*
X166879709Y-107228746D01*
X166834355Y-107248583D01*
X166717153Y-107306341D01*
X166533209Y-107399395D01*
X166287634Y-107525121D01*
X165985537Y-107680891D01*
X165632025Y-107864082D01*
X165232208Y-108072067D01*
X164805191Y-108294905D01*
X164664391Y-108368176D01*
X164458377Y-108474954D01*
X164199294Y-108608968D01*
X163899285Y-108763944D01*
X163570494Y-108933607D01*
X163225063Y-109111686D01*
X162913239Y-109272292D01*
X162491694Y-109489396D01*
X162053817Y-109715067D01*
X161607766Y-109945091D01*
X161161700Y-110175251D01*
X160723775Y-110401332D01*
X160302151Y-110619118D01*
X159904986Y-110824392D01*
X159540437Y-111012939D01*
X159216664Y-111180544D01*
X158941824Y-111322989D01*
X158724076Y-111436060D01*
X158571577Y-111515540D01*
X158523889Y-111540554D01*
X158378719Y-111609800D01*
X158287020Y-111638559D01*
X158255894Y-111626226D01*
X158292440Y-111572197D01*
X158305554Y-111559148D01*
X158355496Y-111527966D01*
X158475307Y-111461138D01*
X158657428Y-111362662D01*
X158894300Y-111236535D01*
X159178366Y-111086757D01*
X159502067Y-110917323D01*
X159857845Y-110732234D01*
X160238140Y-110535486D01*
X160347143Y-110479286D01*
X161135475Y-110073065D01*
X161895186Y-109681430D01*
X162620443Y-109307393D01*
X163305411Y-108953967D01*
X163944256Y-108624164D01*
X164531144Y-108320996D01*
X165060240Y-108047475D01*
X165525710Y-107806614D01*
X165921721Y-107601425D01*
X166044746Y-107537601D01*
X166849369Y-107120014D01*
X166862970Y-106930529D01*
X166870985Y-106818869D01*
X167314327Y-106818869D01*
X167316932Y-106898354D01*
X167326941Y-107106375D01*
X167341379Y-107275401D01*
X167364950Y-107428615D01*
X167402362Y-107589199D01*
X167458319Y-107780335D01*
X167537527Y-108025206D01*
X167558524Y-108088539D01*
X167690379Y-108471126D01*
X167812068Y-108788212D01*
X167933171Y-109059010D01*
X168063270Y-109302734D01*
X168211946Y-109538598D01*
X168388779Y-109785815D01*
X168436204Y-109848617D01*
X168585592Y-110033594D01*
X168751074Y-110220105D01*
X168920030Y-110395875D01*
X169079840Y-110548631D01*
X169217880Y-110666099D01*
X169321532Y-110736005D01*
X169363170Y-110750086D01*
X169352024Y-110723107D01*
X169290913Y-110650292D01*
X169192353Y-110546322D01*
X169171806Y-110525636D01*
X169000148Y-110331193D01*
X168805767Y-110071521D01*
X168677803Y-109879626D01*
X169394338Y-109879626D01*
X169445874Y-109874598D01*
X169570409Y-109829711D01*
X169766104Y-109745576D01*
X169899641Y-109684538D01*
X170097888Y-109592326D01*
X170229527Y-109529178D01*
X170306729Y-109487274D01*
X170341662Y-109458791D01*
X170346498Y-109435906D01*
X170333405Y-109410798D01*
X170331153Y-109407177D01*
X170286371Y-109410814D01*
X170183987Y-109447359D01*
X170042665Y-109507883D01*
X169881068Y-109583458D01*
X169717861Y-109665155D01*
X169571707Y-109744047D01*
X169461268Y-109811205D01*
X169417640Y-109844187D01*
X169394338Y-109879626D01*
X168677803Y-109879626D01*
X168599208Y-109761764D01*
X168391019Y-109417068D01*
X168351226Y-109347242D01*
X168212564Y-109101547D01*
X168933621Y-108755224D01*
X169161928Y-108644400D01*
X169360474Y-108545789D01*
X169516970Y-108465679D01*
X169619127Y-108410358D01*
X169654678Y-108386282D01*
X169634675Y-108315266D01*
X169588884Y-108227152D01*
X169538633Y-108158686D01*
X169512959Y-108142103D01*
X169462074Y-108159766D01*
X169346106Y-108208772D01*
X169178548Y-108283147D01*
X168972892Y-108376916D01*
X168776297Y-108468301D01*
X168548834Y-108573929D01*
X168348024Y-108665296D01*
X168187325Y-108736432D01*
X168080191Y-108781366D01*
X168041171Y-108794500D01*
X168005422Y-108759662D01*
X168001938Y-108735373D01*
X168039406Y-108697831D01*
X168144204Y-108629860D01*
X168304920Y-108537998D01*
X168510142Y-108428783D01*
X168735273Y-108315235D01*
X169468608Y-107954223D01*
X169304586Y-107471879D01*
X169229190Y-107239325D01*
X169156787Y-106997185D01*
X169097304Y-106779584D01*
X169069364Y-106663336D01*
X169027763Y-106427210D01*
X168996272Y-106158389D01*
X168976104Y-105880516D01*
X168968477Y-105617232D01*
X168972403Y-105473053D01*
X169370783Y-105473053D01*
X169371435Y-105841833D01*
X169422299Y-106265923D01*
X169504979Y-106665192D01*
X169667031Y-107234985D01*
X169869642Y-107782969D01*
X170106237Y-108296388D01*
X170370237Y-108762490D01*
X170655067Y-109168521D01*
X170954147Y-109501727D01*
X170980809Y-109527025D01*
X171235540Y-109744630D01*
X171458151Y-109887678D01*
X171656543Y-109958843D01*
X171838616Y-109960801D01*
X172012271Y-109896228D01*
X172033816Y-109883589D01*
X172159895Y-109782711D01*
X172248161Y-109649001D01*
X172304895Y-109466809D01*
X172336381Y-109220485D01*
X172342695Y-109114180D01*
X172331854Y-108673064D01*
X172263351Y-108185100D01*
X172140945Y-107665036D01*
X171968398Y-107127616D01*
X171749470Y-106587589D01*
X171637661Y-106349365D01*
X171443074Y-105970517D01*
X171260751Y-105657305D01*
X171078764Y-105391808D01*
X170885185Y-105156108D01*
X170744092Y-105006971D01*
X170510090Y-104795272D01*
X170301758Y-104659790D01*
X170110496Y-104596791D01*
X169927704Y-104602541D01*
X169857983Y-104622217D01*
X169663941Y-104734163D01*
X169517651Y-104915658D01*
X169419726Y-105163141D01*
X169370783Y-105473053D01*
X168972403Y-105473053D01*
X168974605Y-105392179D01*
X168995647Y-105229241D01*
X169020612Y-105111876D01*
X169032043Y-105037379D01*
X169031282Y-105025100D01*
X168989923Y-105039007D01*
X168886320Y-105086665D01*
X168734850Y-105160645D01*
X168549889Y-105253517D01*
X168345816Y-105357852D01*
X168137007Y-105466222D01*
X167937840Y-105571197D01*
X167762691Y-105665347D01*
X167625937Y-105741244D01*
X167541956Y-105791459D01*
X167526203Y-105802824D01*
X167426606Y-105941431D01*
X167357739Y-106158830D01*
X167320136Y-106452237D01*
X167314327Y-106818869D01*
X166870985Y-106818869D01*
X166876571Y-106741043D01*
X166252077Y-107066787D01*
X166029155Y-107183093D01*
X165749767Y-107328900D01*
X165434549Y-107493437D01*
X165104136Y-107665932D01*
X164779165Y-107835614D01*
X164629230Y-107913912D01*
X164163570Y-108156952D01*
X163625801Y-108437362D01*
X163021042Y-108752477D01*
X162354410Y-109099630D01*
X161631022Y-109476157D01*
X160855995Y-109879393D01*
X160477623Y-110076199D01*
X160187346Y-110226647D01*
X159851322Y-110399964D01*
X159501428Y-110579758D01*
X159169540Y-110749639D01*
X158989171Y-110841588D01*
X158218356Y-111233737D01*
X158126717Y-111525506D01*
X158031115Y-111970102D01*
X158012438Y-112433907D01*
X157447712Y-112433907D01*
X157476074Y-112416465D01*
X157541667Y-112365773D01*
X157576913Y-112323155D01*
X157591343Y-112282521D01*
X157593596Y-112263079D01*
X157586946Y-112176509D01*
X157561336Y-112143472D01*
X157512178Y-112162415D01*
X157397568Y-112215392D01*
X157229399Y-112296631D01*
X157019563Y-112400359D01*
X156779950Y-112520800D01*
X156687975Y-112567503D01*
X156384207Y-112725613D01*
X156135101Y-112862448D01*
X155947253Y-112974135D01*
X155827258Y-113056805D01*
X155786120Y-113096873D01*
X155741310Y-113220149D01*
X155717834Y-113404863D01*
X155715082Y-113628277D01*
X155300888Y-113628277D01*
X155293740Y-113602376D01*
X155265746Y-113594823D01*
X155206047Y-113612511D01*
X155102811Y-113658810D01*
X154944209Y-113737089D01*
X154740302Y-113839705D01*
X154535202Y-113945199D01*
X154394709Y-114024982D01*
X154304380Y-114089643D01*
X154249771Y-114149772D01*
X154216438Y-114215957D01*
X154212540Y-114226611D01*
X154179287Y-114414502D01*
X153047357Y-114414502D01*
X153083764Y-114368623D01*
X153101648Y-114324937D01*
X153068401Y-114332529D01*
X152991994Y-114389347D01*
X152880398Y-114493335D01*
X152873908Y-114499867D01*
X152712954Y-114699634D01*
X152628754Y-114906281D01*
X152612709Y-115143480D01*
X152168383Y-115143480D01*
X152165292Y-115078198D01*
X152152467Y-115018202D01*
X152147444Y-115014020D01*
X152099871Y-115032212D01*
X151997081Y-115079935D01*
X151861200Y-115146912D01*
X151859374Y-115147834D01*
X151721889Y-115209980D01*
X151614368Y-115245215D01*
X151559694Y-115246074D01*
X151559301Y-115245694D01*
X151550820Y-115185179D01*
X151577045Y-115085921D01*
X151581350Y-115075432D01*
X151635498Y-114988825D01*
X151728382Y-114915012D01*
X151880789Y-114838376D01*
X151918596Y-114822035D01*
X152080922Y-114745713D01*
X152182715Y-114674992D01*
X152247152Y-114591824D01*
X152268205Y-114549828D01*
X152337606Y-114396711D01*
X152179409Y-114426389D01*
X151965996Y-114489635D01*
X151787825Y-114601301D01*
X151633493Y-114756992D01*
X151465387Y-115017801D01*
X151371141Y-115314582D01*
X151350481Y-115637796D01*
X147656080Y-115637796D01*
X147626738Y-115517947D01*
X147575234Y-115287284D01*
X147551265Y-115158822D01*
X147533434Y-115030824D01*
X147870545Y-115030824D01*
X147895958Y-115050161D01*
X147960789Y-115041316D01*
X148077297Y-115002087D01*
X148257737Y-114930266D01*
X148318316Y-114905288D01*
X148487286Y-114837833D01*
X148629327Y-114785702D01*
X148722908Y-114756597D01*
X148743814Y-114753062D01*
X148784159Y-114793463D01*
X148838252Y-114906600D01*
X148900623Y-115080371D01*
X148920736Y-115144500D01*
X148976858Y-115313994D01*
X149029349Y-115446516D01*
X149070483Y-115523712D01*
X149085497Y-115535938D01*
X149141558Y-115523544D01*
X149264237Y-115489508D01*
X149437258Y-115438552D01*
X149644345Y-115375400D01*
X149720181Y-115351814D01*
X150309266Y-115167689D01*
X150280941Y-114971249D01*
X150261756Y-114820377D01*
X150240893Y-114629471D01*
X150226291Y-114477318D01*
X150206118Y-114324847D01*
X150178493Y-114211225D01*
X150149248Y-114160368D01*
X150149012Y-114160274D01*
X150101172Y-114165615D01*
X149989670Y-114195230D01*
X149811757Y-114250029D01*
X149564687Y-114330920D01*
X149245715Y-114438812D01*
X148852092Y-114574613D01*
X148381073Y-114739231D01*
X148103821Y-114836814D01*
X147971460Y-114895734D01*
X147888357Y-114957279D01*
X147872293Y-114985510D01*
X147870545Y-115030824D01*
X147533434Y-115030824D01*
X147527658Y-114989362D01*
X147523289Y-114878924D01*
X147539700Y-114801361D01*
X147576314Y-114733742D01*
X147665528Y-114643740D01*
X147791808Y-114565081D01*
X147820033Y-114552701D01*
X147936855Y-114490464D01*
X147968148Y-114431015D01*
X147965897Y-114423145D01*
X147959056Y-114317421D01*
X148408712Y-114317421D01*
X148418161Y-114355244D01*
X148449200Y-114361623D01*
X148508847Y-114351537D01*
X148517006Y-114342443D01*
X148485136Y-114301846D01*
X148427789Y-114300942D01*
X148408712Y-114317421D01*
X147959056Y-114317421D01*
X147957465Y-114292825D01*
X148019391Y-114167129D01*
X148135711Y-114061401D01*
X148290459Y-113990984D01*
X148437027Y-113970347D01*
X148566681Y-113989230D01*
X148669191Y-114060219D01*
X148709549Y-114104821D01*
X148822838Y-114239458D01*
X148795671Y-113941722D01*
X148794654Y-113904391D01*
X149358892Y-113904391D01*
X149395020Y-113957208D01*
X149460303Y-113964504D01*
X149577931Y-113928448D01*
X149585497Y-113925586D01*
X149664946Y-113889631D01*
X149671408Y-113852134D01*
X149625081Y-113795106D01*
X149548136Y-113730350D01*
X149494187Y-113709226D01*
X149414527Y-113745583D01*
X149361092Y-113827102D01*
X149358892Y-113904391D01*
X148794654Y-113904391D01*
X148788908Y-113693549D01*
X148809748Y-113446294D01*
X148854132Y-113225298D01*
X148918002Y-113055905D01*
X148944328Y-113013336D01*
X149041659Y-112914550D01*
X149156556Y-112836482D01*
X149243387Y-112785095D01*
X149263842Y-112737527D01*
X149259144Y-112726748D01*
X150441878Y-112726748D01*
X150453328Y-112767980D01*
X150494242Y-112861588D01*
X150527154Y-112929674D01*
X150593180Y-113113299D01*
X150619098Y-113328752D01*
X150605680Y-113592797D01*
X150569040Y-113839705D01*
X150538580Y-114181404D01*
X150556969Y-114555813D01*
X150621421Y-114925641D01*
X150660856Y-115068387D01*
X150709540Y-115208053D01*
X150753992Y-115309285D01*
X150787439Y-115363082D01*
X150803112Y-115360447D01*
X150794238Y-115292380D01*
X150775614Y-115220900D01*
X150761181Y-115123859D01*
X150750617Y-114960582D01*
X150743954Y-114751734D01*
X150741224Y-114517981D01*
X150742459Y-114279989D01*
X150747692Y-114058423D01*
X150756955Y-113873948D01*
X150770278Y-113747230D01*
X150773305Y-113731231D01*
X150794536Y-113667079D01*
X150837450Y-113614468D01*
X150888412Y-113581503D01*
X152908804Y-113581503D01*
X153007169Y-113755505D01*
X153080913Y-113866328D01*
X153144873Y-113909257D01*
X153192520Y-113906947D01*
X153288196Y-113893113D01*
X153426857Y-113884800D01*
X153486099Y-113883792D01*
X153612982Y-113878075D01*
X153674631Y-113856041D01*
X153692470Y-113808929D01*
X153692691Y-113799309D01*
X153664198Y-113719791D01*
X153591849Y-113612916D01*
X153544473Y-113558262D01*
X153436439Y-113462721D01*
X153332166Y-113424971D01*
X153207686Y-113443280D01*
X153039031Y-113515915D01*
X153028915Y-113520989D01*
X152908804Y-113581503D01*
X150888412Y-113581503D01*
X150918133Y-113562278D01*
X151052672Y-113499388D01*
X151194009Y-113440383D01*
X151411849Y-113356731D01*
X151645552Y-113275583D01*
X151853720Y-113211099D01*
X151905847Y-113196901D01*
X152224837Y-113114045D01*
X151952323Y-112849033D01*
X151802374Y-112712714D01*
X151649511Y-112589253D01*
X151521923Y-112501089D01*
X151498872Y-112488034D01*
X151317935Y-112392047D01*
X150885193Y-112554132D01*
X150707035Y-112621442D01*
X150562401Y-112677183D01*
X150468599Y-112714617D01*
X150441878Y-112726748D01*
X149259144Y-112726748D01*
X149231235Y-112662719D01*
X149231119Y-112662509D01*
X149178399Y-112502374D01*
X149188353Y-112347355D01*
X149229274Y-112264001D01*
X149299290Y-112211573D01*
X149431140Y-112143746D01*
X149603007Y-112068979D01*
X149793072Y-111995730D01*
X149979520Y-111932460D01*
X150140533Y-111887627D01*
X150245311Y-111870054D01*
X150362171Y-111876006D01*
X150434248Y-111924447D01*
X150471182Y-111979998D01*
X150508171Y-112067563D01*
X150502267Y-112141688D01*
X150444653Y-112210349D01*
X150326511Y-112281521D01*
X150139025Y-112363177D01*
X149980326Y-112423970D01*
X149745452Y-112515606D01*
X149593627Y-112584958D01*
X149523966Y-112632590D01*
X149535585Y-112659064D01*
X149601598Y-112665390D01*
X149672363Y-112650172D01*
X149805729Y-112608565D01*
X149983590Y-112546642D01*
X150187846Y-112470473D01*
X150221376Y-112457521D01*
X150456737Y-112367426D01*
X150696062Y-112277962D01*
X150910572Y-112199768D01*
X151064969Y-112145675D01*
X151373034Y-112041697D01*
X151568272Y-112136210D01*
X151671072Y-112203318D01*
X151814871Y-112319757D01*
X151983058Y-112469682D01*
X152159022Y-112637246D01*
X152326154Y-112806606D01*
X152467843Y-112961917D01*
X152567480Y-113087332D01*
X152571591Y-113093315D01*
X152640715Y-113195041D01*
X152946822Y-113120641D01*
X153165749Y-113079398D01*
X153345482Y-113068947D01*
X153408501Y-113075427D01*
X153589101Y-113148443D01*
X153766062Y-113290098D01*
X153920398Y-113483411D01*
X153978923Y-113585704D01*
X154041869Y-113702191D01*
X154090692Y-113778638D01*
X154108889Y-113796212D01*
X154153165Y-113776649D01*
X154260534Y-113722579D01*
X154417607Y-113640936D01*
X154610993Y-113538652D01*
X154749680Y-113464459D01*
X154983763Y-113337475D01*
X155154330Y-113240303D01*
X155275112Y-113162763D01*
X155359839Y-113094676D01*
X155422245Y-113025861D01*
X155476059Y-112946140D01*
X155497657Y-112909939D01*
X155553375Y-112821021D01*
X155612559Y-112747708D01*
X155689477Y-112679301D01*
X155798395Y-112605102D01*
X155953580Y-112514413D01*
X156169298Y-112396535D01*
X156215294Y-112371799D01*
X156468315Y-112236714D01*
X156740417Y-112092800D01*
X157001279Y-111956014D01*
X157220581Y-111842315D01*
X157248254Y-111828116D01*
X157424567Y-111733221D01*
X157567952Y-111647292D01*
X157662877Y-111580236D01*
X157694059Y-111543709D01*
X157716212Y-111460329D01*
X157773704Y-111331166D01*
X157853092Y-111182458D01*
X157940933Y-111040443D01*
X157980695Y-110984296D01*
X158043219Y-110922754D01*
X158154861Y-110842695D01*
X158322172Y-110740222D01*
X158551708Y-110611442D01*
X158850021Y-110452458D01*
X159052182Y-110347430D01*
X159325721Y-110205831D01*
X159659048Y-110032503D01*
X160035061Y-109836384D01*
X160436654Y-109626415D01*
X160846723Y-109411535D01*
X161248165Y-109200684D01*
X161521458Y-109056807D01*
X162286710Y-108653356D01*
X162978420Y-108288382D01*
X163600097Y-107959989D01*
X164155247Y-107666280D01*
X164647378Y-107405359D01*
X165079999Y-107175329D01*
X165456617Y-106974295D01*
X165780739Y-106800361D01*
X166055875Y-106651629D01*
X166285530Y-106526204D01*
X166473214Y-106422189D01*
X166622434Y-106337688D01*
X166736697Y-106270804D01*
X166819512Y-106219642D01*
X166874385Y-106182306D01*
X166904826Y-106156898D01*
X166914341Y-106141522D01*
X166914343Y-106141418D01*
X166939155Y-106034780D01*
X167003082Y-105886052D01*
X167091543Y-105721578D01*
X167189956Y-105567702D01*
X167283740Y-105450770D01*
X167310816Y-105425095D01*
X167387326Y-105373972D01*
X167530868Y-105291308D01*
X167730036Y-105183160D01*
X167973419Y-105055581D01*
X168249609Y-104914628D01*
X168547198Y-104766355D01*
X168610842Y-104735100D01*
X168975037Y-104557819D01*
X169271563Y-104417314D01*
X169510255Y-104310863D01*
X169700948Y-104235747D01*
X169853477Y-104189245D01*
X169977675Y-104168637D01*
X170083379Y-104171203D01*
G37*
G36*
X160303227Y-94202960D02*
G01*
X161474127Y-94291740D01*
X162623283Y-94462304D01*
X163747351Y-94712797D01*
X164842989Y-95041366D01*
X165906855Y-95446156D01*
X166935606Y-95925314D01*
X167925900Y-96476985D01*
X168874394Y-97099314D01*
X169777746Y-97790449D01*
X170632613Y-98548534D01*
X171435654Y-99371716D01*
X172183525Y-100258140D01*
X172872883Y-101205953D01*
X173470677Y-102161794D01*
X173998480Y-103158574D01*
X174453272Y-104196921D01*
X174834038Y-105269826D01*
X175139765Y-106370279D01*
X175369438Y-107491269D01*
X175522042Y-108625787D01*
X175596564Y-109766824D01*
X175591990Y-110907369D01*
X175507304Y-112040412D01*
X175341493Y-113158944D01*
X175174589Y-113937877D01*
X174854323Y-115080204D01*
X174457856Y-116187443D01*
X173987819Y-117256000D01*
X173446843Y-118282280D01*
X172837560Y-119262689D01*
X172162600Y-120193632D01*
X171424596Y-121071515D01*
X170626178Y-121892742D01*
X169769978Y-122653719D01*
X168858626Y-123350852D01*
X167894755Y-123980547D01*
X167768050Y-124055903D01*
X167617443Y-124141649D01*
X167429023Y-124244630D01*
X167216128Y-124358038D01*
X166992094Y-124475064D01*
X166770259Y-124588901D01*
X166563961Y-124692740D01*
X166386536Y-124779773D01*
X166251322Y-124843192D01*
X166171656Y-124876189D01*
X166156158Y-124878705D01*
X166136614Y-124834321D01*
X166095200Y-124731667D01*
X166045280Y-124604260D01*
X165987189Y-124462177D01*
X165936516Y-124351900D01*
X165907485Y-124301983D01*
X165873922Y-124237354D01*
X165901720Y-124176165D01*
X165998885Y-124109557D01*
X166142606Y-124041797D01*
X166356577Y-123942151D01*
X166623883Y-123806270D01*
X166924767Y-123645083D01*
X167239474Y-123469515D01*
X167548245Y-123290495D01*
X167831326Y-123118950D01*
X167969779Y-123031184D01*
X168890215Y-122384612D01*
X169754405Y-121673461D01*
X170559987Y-120901438D01*
X171304603Y-120072251D01*
X171985891Y-119189607D01*
X172601491Y-118257213D01*
X173149043Y-117278777D01*
X173626185Y-116258004D01*
X174030558Y-115198603D01*
X174359801Y-114104281D01*
X174611554Y-112978744D01*
X174698955Y-112462909D01*
X174819293Y-111402136D01*
X174861777Y-110315954D01*
X174827382Y-109215734D01*
X174717084Y-108112847D01*
X174531855Y-107018664D01*
X174272672Y-105944556D01*
X174087751Y-105331893D01*
X173701286Y-104282902D01*
X173236903Y-103268079D01*
X172698401Y-102291769D01*
X172089578Y-101358319D01*
X171414231Y-100472072D01*
X170676157Y-99637375D01*
X169879154Y-98858574D01*
X169027021Y-98140013D01*
X168123554Y-97486038D01*
X167172550Y-96900994D01*
X166339490Y-96465881D01*
X165261657Y-95993285D01*
X164168762Y-95606077D01*
X163062966Y-95304378D01*
X161946429Y-95088313D01*
X160821311Y-94958004D01*
X159689773Y-94913574D01*
X158553976Y-94955146D01*
X157416080Y-95082843D01*
X156278244Y-95296787D01*
X155142630Y-95597103D01*
X154534227Y-95794145D01*
X153522894Y-96187599D01*
X152547076Y-96658567D01*
X151605245Y-97208026D01*
X150695872Y-97836951D01*
X149817426Y-98546316D01*
X148968380Y-99337096D01*
X148950185Y-99355251D01*
X148164656Y-100200830D01*
X147449802Y-101096004D01*
X146807077Y-102037686D01*
X146237939Y-103022788D01*
X145743846Y-104048220D01*
X145326252Y-105110896D01*
X144986616Y-106207725D01*
X144726393Y-107335621D01*
X144547041Y-108491495D01*
X144518400Y-108751007D01*
X144463488Y-109494403D01*
X144445186Y-110270313D01*
X144462963Y-111049087D01*
X144516288Y-111801077D01*
X144583045Y-112355669D01*
X144791261Y-113486199D01*
X145082073Y-114595010D01*
X145453004Y-115677270D01*
X145901575Y-116728143D01*
X146425307Y-117742796D01*
X147021723Y-118716396D01*
X147688345Y-119644107D01*
X148422694Y-120521097D01*
X149159713Y-121282573D01*
X149992843Y-122025604D01*
X150887035Y-122709127D01*
X151837215Y-123330140D01*
X152838312Y-123885642D01*
X153885253Y-124372630D01*
X154972965Y-124788103D01*
X155225482Y-124872292D01*
X155389317Y-124930437D01*
X155513519Y-124984081D01*
X155580765Y-125025236D01*
X155587415Y-125039192D01*
X155565210Y-125099834D01*
X155524184Y-125217998D01*
X155473013Y-125368682D01*
X155470463Y-125376264D01*
X155418978Y-125520145D01*
X155375601Y-125624664D01*
X155349046Y-125669016D01*
X155347743Y-125669346D01*
X155300245Y-125656027D01*
X155185171Y-125619637D01*
X155017347Y-125564978D01*
X154811596Y-125496855D01*
X154693034Y-125457199D01*
X153585418Y-125045020D01*
X152536766Y-124570751D01*
X151542094Y-124031267D01*
X150596417Y-123423446D01*
X149694752Y-122744165D01*
X148832114Y-121990301D01*
X148255826Y-121423764D01*
X147500514Y-120586549D01*
X146802121Y-119691036D01*
X146165080Y-118745376D01*
X145593823Y-117757719D01*
X145092782Y-116736216D01*
X144666388Y-115689017D01*
X144319075Y-114624273D01*
X144108013Y-113796212D01*
X143904319Y-112744253D01*
X143771850Y-111718809D01*
X143709958Y-110702642D01*
X143717990Y-109678513D01*
X143795298Y-108629184D01*
X143885707Y-107902193D01*
X144096224Y-106732390D01*
X144387980Y-105593643D01*
X144760817Y-104486331D01*
X145214576Y-103410834D01*
X145749100Y-102367533D01*
X146364230Y-101356807D01*
X146977597Y-100487308D01*
X147722422Y-99569167D01*
X148523594Y-98716788D01*
X149378743Y-97931754D01*
X150285502Y-97215646D01*
X151241502Y-96570045D01*
X152244376Y-95996534D01*
X153291755Y-95496693D01*
X154381270Y-95072104D01*
X155510554Y-94724349D01*
X155670013Y-94682319D01*
X156391900Y-94511196D01*
X157083258Y-94380953D01*
X157774033Y-94287377D01*
X158494174Y-94226254D01*
X159113924Y-94197818D01*
X160303227Y-94202960D01*
G37*
G36*
X154607293Y-99873943D02*
G01*
X154824709Y-99981859D01*
X155000553Y-100145716D01*
X155119157Y-100351819D01*
X155161847Y-100533062D01*
X155153828Y-100894339D01*
X155063597Y-101274603D01*
X154892953Y-101670295D01*
X154643698Y-102077855D01*
X154317631Y-102493726D01*
X153996727Y-102835938D01*
X153611268Y-103187371D01*
X153210638Y-103494229D01*
X152803595Y-103752775D01*
X152398892Y-103959267D01*
X152005285Y-104109969D01*
X151631529Y-104201139D01*
X151286379Y-104229039D01*
X150978591Y-104189929D01*
X150889898Y-104162822D01*
X150643571Y-104045112D01*
X150471958Y-103889498D01*
X150397858Y-103743866D01*
X151313511Y-103743866D01*
X151352053Y-103717154D01*
X151359087Y-103711349D01*
X151412978Y-103677686D01*
X151431784Y-103714066D01*
X151434104Y-103754842D01*
X151439269Y-103824938D01*
X151455789Y-103812682D01*
X151474541Y-103771041D01*
X151506225Y-103685520D01*
X151514977Y-103648868D01*
X151490123Y-103634131D01*
X151469881Y-103643441D01*
X151440253Y-103639997D01*
X151451065Y-103580768D01*
X151467003Y-103503323D01*
X151447647Y-103496835D01*
X151401162Y-103556909D01*
X151360204Y-103629688D01*
X151316172Y-103718822D01*
X151313511Y-103743866D01*
X150397858Y-103743866D01*
X150368855Y-103686866D01*
X150351668Y-103577855D01*
X151083102Y-103577855D01*
X151113641Y-103587470D01*
X151187698Y-103552234D01*
X151193192Y-103548686D01*
X151264474Y-103492830D01*
X151284366Y-103457696D01*
X151283904Y-103457174D01*
X151233925Y-103458443D01*
X151159050Y-103496374D01*
X151097635Y-103547915D01*
X151083102Y-103577855D01*
X150351668Y-103577855D01*
X150328059Y-103428106D01*
X150327077Y-103336109D01*
X150371032Y-103013858D01*
X151214379Y-103013858D01*
X151222581Y-103111179D01*
X151258659Y-103185314D01*
X151332613Y-103267981D01*
X151361260Y-103296767D01*
X151520609Y-103456116D01*
X151841373Y-103435531D01*
X152047553Y-103412641D01*
X152231909Y-103366077D01*
X152435240Y-103284584D01*
X152503356Y-103252917D01*
X152860259Y-103055543D01*
X153207898Y-102811342D01*
X153532562Y-102533687D01*
X153820539Y-102235948D01*
X154058118Y-101931495D01*
X154231589Y-101633699D01*
X154279352Y-101521056D01*
X154334532Y-101293408D01*
X154335035Y-101071769D01*
X154283232Y-100879692D01*
X154202747Y-100760129D01*
X154096982Y-100694616D01*
X154665290Y-100694616D01*
X154671287Y-100701632D01*
X154729699Y-100675391D01*
X154818812Y-100610042D01*
X154839405Y-100592436D01*
X154914615Y-100518201D01*
X154946661Y-100469894D01*
X154945415Y-100464233D01*
X154904680Y-100478482D01*
X154823005Y-100535950D01*
X154777297Y-100573428D01*
X154697962Y-100648435D01*
X154665290Y-100694616D01*
X154096982Y-100694616D01*
X154046879Y-100663581D01*
X153841684Y-100627880D01*
X153596318Y-100649479D01*
X153319936Y-100724831D01*
X153021693Y-100850390D01*
X152710744Y-101022608D01*
X152396243Y-101237938D01*
X152087347Y-101492835D01*
X151931938Y-101639877D01*
X151662867Y-101926938D01*
X151464399Y-102187860D01*
X151329247Y-102435223D01*
X151250119Y-102681609D01*
X151224049Y-102861628D01*
X151214379Y-103013858D01*
X150371032Y-103013858D01*
X150374377Y-102989332D01*
X150503417Y-102624666D01*
X150622471Y-102408587D01*
X150964124Y-102408587D01*
X150981483Y-102434635D01*
X150996116Y-102444500D01*
X151076941Y-102480359D01*
X151138553Y-102483204D01*
X151152749Y-102453035D01*
X151148342Y-102444500D01*
X151087759Y-102409755D01*
X151026169Y-102401673D01*
X150964124Y-102408587D01*
X150622471Y-102408587D01*
X150666587Y-102328518D01*
X151010614Y-102328518D01*
X151016584Y-102354375D01*
X151039609Y-102357514D01*
X151075409Y-102341600D01*
X151068605Y-102328518D01*
X151016988Y-102323313D01*
X151010614Y-102328518D01*
X150666587Y-102328518D01*
X150711830Y-102246405D01*
X150997244Y-101858846D01*
X151357292Y-101466282D01*
X151360032Y-101463564D01*
X151739159Y-101116107D01*
X152142944Y-100797592D01*
X152436290Y-100598260D01*
X154606047Y-100598260D01*
X154632898Y-100600338D01*
X154671287Y-100574294D01*
X154726049Y-100509936D01*
X154736527Y-100478876D01*
X154712096Y-100471164D01*
X154671287Y-100502841D01*
X154618307Y-100568443D01*
X154606047Y-100598260D01*
X152436290Y-100598260D01*
X152560053Y-100514162D01*
X152979157Y-100271956D01*
X153388924Y-100077116D01*
X153778022Y-99935781D01*
X154135120Y-99854093D01*
X154363977Y-99835666D01*
X154607293Y-99873943D01*
G37*
G36*
X155621553Y-98431551D02*
G01*
X155770451Y-98445748D01*
X155893337Y-98476514D01*
X156020615Y-98529469D01*
X156056214Y-98546604D01*
X156286714Y-98692983D01*
X156485719Y-98883078D01*
X156632769Y-99094749D01*
X156690751Y-99233251D01*
X156726106Y-99423264D01*
X156741000Y-99668775D01*
X156735851Y-99940837D01*
X156711075Y-100210505D01*
X156673630Y-100421713D01*
X156537238Y-100849568D01*
X156324677Y-101295955D01*
X156041952Y-101750882D01*
X155695073Y-102204359D01*
X155410343Y-102522907D01*
X155041184Y-102893239D01*
X154631575Y-103272761D01*
X154196377Y-103649571D01*
X153750450Y-104011764D01*
X153308654Y-104347435D01*
X152885850Y-104644681D01*
X152496898Y-104891597D01*
X152344404Y-104978975D01*
X151880864Y-105205015D01*
X151421222Y-105372603D01*
X150976232Y-105479597D01*
X150556645Y-105523857D01*
X150173214Y-105503242D01*
X149952567Y-105455250D01*
X149742321Y-105361073D01*
X149544207Y-105215353D01*
X149380815Y-105039156D01*
X149274737Y-104853548D01*
X149260247Y-104809689D01*
X149214226Y-104507505D01*
X149235527Y-104169734D01*
X149325021Y-103791732D01*
X149483574Y-103368858D01*
X149562433Y-103194757D01*
X149648214Y-103017664D01*
X149721942Y-102873892D01*
X149775261Y-102779196D01*
X149798914Y-102748952D01*
X149801790Y-102780826D01*
X149777692Y-102837089D01*
X149731914Y-102956616D01*
X149683742Y-103137801D01*
X149637910Y-103355609D01*
X149599151Y-103585004D01*
X149572198Y-103800952D01*
X149561785Y-103978417D01*
X149561783Y-103979030D01*
X149587052Y-104276109D01*
X149668315Y-104517526D01*
X149810598Y-104718113D01*
X149813235Y-104720900D01*
X150004105Y-104876404D01*
X150233648Y-104976550D01*
X150511097Y-105023268D01*
X150845686Y-105018486D01*
X151096038Y-104988998D01*
X151661132Y-104865940D01*
X152218744Y-104665888D01*
X152772514Y-104386826D01*
X153326084Y-104026734D01*
X153883093Y-103583595D01*
X154270676Y-103228989D01*
X154789145Y-102695419D01*
X155222906Y-102174280D01*
X155571752Y-101665922D01*
X155835477Y-101170700D01*
X156013871Y-100688964D01*
X156106728Y-100221069D01*
X156117529Y-100089799D01*
X156113840Y-99743759D01*
X156057710Y-99465297D01*
X155945360Y-99249889D01*
X155939627Y-99244671D01*
X156194399Y-99244671D01*
X156203228Y-99269500D01*
X156265736Y-99239438D01*
X156303153Y-99203209D01*
X156342880Y-99135872D01*
X156324747Y-99117278D01*
X156266443Y-99153056D01*
X156237282Y-99182247D01*
X156194399Y-99244671D01*
X155939627Y-99244671D01*
X155773008Y-99093008D01*
X155536874Y-98990131D01*
X155233177Y-98936732D01*
X155149137Y-98930739D01*
X154889361Y-98931178D01*
X154626202Y-98963336D01*
X154351424Y-99030789D01*
X154056792Y-99137113D01*
X153734069Y-99285886D01*
X153375019Y-99480682D01*
X152971406Y-99725079D01*
X152514995Y-100022653D01*
X152300910Y-100167538D01*
X152260854Y-100188089D01*
X152275651Y-100159396D01*
X152335777Y-100090714D01*
X152431711Y-99991299D01*
X152553928Y-99870405D01*
X152692904Y-99737289D01*
X152839118Y-99601206D01*
X152983044Y-99471411D01*
X153115160Y-99357160D01*
X153225943Y-99267709D01*
X153229836Y-99264746D01*
X153490902Y-99085976D01*
X153796147Y-98907682D01*
X154118714Y-98743429D01*
X154431749Y-98606785D01*
X154708397Y-98511315D01*
X154736527Y-98503625D01*
X154953607Y-98461795D01*
X155213777Y-98435275D01*
X155416236Y-98428303D01*
X155621553Y-98431551D01*
G37*
G36*
X170290055Y-104940926D02*
G01*
X170487169Y-105071673D01*
X170695354Y-105270495D01*
X170910441Y-105533801D01*
X171128262Y-105857997D01*
X171344651Y-106239492D01*
X171416666Y-106380630D01*
X171667329Y-106931156D01*
X171866334Y-107466904D01*
X172010951Y-107977627D01*
X172098448Y-108453081D01*
X172126093Y-108883019D01*
X172121006Y-109022627D01*
X172083774Y-109303701D01*
X172014186Y-109504948D01*
X171911113Y-109627729D01*
X171773427Y-109673404D01*
X171604937Y-109645053D01*
X171366284Y-109523073D01*
X171122655Y-109325231D01*
X170879597Y-109062012D01*
X170642657Y-108743903D01*
X170417382Y-108381388D01*
X170385765Y-108321146D01*
X171249650Y-108321146D01*
X171294288Y-108359838D01*
X171353012Y-108341834D01*
X171369611Y-108321003D01*
X171361696Y-108264975D01*
X171333764Y-108232907D01*
X171278107Y-108208100D01*
X171250254Y-108245473D01*
X171249650Y-108321146D01*
X170385765Y-108321146D01*
X170209319Y-107984953D01*
X170032817Y-107585029D01*
X170742509Y-107585029D01*
X170751699Y-107681966D01*
X170771002Y-107721669D01*
X170853474Y-107751838D01*
X170957148Y-107734637D01*
X171036993Y-107679088D01*
X171044772Y-107666829D01*
X171070230Y-107568641D01*
X171063252Y-107514227D01*
X171000034Y-107449840D01*
X170897110Y-107412098D01*
X170801033Y-107416441D01*
X170787971Y-107422938D01*
X170755449Y-107483745D01*
X170742509Y-107585029D01*
X170032817Y-107585029D01*
X170024015Y-107565084D01*
X169867018Y-107132266D01*
X169783573Y-106837308D01*
X170568034Y-106837308D01*
X170590047Y-106908692D01*
X170644147Y-106916015D01*
X170708852Y-106873128D01*
X170720260Y-106837308D01*
X170684103Y-106775896D01*
X170644147Y-106758602D01*
X170582497Y-106773731D01*
X170568034Y-106837308D01*
X169783573Y-106837308D01*
X169743874Y-106696984D01*
X169660131Y-106269724D01*
X169629472Y-105963821D01*
X170263582Y-105963821D01*
X170291211Y-106038588D01*
X170332011Y-106054431D01*
X170384267Y-106021822D01*
X170386377Y-105981922D01*
X170350057Y-105909424D01*
X170299802Y-105893225D01*
X170265983Y-105937803D01*
X170263582Y-105963821D01*
X169629472Y-105963821D01*
X169622928Y-105898531D01*
X169615864Y-105612718D01*
X169628398Y-105395207D01*
X169664021Y-105228818D01*
X169726220Y-105096370D01*
X169806810Y-104993060D01*
X169945708Y-104898027D01*
X170108179Y-104881847D01*
X170290055Y-104940926D01*
G37*
G36*
X157005102Y-106054431D02*
G01*
X157039830Y-106239902D01*
X157071885Y-106364647D01*
X157110622Y-106454092D01*
X157165396Y-106533662D01*
X157194495Y-106569136D01*
X157353895Y-106692852D01*
X157518535Y-106754127D01*
X157654986Y-106796812D01*
X157705109Y-106833926D01*
X157669251Y-106867251D01*
X157547759Y-106898567D01*
X157546728Y-106898760D01*
X157349701Y-106967597D01*
X157198899Y-107096119D01*
X157087218Y-107292572D01*
X157019735Y-107510630D01*
X156989028Y-107634557D01*
X156969670Y-107682027D01*
X156953825Y-107661425D01*
X156937681Y-107598438D01*
X156884809Y-107387155D01*
X156837357Y-107241481D01*
X156786459Y-107141222D01*
X156723250Y-107066183D01*
X156691653Y-107037963D01*
X156562116Y-106955484D01*
X156421684Y-106901949D01*
X156409253Y-106899348D01*
X156301599Y-106869298D01*
X156238213Y-106833875D01*
X156232080Y-106804565D01*
X156288840Y-106792860D01*
X156416016Y-106765385D01*
X156567571Y-106698305D01*
X156707310Y-106610888D01*
X156799036Y-106522401D01*
X156800194Y-106520659D01*
X156845049Y-106421293D01*
X156890525Y-106271676D01*
X156920435Y-106136449D01*
X156970913Y-105858712D01*
X157005102Y-106054431D01*
G37*
G36*
X153278082Y-120347411D02*
G01*
X153303187Y-120426221D01*
X153310214Y-120450664D01*
X153354097Y-120593485D01*
X153398673Y-120723972D01*
X153398886Y-120724548D01*
X153483317Y-120844314D01*
X153618998Y-120934719D01*
X153770407Y-120972492D01*
X153777518Y-120972582D01*
X153849357Y-120990400D01*
X153866664Y-121016075D01*
X153830536Y-121052307D01*
X153786110Y-121059568D01*
X153699589Y-121082978D01*
X153585915Y-121141033D01*
X153557770Y-121159085D01*
X153461787Y-121240963D01*
X153394737Y-121349471D01*
X153338352Y-121514345D01*
X153337353Y-121517904D01*
X153296553Y-121648647D01*
X153271006Y-121695637D01*
X153261240Y-121660431D01*
X153221335Y-121446286D01*
X153123857Y-121264782D01*
X152982097Y-121134222D01*
X152837619Y-121077140D01*
X152735951Y-121045414D01*
X152694191Y-121008172D01*
X152719997Y-120979681D01*
X152781495Y-120972582D01*
X152952685Y-120932184D01*
X153099119Y-120822179D01*
X153206211Y-120659348D01*
X153259377Y-120460473D01*
X153262200Y-120419441D01*
X153266905Y-120346767D01*
X153278082Y-120347411D01*
G37*
G36*
X167291138Y-114770875D02*
G01*
X167353360Y-115018458D01*
X167438828Y-115194547D01*
X167561222Y-115314108D01*
X167734222Y-115392107D01*
X167893820Y-115430190D01*
X168065402Y-115462379D01*
X167832371Y-115538347D01*
X167633866Y-115620323D01*
X167493399Y-115727135D01*
X167394424Y-115878022D01*
X167320395Y-116092221D01*
X167305546Y-116150853D01*
X167269315Y-116285857D01*
X167240946Y-116363795D01*
X167225176Y-116372618D01*
X167223582Y-116359329D01*
X167197804Y-116185196D01*
X167141327Y-115997786D01*
X167066434Y-115830108D01*
X166985410Y-115715171D01*
X166983010Y-115712881D01*
X166879398Y-115640751D01*
X166733169Y-115567738D01*
X166645153Y-115533639D01*
X166536762Y-115491720D01*
X166487321Y-115461885D01*
X166501424Y-115451577D01*
X166588550Y-115431769D01*
X166718563Y-115384666D01*
X166809970Y-115344936D01*
X166953620Y-115260675D01*
X167056180Y-115151873D01*
X167128592Y-115000043D01*
X167181799Y-114786699D01*
X167198912Y-114687822D01*
X167233645Y-114470356D01*
X167291138Y-114770875D01*
G37*
G36*
X167223150Y-101685239D02*
G01*
X167250377Y-101796042D01*
X167259497Y-101886625D01*
X167301328Y-102028641D01*
X167403024Y-102163007D01*
X167539679Y-102262564D01*
X167634487Y-102295564D01*
X167731021Y-102328932D01*
X167756173Y-102368312D01*
X167707068Y-102396492D01*
X167652112Y-102401007D01*
X167530958Y-102439798D01*
X167413867Y-102540576D01*
X167321550Y-102679949D01*
X167275747Y-102826125D01*
X167249656Y-102955673D01*
X167218995Y-103024972D01*
X167191903Y-103026844D01*
X167176523Y-102954108D01*
X167175405Y-102914618D01*
X167151596Y-102774646D01*
X167094470Y-102638249D01*
X167093563Y-102636753D01*
X167036459Y-102558869D01*
X166961721Y-102498762D01*
X166847096Y-102442701D01*
X166675397Y-102378726D01*
X166637736Y-102356330D01*
X166664695Y-102330966D01*
X166765636Y-102295205D01*
X166789885Y-102287839D01*
X166961825Y-102210628D01*
X167075124Y-102091370D01*
X167142413Y-101913673D01*
X167161754Y-101805175D01*
X167181724Y-101689457D01*
X167201065Y-101652694D01*
X167223150Y-101685239D01*
G37*
G36*
X159976999Y-102658480D02*
G01*
X159995941Y-102737584D01*
X160000153Y-102827632D01*
X160023789Y-102993568D01*
X160083731Y-103164361D01*
X160166265Y-103309869D01*
X160257681Y-103399952D01*
X160261470Y-103402052D01*
X160365213Y-103447219D01*
X160502695Y-103495117D01*
X160537000Y-103505466D01*
X160716835Y-103557665D01*
X160513962Y-103614598D01*
X160305936Y-103703294D01*
X160159278Y-103841367D01*
X160063879Y-104040600D01*
X160029950Y-104178645D01*
X159993524Y-104335344D01*
X159959209Y-104423236D01*
X159931376Y-104437712D01*
X159914393Y-104374166D01*
X159911257Y-104303832D01*
X159887966Y-104156191D01*
X159830032Y-103990012D01*
X159752803Y-103841974D01*
X159682384Y-103756910D01*
X159601118Y-103707531D01*
X159475156Y-103648543D01*
X159410231Y-103622414D01*
X159207719Y-103545542D01*
X159408346Y-103489370D01*
X159624370Y-103392052D01*
X159776992Y-103237123D01*
X159868819Y-103021314D01*
X159893705Y-102881364D01*
X159919008Y-102733839D01*
X159949064Y-102658388D01*
X159976999Y-102658480D01*
G37*
G36*
X147446482Y-107672356D02*
G01*
X147482600Y-107840618D01*
X147539141Y-107996874D01*
X147575436Y-108063795D01*
X147703501Y-108199038D01*
X147870501Y-108303135D01*
X148040892Y-108355138D01*
X148073768Y-108357479D01*
X148145242Y-108371448D01*
X148143806Y-108401588D01*
X148079276Y-108437190D01*
X147975103Y-108465101D01*
X147773459Y-108544841D01*
X147614438Y-108700356D01*
X147498097Y-108931563D01*
X147424497Y-109238377D01*
X147419529Y-109272925D01*
X147406361Y-109310337D01*
X147388107Y-109263126D01*
X147369564Y-109164192D01*
X147313053Y-108909489D01*
X147230044Y-108723793D01*
X147107341Y-108590144D01*
X146931749Y-108491584D01*
X146811853Y-108447491D01*
X146583337Y-108372996D01*
X146754919Y-108340807D01*
X146974980Y-108277175D01*
X147146316Y-108182683D01*
X147210934Y-108121896D01*
X147248853Y-108046608D01*
X147294476Y-107913743D01*
X147338381Y-107751010D01*
X147341322Y-107738463D01*
X147414083Y-107424466D01*
X147446482Y-107672356D01*
G37*
G36*
X171210883Y-113783755D02*
G01*
X171220431Y-113887925D01*
X171255248Y-114086578D01*
X171358493Y-114232108D01*
X171528356Y-114322085D01*
X171548026Y-114327691D01*
X171684103Y-114371566D01*
X171734565Y-114408559D01*
X171700345Y-114440509D01*
X171616677Y-114462871D01*
X171432669Y-114541325D01*
X171294489Y-114692591D01*
X171204311Y-114914242D01*
X171201124Y-114927034D01*
X171168842Y-115052443D01*
X171150218Y-115099159D01*
X171141054Y-115073622D01*
X171138254Y-115023497D01*
X171098641Y-114809130D01*
X171003525Y-114632215D01*
X170865438Y-114507726D01*
X170696909Y-114450637D01*
X170657180Y-114448609D01*
X170579135Y-114436730D01*
X170575973Y-114407409D01*
X170639862Y-114370119D01*
X170749174Y-114337357D01*
X170929936Y-114259374D01*
X171051852Y-114119011D01*
X171117232Y-113913494D01*
X171120490Y-113891204D01*
X171148688Y-113774521D01*
X171182942Y-113738569D01*
X171210883Y-113783755D01*
G37*
G36*
X160601507Y-114054132D02*
G01*
X160755628Y-114160921D01*
X160872655Y-114313836D01*
X160936287Y-114492505D01*
X160936016Y-114650481D01*
X160868270Y-114823113D01*
X160747685Y-114963760D01*
X160594631Y-115058835D01*
X160429477Y-115094751D01*
X160303650Y-115072285D01*
X160166564Y-114980675D01*
X160050081Y-114837776D01*
X159997940Y-114727503D01*
X159977351Y-114552596D01*
X159997217Y-114462304D01*
X160254297Y-114462304D01*
X160260036Y-114564191D01*
X160288113Y-114618249D01*
X160376869Y-114692082D01*
X160470024Y-114681712D01*
X160537978Y-114611709D01*
X160558138Y-114512042D01*
X160509310Y-114422447D01*
X160407580Y-114371124D01*
X160400011Y-114369857D01*
X160304870Y-114388837D01*
X160254297Y-114462304D01*
X159997217Y-114462304D01*
X160016748Y-114373534D01*
X160103629Y-114211132D01*
X160225493Y-114086202D01*
X160369838Y-114019558D01*
X160426593Y-114013841D01*
X160601507Y-114054132D01*
G37*
G36*
X159326977Y-97352218D02*
G01*
X159355042Y-97467897D01*
X159365440Y-97537297D01*
X159422653Y-97792903D01*
X159523450Y-97981147D01*
X159678442Y-98115162D01*
X159898237Y-98208078D01*
X159910198Y-98211613D01*
X160151424Y-98281827D01*
X159912212Y-98359860D01*
X159677085Y-98477204D01*
X159497733Y-98651143D01*
X159384160Y-98868671D01*
X159346377Y-99095527D01*
X159322772Y-99188713D01*
X159303308Y-99226007D01*
X159273793Y-99253376D01*
X159261557Y-99206186D01*
X159260238Y-99160767D01*
X159221869Y-98883231D01*
X159112832Y-98654516D01*
X158935950Y-98478618D01*
X158694404Y-98359652D01*
X158455191Y-98281410D01*
X158607417Y-98248809D01*
X158864902Y-98159995D01*
X159055488Y-98016428D01*
X159182013Y-97814892D01*
X159247313Y-97552169D01*
X159250927Y-97518901D01*
X159272191Y-97377282D01*
X159298450Y-97321867D01*
X159326977Y-97352218D01*
G37*
G36*
X162739779Y-99510749D02*
G01*
X162799043Y-99707631D01*
X162870189Y-99839909D01*
X162971893Y-99929701D01*
X163122832Y-99999122D01*
X163164676Y-100013918D01*
X163369917Y-100084192D01*
X163190894Y-100133633D01*
X162994700Y-100219089D01*
X162853639Y-100357706D01*
X162757904Y-100560950D01*
X162727141Y-100675914D01*
X162667181Y-100943986D01*
X162637788Y-100726520D01*
X162583177Y-100492360D01*
X162484994Y-100323185D01*
X162331425Y-100202997D01*
X162211374Y-100149078D01*
X161981498Y-100063326D01*
X162132043Y-100031342D01*
X162271983Y-99981673D01*
X162409372Y-99903989D01*
X162418896Y-99897023D01*
X162500193Y-99821911D01*
X162554583Y-99727135D01*
X162596077Y-99584601D01*
X162611691Y-99510500D01*
X162668178Y-99226312D01*
X162739779Y-99510749D01*
G37*
G36*
X166340685Y-119639632D02*
G01*
X166344031Y-119717336D01*
X166389724Y-119904121D01*
X166508967Y-120048534D01*
X166658996Y-120129950D01*
X166742998Y-120165199D01*
X166746572Y-120182772D01*
X166713882Y-120186396D01*
X166572986Y-120231589D01*
X166452624Y-120342823D01*
X166373367Y-120499152D01*
X166362021Y-120544652D01*
X166326767Y-120722918D01*
X166271956Y-120517986D01*
X166226775Y-120384638D01*
X166165089Y-120304954D01*
X166060403Y-120246186D01*
X166047552Y-120240626D01*
X165877958Y-120168200D01*
X166057999Y-120081093D01*
X166170144Y-120017398D01*
X166234461Y-119943988D01*
X166275978Y-119827787D01*
X166288452Y-119776520D01*
X166317893Y-119653586D01*
X166333530Y-119609845D01*
X166340685Y-119639632D01*
G37*
G36*
X153705388Y-109254714D02*
G01*
X153759593Y-109423500D01*
X153866617Y-109538746D01*
X154018890Y-109611761D01*
X154096683Y-109642948D01*
X154095528Y-109657451D01*
X154056328Y-109660929D01*
X153918191Y-109706822D01*
X153799338Y-109822685D01*
X153716267Y-109991547D01*
X153708293Y-110018967D01*
X153677553Y-110128484D01*
X153661903Y-110159435D01*
X153655281Y-110117630D01*
X153653468Y-110071493D01*
X153607171Y-109900141D01*
X153487840Y-109761284D01*
X153339400Y-109680626D01*
X153255398Y-109645376D01*
X153251824Y-109627803D01*
X153284514Y-109624179D01*
X153426024Y-109578799D01*
X153546599Y-109466486D01*
X153626722Y-109307279D01*
X153638516Y-109260697D01*
X153675911Y-109077205D01*
X153705388Y-109254714D01*
G37*
G36*
X153529623Y-101377003D02*
G01*
X153591000Y-101425499D01*
X153662225Y-101511256D01*
X153685322Y-101598201D01*
X153673763Y-101719078D01*
X153589318Y-101981092D01*
X153422278Y-102240624D01*
X153215076Y-102457259D01*
X152939930Y-102675653D01*
X152681478Y-102822950D01*
X152445932Y-102896390D01*
X152239504Y-102893214D01*
X152235671Y-102892340D01*
X152117212Y-102827232D01*
X152052062Y-102708581D01*
X152037584Y-102549452D01*
X152071144Y-102362913D01*
X152150105Y-102162030D01*
X152271831Y-101959870D01*
X152433687Y-101769498D01*
X152469034Y-101735482D01*
X152706993Y-101543966D01*
X152943033Y-101409320D01*
X153166151Y-101334585D01*
X153365349Y-101322799D01*
X153529623Y-101377003D01*
G37*
G36*
X168819901Y-105500733D02*
G01*
X168796377Y-105536221D01*
X168703038Y-105600040D01*
X168536988Y-105694061D01*
X168295328Y-105820153D01*
X168167985Y-105884429D01*
X167962523Y-105984521D01*
X167788900Y-106063664D01*
X167659611Y-106116608D01*
X167587150Y-106138102D01*
X167576321Y-106133073D01*
X167618920Y-106095855D01*
X167723033Y-106029366D01*
X167872008Y-105942503D01*
X168049195Y-105844164D01*
X168237944Y-105743248D01*
X168421602Y-105648653D01*
X168583520Y-105569276D01*
X168707045Y-105514016D01*
X168775529Y-105491770D01*
X168776508Y-105491708D01*
X168819901Y-105500733D01*
G37*
G36*
X151719604Y-112982942D02*
G01*
X151735022Y-113009056D01*
X151718272Y-113036398D01*
X151657643Y-113071270D01*
X151541424Y-113119970D01*
X151357905Y-113188800D01*
X151292836Y-113212548D01*
X151091095Y-113285325D01*
X150957101Y-113330883D01*
X150877039Y-113352240D01*
X150837094Y-113352415D01*
X150823452Y-113334427D01*
X150822143Y-113315394D01*
X150860750Y-113269586D01*
X150962559Y-113209786D01*
X151106560Y-113143778D01*
X151271739Y-113079347D01*
X151437083Y-113024275D01*
X151581579Y-112986347D01*
X151684215Y-112973347D01*
X151719604Y-112982942D01*
G37*
G36*
X150280729Y-100219506D02*
G01*
X150336475Y-100309918D01*
X150344808Y-100424788D01*
X150310433Y-100514066D01*
X150232244Y-100574740D01*
X150130047Y-100594912D01*
X150048214Y-100565845D01*
X150048094Y-100565725D01*
X149998432Y-100465266D01*
X150006616Y-100348576D01*
X150061579Y-100245861D01*
X150152255Y-100187328D01*
X150188370Y-100182856D01*
X150280729Y-100219506D01*
G37*
G36*
X149871094Y-114774954D02*
G01*
X149965167Y-114837359D01*
X149998131Y-114931107D01*
X149959115Y-115039121D01*
X149927427Y-115076154D01*
X149811685Y-115138982D01*
X149682384Y-115118960D01*
X149630663Y-115087989D01*
X149570597Y-114992215D01*
X149567984Y-114903143D01*
X149591529Y-114812377D01*
X149653391Y-114772259D01*
X149726782Y-114760967D01*
X149871094Y-114774954D01*
G37*
G36*
X155539311Y-121931559D02*
G01*
X155555992Y-121947380D01*
X155594324Y-122027956D01*
X155576997Y-122106550D01*
X155513514Y-122146447D01*
X155504348Y-122146897D01*
X155428106Y-122116120D01*
X155385018Y-122076951D01*
X155351942Y-122015289D01*
X155388207Y-121963017D01*
X155410334Y-121946046D01*
X155482956Y-121907423D01*
X155539311Y-121931559D01*
G37*
G36*
X169253182Y-100905970D02*
G01*
X169312684Y-100983955D01*
X169328479Y-101057459D01*
X169296272Y-101143493D01*
X169221811Y-101182324D01*
X169138333Y-101169963D01*
X169079076Y-101102421D01*
X169074501Y-101087937D01*
X169076111Y-100980968D01*
X169127777Y-100907221D01*
X169208413Y-100888166D01*
X169253182Y-100905970D01*
G37*
G36*
X168895611Y-118724939D02*
G01*
X168910310Y-118824760D01*
X168908103Y-118843868D01*
X168869647Y-118937574D01*
X168790714Y-118954787D01*
X168752195Y-118942902D01*
X168704337Y-118885106D01*
X168708014Y-118795942D01*
X168761200Y-118712583D01*
X168764911Y-118709408D01*
X168841746Y-118681418D01*
X168895611Y-118724939D01*
G37*
G36*
X161310375Y-106567621D02*
G01*
X161367973Y-106635335D01*
X161384772Y-106726771D01*
X161345752Y-106817651D01*
X161259484Y-106876275D01*
X161177060Y-106850761D01*
X161121374Y-106770462D01*
X161094044Y-106676803D01*
X161125726Y-106606786D01*
X161144869Y-106586353D01*
X161230001Y-106544377D01*
X161310375Y-106567621D01*
G37*
G36*
X157068276Y-103291754D02*
G01*
X157123669Y-103354209D01*
X157105939Y-103425247D01*
X157102242Y-103431422D01*
X157018927Y-103510717D01*
X156925348Y-103513412D01*
X156877659Y-103480906D01*
X156831373Y-103392691D01*
X156851342Y-103313505D01*
X156917518Y-103263243D01*
X157009851Y-103261801D01*
X157068276Y-103291754D01*
G37*
G36*
X150832057Y-107827833D02*
G01*
X150888094Y-107892736D01*
X150894457Y-107979911D01*
X150865177Y-108033924D01*
X150777354Y-108093764D01*
X150692995Y-108068680D01*
X150645455Y-108006549D01*
X150619682Y-107919805D01*
X150662229Y-107848446D01*
X150662299Y-107848376D01*
X150749181Y-107806084D01*
X150832057Y-107827833D01*
G37*
G36*
X170056989Y-116761595D02*
G01*
X170138813Y-116804802D01*
X170154849Y-116862479D01*
X170119314Y-116940258D01*
X170056989Y-116963364D01*
X169984516Y-116957924D01*
X169960252Y-116897227D01*
X169959130Y-116862479D01*
X169972543Y-116779378D01*
X170027229Y-116758684D01*
X170056989Y-116761595D01*
G37*
G36*
X165737667Y-100603127D02*
G01*
X165776316Y-100664094D01*
X165775629Y-100693270D01*
X165732699Y-100761200D01*
X165663064Y-100783040D01*
X165604627Y-100749782D01*
X165597565Y-100735585D01*
X165597236Y-100646593D01*
X165609449Y-100618379D01*
X165669502Y-100582237D01*
X165737667Y-100603127D01*
G37*
G36*
X163320725Y-105425128D02*
G01*
X163377514Y-105494701D01*
X163390998Y-105560480D01*
X163356034Y-105618639D01*
X163274657Y-105639729D01*
X163228565Y-105631215D01*
X163181532Y-105577712D01*
X163180942Y-105495432D01*
X163223759Y-105427144D01*
X163243827Y-105416078D01*
X163320725Y-105425128D01*
G37*
G36*
X162945658Y-103283437D02*
G01*
X162990225Y-103365035D01*
X162983238Y-103451486D01*
X162924640Y-103515311D01*
X162850193Y-103531829D01*
X162757870Y-103506158D01*
X162712834Y-103419911D01*
X162711216Y-103303610D01*
X162768416Y-103239049D01*
X162849591Y-103234171D01*
X162945658Y-103283437D01*
G37*
G36*
X160966921Y-96450293D02*
G01*
X161043432Y-96485841D01*
X161064780Y-96529431D01*
X161027758Y-96585697D01*
X160966921Y-96608569D01*
X160890586Y-96600524D01*
X160869084Y-96533324D01*
X160869061Y-96529431D01*
X160888927Y-96459681D01*
X160962823Y-96449733D01*
X160966921Y-96450293D01*
G37*
G36*
X158444318Y-100582143D02*
G01*
X158526142Y-100625350D01*
X158542178Y-100683027D01*
X158506643Y-100760806D01*
X158444318Y-100783912D01*
X158371845Y-100778472D01*
X158347581Y-100717775D01*
X158346458Y-100683027D01*
X158359871Y-100599926D01*
X158414558Y-100579232D01*
X158444318Y-100582143D01*
G37*
G36*
X156656444Y-96783178D02*
G01*
X156687148Y-96851548D01*
X156685560Y-96865872D01*
X156640673Y-96935251D01*
X156566969Y-96955437D01*
X156502875Y-96919768D01*
X156492093Y-96899414D01*
X156491592Y-96814426D01*
X156511047Y-96781692D01*
X156585072Y-96753780D01*
X156656444Y-96783178D01*
G37*
G36*
X156236719Y-110027913D02*
G01*
X156291232Y-110090343D01*
X156294458Y-110153466D01*
X156251868Y-110233360D01*
X156175501Y-110267118D01*
X156099650Y-110247331D01*
X156067006Y-110202605D01*
X156070433Y-110113247D01*
X156129578Y-110043124D01*
X156215304Y-110022225D01*
X156236719Y-110027913D01*
G37*
G36*
X154641721Y-111830869D02*
G01*
X154677463Y-111917587D01*
X154665269Y-111991246D01*
X154606028Y-112045957D01*
X154556536Y-112056486D01*
X154474906Y-112026675D01*
X154447803Y-111991246D01*
X154440658Y-111886117D01*
X154493914Y-111812637D01*
X154556536Y-111795527D01*
X154641721Y-111830869D01*
G37*
G36*
X154075865Y-97866721D02*
G01*
X154059140Y-97951092D01*
X154058298Y-97952440D01*
X153983862Y-98030247D01*
X153913125Y-98035976D01*
X153896565Y-98023602D01*
X153866340Y-97942564D01*
X153891882Y-97855104D01*
X153939176Y-97815707D01*
X154028422Y-97813035D01*
X154075865Y-97866721D01*
G37*
G36*
X147598067Y-112919261D02*
G01*
X147633021Y-113000230D01*
X147633140Y-113083394D01*
X147625637Y-113099933D01*
X147559573Y-113142104D01*
X147479867Y-113118088D01*
X147433244Y-113063492D01*
X147421712Y-112968957D01*
X147477419Y-112899529D01*
X147544178Y-112882856D01*
X147598067Y-112919261D01*
G37*
G36*
X164904580Y-98129415D02*
G01*
X164939187Y-98208421D01*
X164909349Y-98296417D01*
X164827164Y-98350657D01*
X164748081Y-98338015D01*
X164712187Y-98290904D01*
X164705042Y-98185775D01*
X164758298Y-98112295D01*
X164820920Y-98095185D01*
X164904580Y-98129415D01*
G37*
G36*
X164858530Y-102741549D02*
G01*
X164870431Y-102789878D01*
X164847232Y-102881276D01*
X164783570Y-102899410D01*
X164742411Y-102880951D01*
X164706007Y-102819513D01*
X164726413Y-102747967D01*
X164789534Y-102706595D01*
X164803826Y-102705459D01*
X164858530Y-102741549D01*
G37*
G36*
X155677672Y-119385079D02*
G01*
X155685528Y-119460751D01*
X155646141Y-119540104D01*
X155577830Y-119573918D01*
X155513111Y-119552006D01*
X155493671Y-119520859D01*
X155490527Y-119424866D01*
X155558642Y-119370224D01*
X155611982Y-119363336D01*
X155677672Y-119385079D01*
G37*
G36*
X154710218Y-107683114D02*
G01*
X154736527Y-107746011D01*
X154709956Y-107820941D01*
X154651866Y-107858072D01*
X154594696Y-107842752D01*
X154578800Y-107817254D01*
X154573476Y-107733923D01*
X154583014Y-107709254D01*
X154645770Y-107665048D01*
X154710218Y-107683114D01*
G37*
G36*
X149505845Y-110585877D02*
G01*
X149577821Y-110633150D01*
X149595098Y-110670605D01*
X149575551Y-110741895D01*
X149506063Y-110772154D01*
X149430954Y-110752057D01*
X149394812Y-110692004D01*
X149415702Y-110623839D01*
X149476669Y-110585190D01*
X149505845Y-110585877D01*
G37*
G36*
X148379505Y-106423608D02*
G01*
X148391436Y-106433381D01*
X148415787Y-106501966D01*
X148384064Y-106562591D01*
X148343034Y-106576349D01*
X148287252Y-106544667D01*
X148275452Y-106529066D01*
X148270371Y-106462736D01*
X148316388Y-106418234D01*
X148379505Y-106423608D01*
G37*
G36*
X147527906Y-104874041D02*
G01*
X147533919Y-104940907D01*
X147531858Y-104946749D01*
X147482467Y-105005683D01*
X147425257Y-104991407D01*
X147413368Y-104975899D01*
X147413924Y-104913045D01*
X147427685Y-104883341D01*
X147481070Y-104847898D01*
X147527906Y-104874041D01*
G37*
G36*
X146657671Y-110999411D02*
G01*
X146672459Y-111069162D01*
X146637338Y-111127740D01*
X146579729Y-111168644D01*
X146530847Y-111138481D01*
X146519714Y-111125472D01*
X146488517Y-111042668D01*
X146526629Y-110982282D01*
X146581561Y-110969157D01*
X146657671Y-110999411D01*
G37*
G36*
X172529930Y-112196710D02*
G01*
X172531750Y-112208712D01*
X172497889Y-112259709D01*
X172484994Y-112265616D01*
X172445336Y-112244621D01*
X172438239Y-112208712D01*
X172460308Y-112154582D01*
X172484994Y-112151809D01*
X172529930Y-112196710D01*
G37*
G36*
X170256004Y-103262191D02*
G01*
X170263582Y-103292616D01*
X170228767Y-103350278D01*
X170198342Y-103357856D01*
X170140680Y-103323041D01*
X170133102Y-103292616D01*
X170167917Y-103234954D01*
X170198342Y-103227377D01*
X170256004Y-103262191D01*
G37*
G36*
X168990417Y-113440987D02*
G01*
X169002280Y-113491760D01*
X168971329Y-113561730D01*
X168905409Y-113577013D01*
X168850054Y-113535253D01*
X168844386Y-113462303D01*
X168900946Y-113411311D01*
X168939607Y-113404774D01*
X168990417Y-113440987D01*
G37*
G36*
X167472442Y-99391301D02*
G01*
X167480020Y-99421726D01*
X167445205Y-99479388D01*
X167414780Y-99486966D01*
X167357118Y-99452151D01*
X167349541Y-99421726D01*
X167384355Y-99364064D01*
X167414780Y-99356486D01*
X167472442Y-99391301D01*
G37*
G36*
X165385098Y-117745467D02*
G01*
X165392349Y-117775836D01*
X165359915Y-117830544D01*
X165291334Y-117838130D01*
X165248554Y-117813262D01*
X165238439Y-117760045D01*
X165288204Y-117717823D01*
X165329676Y-117710596D01*
X165385098Y-117745467D01*
G37*
G36*
X165262579Y-104815315D02*
G01*
X165285725Y-104865403D01*
X165252999Y-104914097D01*
X165218376Y-104923609D01*
X165161664Y-104892296D01*
X165154994Y-104883122D01*
X165157819Y-104831563D01*
X165210106Y-104804018D01*
X165262579Y-104815315D01*
G37*
G36*
X162949372Y-97335793D02*
G01*
X162956732Y-97355801D01*
X162921505Y-97394387D01*
X162891493Y-97399294D01*
X162833613Y-97375809D01*
X162826253Y-97355801D01*
X162861481Y-97317215D01*
X162891493Y-97312308D01*
X162949372Y-97335793D01*
G37*
G36*
X159163164Y-108566735D02*
G01*
X159165144Y-108606050D01*
X159124906Y-108678546D01*
X159063135Y-108697191D01*
X159022021Y-108666316D01*
X159014868Y-108591652D01*
X159071982Y-108540370D01*
X159113345Y-108533541D01*
X159163164Y-108566735D01*
G37*
G36*
X159157917Y-105760719D02*
G01*
X159172828Y-105817786D01*
X159141702Y-105869936D01*
X159075957Y-105875769D01*
X159018260Y-105833176D01*
X159017477Y-105764752D01*
X159033650Y-105741281D01*
X159101044Y-105718804D01*
X159157917Y-105760719D01*
G37*
G36*
X156921521Y-117455869D02*
G01*
X156932931Y-117490101D01*
X156902822Y-117554841D01*
X156840396Y-117569569D01*
X156810607Y-117552027D01*
X156779189Y-117482439D01*
X156803664Y-117425523D01*
X156856818Y-117414424D01*
X156921521Y-117455869D01*
G37*
G36*
X155230632Y-104823308D02*
G01*
X155257559Y-104883198D01*
X155229708Y-104922098D01*
X155217518Y-104923609D01*
X155158195Y-104892165D01*
X155151569Y-104883122D01*
X155153648Y-104831495D01*
X155199628Y-104809022D01*
X155230632Y-104823308D01*
G37*
G36*
X152910524Y-106685521D02*
G01*
X152933670Y-106735608D01*
X152900944Y-106784303D01*
X152866321Y-106793815D01*
X152809609Y-106762501D01*
X152802939Y-106753327D01*
X152805764Y-106701768D01*
X152858051Y-106674223D01*
X152910524Y-106685521D01*
G37*
G36*
X152057287Y-98763178D02*
G01*
X152061698Y-98790480D01*
X152025361Y-98851558D01*
X151981635Y-98870542D01*
X151921005Y-98861564D01*
X151916991Y-98805898D01*
X151955601Y-98743495D01*
X152014534Y-98727958D01*
X152057287Y-98763178D01*
G37*
G36*
X151342797Y-120788214D02*
G01*
X151344061Y-120798609D01*
X151310964Y-120840839D01*
X151300568Y-120842103D01*
X151258339Y-120809005D01*
X151257075Y-120798609D01*
X151290172Y-120756380D01*
X151300568Y-120755116D01*
X151342797Y-120788214D01*
G37*
G36*
X148636135Y-102374250D02*
G01*
X148640063Y-102429177D01*
X148589282Y-102504065D01*
X148545177Y-102524063D01*
X148484864Y-102514750D01*
X148480936Y-102459822D01*
X148531717Y-102384935D01*
X148575822Y-102364937D01*
X148636135Y-102374250D01*
G37*
G36*
X160760679Y-100975497D02*
G01*
X160767982Y-101027614D01*
X160720460Y-101052719D01*
X160660546Y-101017700D01*
X160651595Y-100983855D01*
X160676884Y-100933129D01*
X160703244Y-100932207D01*
X160760679Y-100975497D01*
G37*
G36*
X152036029Y-110369311D02*
G01*
X152030698Y-110409759D01*
X152006744Y-110442499D01*
X151978320Y-110409584D01*
X151962360Y-110345554D01*
X151970357Y-110328364D01*
X152013353Y-110321222D01*
X152036029Y-110369311D01*
G37*
%TD*%
M02*
