%TF.GenerationSoftware,KiCad,Pcbnew,9.0.0*%
%TF.CreationDate,2025-03-26T19:28:16+01:00*%
%TF.ProjectId,attiny_pwm,61747469-6e79-45f7-9077-6d2e6b696361,1*%
%TF.SameCoordinates,Original*%
%TF.FileFunction,Copper,L1,Top*%
%TF.FilePolarity,Positive*%
%FSLAX46Y46*%
G04 Gerber Fmt 4.6, Leading zero omitted, Abs format (unit mm)*
G04 Created by KiCad (PCBNEW 9.0.0) date 2025-03-26 19:28:16*
%MOMM*%
%LPD*%
G01*
G04 APERTURE LIST*
G04 Aperture macros list*
%AMRoundRect*
0 Rectangle with rounded corners*
0 $1 Rounding radius*
0 $2 $3 $4 $5 $6 $7 $8 $9 X,Y pos of 4 corners*
0 Add a 4 corners polygon primitive as box body*
4,1,4,$2,$3,$4,$5,$6,$7,$8,$9,$2,$3,0*
0 Add four circle primitives for the rounded corners*
1,1,$1+$1,$2,$3*
1,1,$1+$1,$4,$5*
1,1,$1+$1,$6,$7*
1,1,$1+$1,$8,$9*
0 Add four rect primitives between the rounded corners*
20,1,$1+$1,$2,$3,$4,$5,0*
20,1,$1+$1,$4,$5,$6,$7,0*
20,1,$1+$1,$6,$7,$8,$9,0*
20,1,$1+$1,$8,$9,$2,$3,0*%
G04 Aperture macros list end*
%TA.AperFunction,SMDPad,CuDef*%
%ADD10R,1.000000X2.750000*%
%TD*%
%TA.AperFunction,SMDPad,CuDef*%
%ADD11RoundRect,0.218750X-0.256250X0.218750X-0.256250X-0.218750X0.256250X-0.218750X0.256250X0.218750X0*%
%TD*%
%TA.AperFunction,ComponentPad*%
%ADD12O,1.700000X1.700000*%
%TD*%
%TA.AperFunction,ComponentPad*%
%ADD13R,1.700000X1.700000*%
%TD*%
%TA.AperFunction,SMDPad,CuDef*%
%ADD14RoundRect,0.250000X-2.025000X-2.375000X2.025000X-2.375000X2.025000X2.375000X-2.025000X2.375000X0*%
%TD*%
%TA.AperFunction,SMDPad,CuDef*%
%ADD15RoundRect,0.250002X-4.449998X-5.149998X4.449998X-5.149998X4.449998X5.149998X-4.449998X5.149998X0*%
%TD*%
%TA.AperFunction,SMDPad,CuDef*%
%ADD16RoundRect,0.250000X-2.050000X-0.300000X2.050000X-0.300000X2.050000X0.300000X-2.050000X0.300000X0*%
%TD*%
%TA.AperFunction,SMDPad,CuDef*%
%ADD17RoundRect,0.250000X-0.450000X0.262500X-0.450000X-0.262500X0.450000X-0.262500X0.450000X0.262500X0*%
%TD*%
%TA.AperFunction,ComponentPad*%
%ADD18C,2.800000*%
%TD*%
%TA.AperFunction,ComponentPad*%
%ADD19RoundRect,0.250001X-1.149999X-1.149999X1.149999X-1.149999X1.149999X1.149999X-1.149999X1.149999X0*%
%TD*%
%TA.AperFunction,SMDPad,CuDef*%
%ADD20RoundRect,0.250000X-0.262500X-0.450000X0.262500X-0.450000X0.262500X0.450000X-0.262500X0.450000X0*%
%TD*%
%TA.AperFunction,SMDPad,CuDef*%
%ADD21RoundRect,0.250000X0.475000X-0.250000X0.475000X0.250000X-0.475000X0.250000X-0.475000X-0.250000X0*%
%TD*%
%TA.AperFunction,SMDPad,CuDef*%
%ADD22RoundRect,0.243750X-0.243750X-0.456250X0.243750X-0.456250X0.243750X0.456250X-0.243750X0.456250X0*%
%TD*%
%TA.AperFunction,SMDPad,CuDef*%
%ADD23RoundRect,0.250000X-0.475000X0.250000X-0.475000X-0.250000X0.475000X-0.250000X0.475000X0.250000X0*%
%TD*%
%TA.AperFunction,ComponentPad*%
%ADD24RoundRect,0.250001X1.149999X-1.149999X1.149999X1.149999X-1.149999X1.149999X-1.149999X-1.149999X0*%
%TD*%
%TA.AperFunction,ComponentPad*%
%ADD25RoundRect,0.250001X-1.149999X1.149999X-1.149999X-1.149999X1.149999X-1.149999X1.149999X1.149999X0*%
%TD*%
%TA.AperFunction,SMDPad,CuDef*%
%ADD26RoundRect,0.243750X0.456250X-0.243750X0.456250X0.243750X-0.456250X0.243750X-0.456250X-0.243750X0*%
%TD*%
%TA.AperFunction,SMDPad,CuDef*%
%ADD27RoundRect,0.150000X0.825000X0.150000X-0.825000X0.150000X-0.825000X-0.150000X0.825000X-0.150000X0*%
%TD*%
%TA.AperFunction,SMDPad,CuDef*%
%ADD28RoundRect,0.250000X0.262500X0.450000X-0.262500X0.450000X-0.262500X-0.450000X0.262500X-0.450000X0*%
%TD*%
%TA.AperFunction,SMDPad,CuDef*%
%ADD29RoundRect,0.225000X0.225000X0.250000X-0.225000X0.250000X-0.225000X-0.250000X0.225000X-0.250000X0*%
%TD*%
%TA.AperFunction,ViaPad*%
%ADD30C,0.800000*%
%TD*%
%TA.AperFunction,ViaPad*%
%ADD31C,0.600000*%
%TD*%
%TA.AperFunction,Conductor*%
%ADD32C,0.200000*%
%TD*%
%TA.AperFunction,Conductor*%
%ADD33C,2.000000*%
%TD*%
%TA.AperFunction,Conductor*%
%ADD34C,0.500000*%
%TD*%
G04 APERTURE END LIST*
D10*
%TO.P,SW2,2,2*%
%TO.N,Net-(U2-PA2)*%
X148673000Y-125507000D03*
X148673000Y-131257000D03*
%TO.P,SW2,1,1*%
%TO.N,5V*%
X144673000Y-125507000D03*
X144673000Y-131257000D03*
%TD*%
D11*
%TO.P,D2,2,A*%
%TO.N,Net-(D2-A)*%
X169173000Y-108669500D03*
%TO.P,D2,1,K*%
%TO.N,/Vin*%
X169173000Y-107094500D03*
%TD*%
D12*
%TO.P,J2,3,Pin_3*%
%TO.N,5V*%
X144728000Y-121382000D03*
%TO.P,J2,2,Pin_2*%
%TO.N,Net-(J2-Pin_2)*%
X142188000Y-121382000D03*
D13*
%TO.P,J2,1,Pin_1*%
%TO.N,GND*%
X139648000Y-121382000D03*
%TD*%
D14*
%TO.P,U1,4*%
%TO.N,N/C*%
X164223000Y-106407000D03*
X164223000Y-100857000D03*
D15*
X161798000Y-103632000D03*
D14*
X159373000Y-106407000D03*
X159373000Y-100857000D03*
D16*
%TO.P,U1,3,VO*%
%TO.N,5V*%
X152648000Y-106172000D03*
%TO.P,U1,2,GND*%
%TO.N,GND*%
X152648000Y-103632000D03*
%TO.P,U1,1,VI*%
%TO.N,/Vin*%
X152648000Y-101092000D03*
%TD*%
D17*
%TO.P,R8,2*%
%TO.N,Net-(D3-A)*%
X169173000Y-100544500D03*
%TO.P,R8,1*%
%TO.N,/Vin*%
X169173000Y-98719500D03*
%TD*%
D18*
%TO.P,RV1,3,3*%
%TO.N,GND*%
X164423000Y-129099500D03*
%TO.P,RV1,2,2*%
%TO.N,Net-(U2-PA6)*%
X159423000Y-129099500D03*
D19*
%TO.P,RV1,1,1*%
%TO.N,5V*%
X154423000Y-129099500D03*
%TD*%
D20*
%TO.P,R6,2*%
%TO.N,GND*%
X149585500Y-117632000D03*
%TO.P,R6,1*%
%TO.N,Net-(U2-PA3)*%
X147760500Y-117632000D03*
%TD*%
%TO.P,R2,2*%
%TO.N,Net-(U2-~{RESET}{slash}PA0)*%
X149585500Y-115132000D03*
%TO.P,R2,1*%
%TO.N,Net-(J2-Pin_2)*%
X147760500Y-115132000D03*
%TD*%
D10*
%TO.P,SW1,2,2*%
%TO.N,Net-(U2-PA1)*%
X143673000Y-111757000D03*
X143673000Y-117507000D03*
%TO.P,SW1,1,1*%
%TO.N,5V*%
X139673000Y-111757000D03*
X139673000Y-117507000D03*
%TD*%
D21*
%TO.P,C2,2*%
%TO.N,GND*%
X147923000Y-104932000D03*
%TO.P,C2,1*%
%TO.N,5V*%
X147923000Y-106832000D03*
%TD*%
D20*
%TO.P,R7,2*%
%TO.N,Net-(Q1-G)*%
X161085500Y-117632000D03*
%TO.P,R7,1*%
%TO.N,GND*%
X159260500Y-117632000D03*
%TD*%
D22*
%TO.P,D1,2,A*%
%TO.N,Net-(D1-A)*%
X152860500Y-94882000D03*
%TO.P,D1,1,K*%
%TO.N,GND*%
X150985500Y-94882000D03*
%TD*%
D23*
%TO.P,C1,2*%
%TO.N,GND*%
X147923000Y-102332000D03*
%TO.P,C1,1*%
%TO.N,/Vin*%
X147923000Y-100432000D03*
%TD*%
D18*
%TO.P,J1,2,Pin_2*%
%TO.N,/Vin*%
X177140500Y-100882000D03*
D24*
%TO.P,J1,1,Pin_1*%
%TO.N,Net-(D2-A)*%
X177140500Y-105882000D03*
%TD*%
D10*
%TO.P,SW3,2,2*%
%TO.N,Net-(U2-PA3)*%
X169673000Y-131257000D03*
X169673000Y-125507000D03*
%TO.P,SW3,1,1*%
%TO.N,5V*%
X173673000Y-131257000D03*
X173673000Y-125507000D03*
%TD*%
D16*
%TO.P,Q1,3,S*%
%TO.N,GND*%
X165023000Y-118672000D03*
D14*
%TO.P,Q1,2,D*%
%TO.N,Net-(D2-A)*%
X176598000Y-118907000D03*
X176598000Y-113357000D03*
D15*
X174173000Y-116132000D03*
D14*
X171748000Y-118907000D03*
X171748000Y-113357000D03*
D16*
X165023000Y-116132000D03*
%TO.P,Q1,1,G*%
%TO.N,Net-(Q1-G)*%
X165023000Y-113592000D03*
%TD*%
D18*
%TO.P,BT1,2,-*%
%TO.N,GND*%
X141455500Y-106382000D03*
D25*
%TO.P,BT1,1,+*%
%TO.N,/Vin*%
X141455500Y-101382000D03*
%TD*%
D26*
%TO.P,D3,2,A*%
%TO.N,Net-(D3-A)*%
X169173000Y-102944500D03*
%TO.P,D3,1,K*%
%TO.N,Net-(D2-A)*%
X169173000Y-104819500D03*
%TD*%
D27*
%TO.P,U2,8,GND*%
%TO.N,GND*%
X151948000Y-117037000D03*
%TO.P,U2,7,PA3*%
%TO.N,Net-(U2-PA3)*%
X151948000Y-115767000D03*
%TO.P,U2,6,~{RESET}/PA0*%
%TO.N,Net-(U2-~{RESET}{slash}PA0)*%
X151948000Y-114497000D03*
%TO.P,U2,5,PA2*%
%TO.N,Net-(U2-PA2)*%
X151948000Y-113227000D03*
%TO.P,U2,4,PA1*%
%TO.N,Net-(U2-PA1)*%
X156898000Y-113227000D03*
%TO.P,U2,3,PA7*%
%TO.N,/PWM_O*%
X156898000Y-114497000D03*
%TO.P,U2,2,PA6*%
%TO.N,Net-(U2-PA6)*%
X156898000Y-115767000D03*
%TO.P,U2,1,VCC*%
%TO.N,5V*%
X156898000Y-117037000D03*
%TD*%
D28*
%TO.P,R5,2*%
%TO.N,GND*%
X147760500Y-112632000D03*
%TO.P,R5,1*%
%TO.N,Net-(U2-PA2)*%
X149585500Y-112632000D03*
%TD*%
D20*
%TO.P,R1,2*%
%TO.N,5V*%
X157085500Y-94882000D03*
%TO.P,R1,1*%
%TO.N,Net-(D1-A)*%
X155260500Y-94882000D03*
%TD*%
D28*
%TO.P,R3,2*%
%TO.N,/PWM_O*%
X159260500Y-115132000D03*
%TO.P,R3,1*%
%TO.N,Net-(Q1-G)*%
X161085500Y-115132000D03*
%TD*%
D20*
%TO.P,R4,2*%
%TO.N,GND*%
X161085500Y-112632000D03*
%TO.P,R4,1*%
%TO.N,Net-(U2-PA1)*%
X159260500Y-112632000D03*
%TD*%
D29*
%TO.P,C3,2*%
%TO.N,GND*%
X153648000Y-118882000D03*
%TO.P,C3,1*%
%TO.N,5V*%
X155198000Y-118882000D03*
%TD*%
D30*
%TO.N,GND*%
X163173000Y-120132000D03*
X165673000Y-120132000D03*
X166923000Y-120132000D03*
X154423000Y-104382000D03*
X153423000Y-117632000D03*
D31*
X146423000Y-112632000D03*
D30*
X164423000Y-120132000D03*
X150923000Y-104382000D03*
D31*
%TO.N,Net-(U2-PA3)*%
X159173000Y-120632000D03*
X154423000Y-116632000D03*
%TD*%
D32*
%TO.N,/PWM_O*%
X157533000Y-115132000D02*
X156898000Y-114497000D01*
X159260500Y-115132000D02*
X157533000Y-115132000D01*
%TO.N,Net-(U2-PA1)*%
X157493000Y-112632000D02*
X156898000Y-113227000D01*
X159260500Y-112632000D02*
X157493000Y-112632000D01*
X156898000Y-113227000D02*
X155302000Y-111631000D01*
X155302000Y-111631000D02*
X143799000Y-111631000D01*
X143673000Y-111757000D02*
X143673000Y-117507000D01*
X143799000Y-111631000D02*
X143673000Y-111757000D01*
D33*
%TO.N,Net-(D2-A)*%
X177140500Y-113164500D02*
X174173000Y-116132000D01*
X165023000Y-116132000D02*
X174173000Y-116132000D01*
X177140500Y-105882000D02*
X177140500Y-113164500D01*
D34*
%TO.N,/Vin*%
X169173000Y-107094500D02*
X173460500Y-107094500D01*
X174173000Y-106382000D02*
X174173000Y-103849500D01*
X174173000Y-103849500D02*
X177140500Y-100882000D01*
X174978000Y-98719500D02*
X177140500Y-100882000D01*
X146773000Y-101382000D02*
X141455500Y-101382000D01*
X152648000Y-101092000D02*
X148583000Y-101092000D01*
X147923000Y-100432000D02*
X147723000Y-100432000D01*
X147723000Y-100432000D02*
X146773000Y-101382000D01*
X148583000Y-101092000D02*
X147923000Y-100432000D01*
X169173000Y-98719500D02*
X174978000Y-98719500D01*
X173460500Y-107094500D02*
X174173000Y-106382000D01*
D33*
%TO.N,GND*%
X166923000Y-120132000D02*
X166483000Y-120132000D01*
D32*
X149585500Y-117632000D02*
X151353000Y-117632000D01*
X153423000Y-118657000D02*
X153648000Y-118882000D01*
X159260500Y-117632000D02*
X161760500Y-120132000D01*
X153423000Y-117632000D02*
X153423000Y-118657000D01*
X156396000Y-98105000D02*
X156396000Y-102184000D01*
D34*
X150923000Y-104382000D02*
X154423000Y-104382000D01*
D32*
X151948000Y-117037000D02*
X152828000Y-117037000D01*
X161760500Y-120132000D02*
X163173000Y-120132000D01*
D33*
X166483000Y-120132000D02*
X165023000Y-118672000D01*
D34*
X151348000Y-104932000D02*
X152648000Y-103632000D01*
X154423000Y-104382000D02*
X153398000Y-104382000D01*
D33*
X164423000Y-120132000D02*
X165673000Y-120132000D01*
D34*
X151898000Y-104382000D02*
X152648000Y-103632000D01*
D32*
X147760500Y-112632000D02*
X146423000Y-112632000D01*
X155423000Y-97132000D02*
X156396000Y-98105000D01*
D34*
X150923000Y-104382000D02*
X151898000Y-104382000D01*
D32*
X153235500Y-97132000D02*
X155423000Y-97132000D01*
D34*
X153398000Y-104382000D02*
X152648000Y-103632000D01*
X141455500Y-106382000D02*
X146473000Y-106382000D01*
D32*
X160272000Y-113445500D02*
X161085500Y-112632000D01*
X151353000Y-117632000D02*
X151948000Y-117037000D01*
X160272000Y-116620500D02*
X160272000Y-113445500D01*
X156396000Y-102184000D02*
X154948000Y-103632000D01*
X154948000Y-103632000D02*
X152648000Y-103632000D01*
X150985500Y-94882000D02*
X153235500Y-97132000D01*
D34*
X147923000Y-102332000D02*
X147923000Y-104932000D01*
D33*
X163173000Y-120132000D02*
X163563000Y-120132000D01*
D34*
X146473000Y-106382000D02*
X147923000Y-104932000D01*
X147923000Y-104932000D02*
X151348000Y-104932000D01*
D33*
X163563000Y-120132000D02*
X165023000Y-118672000D01*
D32*
X152828000Y-117037000D02*
X153423000Y-117632000D01*
X159260500Y-117632000D02*
X160272000Y-116620500D01*
%TO.N,5V*%
X150589500Y-132933000D02*
X154423000Y-129099500D01*
X173673000Y-131257000D02*
X171997000Y-132933000D01*
D34*
X152648000Y-106172000D02*
X148583000Y-106172000D01*
D32*
X142728000Y-123382000D02*
X138923000Y-123382000D01*
X171997000Y-132933000D02*
X158256500Y-132933000D01*
X154423000Y-119657000D02*
X155198000Y-118882000D01*
X155198000Y-118737000D02*
X156898000Y-117037000D01*
X156797000Y-104382000D02*
X155007000Y-106172000D01*
X144673000Y-125132000D02*
X144728000Y-125077000D01*
X144673000Y-131257000D02*
X146349000Y-132933000D01*
X173673000Y-131257000D02*
X173673000Y-125507000D01*
X156797000Y-95170500D02*
X156797000Y-104382000D01*
X155007000Y-106172000D02*
X152648000Y-106172000D01*
X137673000Y-122132000D02*
X137673000Y-119507000D01*
X154423000Y-129099500D02*
X154423000Y-119657000D01*
X158256500Y-132933000D02*
X154423000Y-129099500D01*
X144673000Y-131257000D02*
X144673000Y-125507000D01*
X144728000Y-125077000D02*
X144728000Y-121382000D01*
X139673000Y-111132000D02*
X143423000Y-107382000D01*
X144673000Y-125507000D02*
X144673000Y-125132000D01*
X143423000Y-107382000D02*
X147373000Y-107382000D01*
X155198000Y-118882000D02*
X155198000Y-118737000D01*
X144728000Y-121382000D02*
X142728000Y-123382000D01*
X139673000Y-111757000D02*
X139673000Y-111132000D01*
D34*
X148583000Y-106172000D02*
X147923000Y-106832000D01*
D32*
X147373000Y-107382000D02*
X147923000Y-106832000D01*
X146349000Y-132933000D02*
X150589500Y-132933000D01*
X157085500Y-94882000D02*
X156797000Y-95170500D01*
X139673000Y-111757000D02*
X139673000Y-117507000D01*
X137673000Y-119507000D02*
X139673000Y-117507000D01*
X138923000Y-123382000D02*
X137673000Y-122132000D01*
%TO.N,Net-(D1-A)*%
X152860500Y-94882000D02*
X155260500Y-94882000D01*
D34*
%TO.N,Net-(D2-A)*%
X169173000Y-110782000D02*
X171748000Y-113357000D01*
X169173000Y-104819500D02*
X168247000Y-105745500D01*
X168247000Y-105745500D02*
X168247000Y-107743500D01*
X168247000Y-107743500D02*
X169173000Y-108669500D01*
X169173000Y-108669500D02*
X169173000Y-110782000D01*
%TO.N,Net-(D3-A)*%
X169173000Y-100544500D02*
X169173000Y-102944500D01*
D32*
%TO.N,Net-(J2-Pin_2)*%
X147423000Y-115132000D02*
X147760500Y-115132000D01*
X144923000Y-118647000D02*
X144923000Y-117632000D01*
X144923000Y-117632000D02*
X147423000Y-115132000D01*
X142188000Y-121382000D02*
X144923000Y-118647000D01*
%TO.N,Net-(Q1-G)*%
X162713000Y-113592000D02*
X165023000Y-113592000D01*
X161085500Y-117632000D02*
X161085500Y-115132000D01*
X161085500Y-115132000D02*
X161173000Y-115132000D01*
X161173000Y-115132000D02*
X162713000Y-113592000D01*
%TO.N,Net-(U2-~{RESET}{slash}PA0)*%
X149585500Y-115132000D02*
X151313000Y-115132000D01*
X151313000Y-115132000D02*
X151948000Y-114497000D01*
%TO.N,Net-(U2-PA6)*%
X157244968Y-115767000D02*
X156898000Y-115767000D01*
X159423000Y-129099500D02*
X158174000Y-127850500D01*
X158174000Y-116696032D02*
X157244968Y-115767000D01*
X158174000Y-127850500D02*
X158174000Y-116696032D01*
%TO.N,Net-(U2-PA2)*%
X148258160Y-116133000D02*
X148673000Y-115718160D01*
X148673000Y-113544500D02*
X149585500Y-112632000D01*
X147760840Y-116133000D02*
X148258160Y-116133000D01*
X148673000Y-115718160D02*
X148673000Y-113544500D01*
X146947000Y-123781000D02*
X146947000Y-116946840D01*
X152294968Y-113227000D02*
X151948000Y-113227000D01*
X151353000Y-112632000D02*
X151948000Y-113227000D01*
X148673000Y-125507000D02*
X146947000Y-123781000D01*
X149585500Y-112632000D02*
X151353000Y-112632000D01*
X148673000Y-131257000D02*
X148673000Y-125507000D01*
X146947000Y-116946840D02*
X147760840Y-116133000D01*
%TO.N,Net-(U2-PA3)*%
X147760500Y-117632000D02*
X148956500Y-116436000D01*
X154423000Y-116632000D02*
X153558000Y-115767000D01*
X148956500Y-116436000D02*
X151279000Y-116436000D01*
X169673000Y-125507000D02*
X164048000Y-125507000D01*
X169673000Y-131257000D02*
X169673000Y-125507000D01*
X151279000Y-116436000D02*
X151948000Y-115767000D01*
X153558000Y-115767000D02*
X151948000Y-115767000D01*
X164048000Y-125507000D02*
X159173000Y-120632000D01*
%TD*%
M02*
