%TF.GenerationSoftware,KiCad,Pcbnew,9.0.0*%
%TF.CreationDate,2025-03-26T19:28:16+01:00*%
%TF.ProjectId,attiny_pwm,61747469-6e79-45f7-9077-6d2e6b696361,1*%
%TF.SameCoordinates,Original*%
%TF.FileFunction,Soldermask,Top*%
%TF.FilePolarity,Negative*%
%FSLAX46Y46*%
G04 Gerber Fmt 4.6, Leading zero omitted, Abs format (unit mm)*
G04 Created by KiCad (PCBNEW 9.0.0) date 2025-03-26 19:28:16*
%MOMM*%
%LPD*%
G01*
G04 APERTURE LIST*
G04 Aperture macros list*
%AMRoundRect*
0 Rectangle with rounded corners*
0 $1 Rounding radius*
0 $2 $3 $4 $5 $6 $7 $8 $9 X,Y pos of 4 corners*
0 Add a 4 corners polygon primitive as box body*
4,1,4,$2,$3,$4,$5,$6,$7,$8,$9,$2,$3,0*
0 Add four circle primitives for the rounded corners*
1,1,$1+$1,$2,$3*
1,1,$1+$1,$4,$5*
1,1,$1+$1,$6,$7*
1,1,$1+$1,$8,$9*
0 Add four rect primitives between the rounded corners*
20,1,$1+$1,$2,$3,$4,$5,0*
20,1,$1+$1,$4,$5,$6,$7,0*
20,1,$1+$1,$6,$7,$8,$9,0*
20,1,$1+$1,$8,$9,$2,$3,0*%
G04 Aperture macros list end*
%ADD10C,3.200000*%
%ADD11R,1.000000X2.750000*%
%ADD12RoundRect,0.218750X-0.256250X0.218750X-0.256250X-0.218750X0.256250X-0.218750X0.256250X0.218750X0*%
%ADD13O,1.700000X1.700000*%
%ADD14R,1.700000X1.700000*%
%ADD15RoundRect,0.250002X-4.449998X-5.149998X4.449998X-5.149998X4.449998X5.149998X-4.449998X5.149998X0*%
%ADD16RoundRect,0.250000X-2.050000X-0.300000X2.050000X-0.300000X2.050000X0.300000X-2.050000X0.300000X0*%
%ADD17RoundRect,0.250000X-0.450000X0.262500X-0.450000X-0.262500X0.450000X-0.262500X0.450000X0.262500X0*%
%ADD18C,2.800000*%
%ADD19RoundRect,0.250001X-1.149999X-1.149999X1.149999X-1.149999X1.149999X1.149999X-1.149999X1.149999X0*%
%ADD20RoundRect,0.250000X-0.262500X-0.450000X0.262500X-0.450000X0.262500X0.450000X-0.262500X0.450000X0*%
%ADD21RoundRect,0.250000X0.475000X-0.250000X0.475000X0.250000X-0.475000X0.250000X-0.475000X-0.250000X0*%
%ADD22RoundRect,0.243750X-0.243750X-0.456250X0.243750X-0.456250X0.243750X0.456250X-0.243750X0.456250X0*%
%ADD23RoundRect,0.250000X-0.475000X0.250000X-0.475000X-0.250000X0.475000X-0.250000X0.475000X0.250000X0*%
%ADD24RoundRect,0.250001X1.149999X-1.149999X1.149999X1.149999X-1.149999X1.149999X-1.149999X-1.149999X0*%
%ADD25RoundRect,0.250001X-1.149999X1.149999X-1.149999X-1.149999X1.149999X-1.149999X1.149999X1.149999X0*%
%ADD26RoundRect,0.243750X0.456250X-0.243750X0.456250X0.243750X-0.456250X0.243750X-0.456250X-0.243750X0*%
%ADD27RoundRect,0.150000X0.825000X0.150000X-0.825000X0.150000X-0.825000X-0.150000X0.825000X-0.150000X0*%
%ADD28RoundRect,0.250000X0.262500X0.450000X-0.262500X0.450000X-0.262500X-0.450000X0.262500X-0.450000X0*%
%ADD29RoundRect,0.225000X0.225000X0.250000X-0.225000X0.250000X-0.225000X-0.250000X0.225000X-0.250000X0*%
G04 APERTURE END LIST*
D10*
%TO.C,H3*%
X178673000Y-94632000D03*
%TD*%
D11*
%TO.C,SW2*%
X148673000Y-125507000D03*
X148673000Y-131257000D03*
X144673000Y-125507000D03*
X144673000Y-131257000D03*
%TD*%
D12*
%TO.C,D2*%
X169173000Y-108669500D03*
X169173000Y-107094500D03*
%TD*%
D13*
%TO.C,J2*%
X144728000Y-121382000D03*
X142188000Y-121382000D03*
D14*
X139648000Y-121382000D03*
%TD*%
D15*
%TO.C,U1*%
X161798000Y-103632000D03*
D16*
X152648000Y-106172000D03*
X152648000Y-103632000D03*
X152648000Y-101092000D03*
%TD*%
D17*
%TO.C,R8*%
X169173000Y-100544500D03*
X169173000Y-98719500D03*
%TD*%
D10*
%TO.C,H1*%
X139673000Y-94632000D03*
%TD*%
D18*
%TO.C,RV1*%
X164423000Y-129099500D03*
X159423000Y-129099500D03*
D19*
X154423000Y-129099500D03*
%TD*%
D20*
%TO.C,R6*%
X149585500Y-117632000D03*
X147760500Y-117632000D03*
%TD*%
%TO.C,R2*%
X149585500Y-115132000D03*
X147760500Y-115132000D03*
%TD*%
D11*
%TO.C,SW1*%
X143673000Y-111757000D03*
X143673000Y-117507000D03*
X139673000Y-111757000D03*
X139673000Y-117507000D03*
%TD*%
D21*
%TO.C,C2*%
X147923000Y-104932000D03*
X147923000Y-106832000D03*
%TD*%
D20*
%TO.C,R7*%
X161085500Y-117632000D03*
X159260500Y-117632000D03*
%TD*%
D10*
%TO.C,H4*%
X178673000Y-130632000D03*
%TD*%
D22*
%TO.C,D1*%
X152860500Y-94882000D03*
X150985500Y-94882000D03*
%TD*%
D23*
%TO.C,C1*%
X147923000Y-102332000D03*
X147923000Y-100432000D03*
%TD*%
D18*
%TO.C,J1*%
X177140500Y-100882000D03*
D24*
X177140500Y-105882000D03*
%TD*%
D11*
%TO.C,SW3*%
X169673000Y-131257000D03*
X169673000Y-125507000D03*
X173673000Y-131257000D03*
X173673000Y-125507000D03*
%TD*%
D16*
%TO.C,Q1*%
X165023000Y-118672000D03*
D15*
X174173000Y-116132000D03*
D16*
X165023000Y-116132000D03*
X165023000Y-113592000D03*
%TD*%
D18*
%TO.C,BT1*%
X141455500Y-106382000D03*
D25*
X141455500Y-101382000D03*
%TD*%
D26*
%TO.C,D3*%
X169173000Y-102944500D03*
X169173000Y-104819500D03*
%TD*%
D10*
%TO.C,H2*%
X139673000Y-130632000D03*
%TD*%
D27*
%TO.C,U2*%
X151948000Y-117037000D03*
X151948000Y-115767000D03*
X151948000Y-114497000D03*
X151948000Y-113227000D03*
X156898000Y-113227000D03*
X156898000Y-114497000D03*
X156898000Y-115767000D03*
X156898000Y-117037000D03*
%TD*%
D28*
%TO.C,R5*%
X147760500Y-112632000D03*
X149585500Y-112632000D03*
%TD*%
D20*
%TO.C,R1*%
X157085500Y-94882000D03*
X155260500Y-94882000D03*
%TD*%
D28*
%TO.C,R3*%
X159260500Y-115132000D03*
X161085500Y-115132000D03*
%TD*%
D20*
%TO.C,R4*%
X161085500Y-112632000D03*
X159260500Y-112632000D03*
%TD*%
D29*
%TO.C,C3*%
X153648000Y-118882000D03*
X155198000Y-118882000D03*
%TD*%
M02*
